<svg width="120" height="41" viewBox="0 0 120 41" fill="none" xmlns="http://www.w3.org/2000/svg">
<path d="M110.471 0.892708H9.87062C9.50392 0.892708 9.14162 0.892708 8.77589 0.894708C8.46974 0.896708 8.16603 0.902518 7.85694 0.907408C7.18545 0.91531 6.51554 0.974384 5.85304 1.08412C5.19146 1.19624 4.55061 1.40762 3.95216 1.71112C3.35444 2.01718 2.80828 2.41488 2.33351 2.88978C1.85624 3.36335 1.4584 3.91072 1.15529 4.51087C0.851338 5.10982 0.640578 5.75165 0.530288 6.41419C0.418948 7.07589 0.359036 7.74523 0.351088 8.41619C0.341808 8.72279 0.340827 9.03041 0.335938 9.33705V32.4513C0.340827 32.7618 0.341808 33.0626 0.351088 33.3732C0.359038 34.0441 0.418951 34.7134 0.530288 35.3751C0.640273 36.038 0.851046 36.6802 1.15529 37.2794C1.45826 37.8776 1.85616 38.4228 2.33351 38.8937C2.80648 39.3707 3.35299 39.7687 3.95216 40.0724C4.55061 40.3767 5.19139 40.5894 5.85304 40.7032C6.51566 40.8121 7.18549 40.8712 7.85694 40.88C8.16603 40.8868 8.46974 40.8907 8.77589 40.8907C9.14161 40.8927 9.50394 40.8927 9.87062 40.8927H110.471C110.83 40.8927 111.195 40.8927 111.555 40.8907C111.859 40.8907 112.172 40.8868 112.477 40.88C113.147 40.8716 113.815 40.8125 114.477 40.7032C115.14 40.5886 115.783 40.376 116.385 40.0724C116.983 39.7685 117.529 39.3706 118.002 38.8937C118.478 38.4209 118.877 37.8762 119.184 37.2794C119.486 36.6798 119.694 36.0377 119.803 35.3751C119.914 34.7133 119.976 34.0442 119.988 33.3732C119.992 33.0626 119.992 32.7618 119.992 32.4513C120 32.088 120 31.7267 120 31.3575V10.4288C120 10.0626 120 9.69935 119.992 9.33705C119.992 9.03041 119.992 8.72279 119.988 8.41615C119.976 7.74513 119.914 7.07594 119.803 6.41415C119.694 5.75199 119.485 5.11021 119.184 4.51083C118.566 3.3079 117.588 2.32873 116.385 1.71103C115.783 1.40828 115.14 1.19695 114.477 1.08403C113.815 0.973811 113.147 0.914716 112.477 0.907268C112.172 0.902388 111.859 0.896528 111.555 0.894578C111.195 0.892578 110.83 0.892578 110.471 0.892578V0.892708Z" fill="white"/>
<path d="M8.78074 40.0176C8.47606 40.0176 8.17874 40.0137 7.87645 40.0069C7.25024 39.9987 6.62548 39.9442 6.00731 39.8438C5.4309 39.7445 4.87252 39.5598 4.35057 39.2959C3.83342 39.0341 3.36173 38.6908 2.95357 38.2793C2.53951 37.8726 2.19479 37.4008 1.93306 36.8828C1.66845 36.3614 1.48533 35.8025 1.39006 35.2256C1.28719 34.6057 1.23153 33.9789 1.22356 33.3506C1.21722 33.1397 1.20892 32.4375 1.20892 32.4375V9.33692C1.20892 9.33692 1.21776 8.64551 1.22361 8.44238C1.23124 7.81506 1.28658 7.18923 1.38914 6.57031C1.48458 5.99183 1.66785 5.43133 1.9326 4.90821C2.19337 4.39052 2.53618 3.91844 2.94774 3.51026C3.35885 3.0982 3.83205 2.75318 4.35008 2.48779C4.87083 2.22467 5.42816 2.04131 6.0034 1.94385C6.6236 1.84241 7.25052 1.78757 7.87891 1.77979L8.78123 1.76758H111.55L112.463 1.78028C113.086 1.78768 113.707 1.84203 114.321 1.94287C114.902 2.04155 115.465 2.22619 115.992 2.49072C117.03 3.02556 117.874 3.87174 118.407 4.91065C118.668 5.43016 118.848 5.98608 118.942 6.55957C119.046 7.18357 119.104 7.81432 119.116 8.44678C119.119 8.72998 119.119 9.03418 119.119 9.33692C119.127 9.71192 119.127 10.0688 119.127 10.4287V31.3574C119.127 31.7207 119.127 32.0752 119.119 32.4326C119.119 32.7578 119.119 33.0557 119.115 33.3623C119.104 33.9835 119.046 34.6029 118.944 35.2158C118.851 35.7968 118.669 36.3601 118.404 36.8858C118.141 37.3982 117.798 37.8658 117.389 38.2715C116.98 38.6853 116.508 39.0305 115.989 39.294C115.464 39.56 114.902 39.7453 114.321 39.8438C113.703 39.9447 113.078 39.9993 112.452 40.0069C112.159 40.0137 111.852 40.0176 111.555 40.0176L110.471 40.0196L8.78074 40.0176Z" fill="black"/>
<path d="M25.1048 21.1939C25.1156 20.3592 25.3373 19.5408 25.7493 18.8149C26.1613 18.0889 26.7503 17.479 27.4614 17.0418C27.0096 16.3967 26.4137 15.8657 25.7209 15.4912C25.028 15.1166 24.2574 14.9088 23.4702 14.8841C21.791 14.7079 20.163 15.889 19.3073 15.889C18.435 15.889 17.1175 14.9016 15.6988 14.9308C14.7811 14.9605 13.8868 15.2273 13.1029 15.7054C12.319 16.1835 11.6724 16.8564 11.2259 17.6587C9.29189 21.0071 10.7345 25.9282 12.5871 28.6348C13.514 29.9601 14.5973 31.4406 16.0147 31.3881C17.4018 31.3306 17.9198 30.5036 19.5941 30.5036C21.2529 30.5036 21.7389 31.3881 23.1851 31.3547C24.6735 31.3305 25.6112 30.0235 26.5056 28.6856C27.1716 27.7412 27.6841 26.6975 28.024 25.5931C27.1593 25.2273 26.4214 24.6151 25.9023 23.8329C25.3832 23.0506 25.1058 22.1328 25.1048 21.1939Z" fill="white"/>
<path d="M22.3732 13.1039C23.1847 12.1297 23.5845 10.8775 23.4877 9.61328C22.2479 9.7435 21.1026 10.3361 20.2801 11.2729C19.878 11.7306 19.57 12.263 19.3738 12.8398C19.1775 13.4165 19.0969 14.0263 19.1364 14.6343C19.7566 14.6407 20.3701 14.5063 20.9307 14.2412C21.4914 13.9761 21.9846 13.5872 22.3732 13.1039Z" fill="white"/>
<path d="M42.6382 28.0323H37.9048L36.7681 31.3887H34.7632L39.2466 18.9707H41.3296L45.813 31.3887H43.7739L42.6382 28.0323ZM38.395 26.4834H42.147L40.2974 21.0362H40.2456L38.395 26.4834Z" fill="white"/>
<path d="M55.4956 26.862C55.4956 29.6755 53.9898 31.4831 51.7173 31.4831C51.1417 31.5132 50.5692 31.3806 50.0654 31.1005C49.5616 30.8204 49.1469 30.404 48.8687 29.8991H48.8257V34.3835H46.9673V22.3347H48.7661V23.8405H48.8003C49.0913 23.3381 49.513 22.9239 50.0206 22.642C50.5283 22.3602 51.1028 22.2212 51.6831 22.24C53.9809 22.24 55.4956 24.0564 55.4956 26.862ZM53.5855 26.862C53.5855 25.029 52.6382 23.8239 51.1929 23.8239C49.773 23.8239 48.8179 25.0544 48.8179 26.862C48.8179 28.6862 49.773 29.9079 51.1929 29.9079C52.6382 29.9079 53.5855 28.7116 53.5855 26.862Z" fill="white"/>
<path d="M65.4604 26.862C65.4604 29.6755 63.9546 31.4831 61.6821 31.4831C61.1064 31.5132 60.5339 31.3806 60.0302 31.1005C59.5264 30.8203 59.1116 30.404 58.8335 29.8991H58.7905V34.3835H56.9321V22.3347H58.7309V23.8405H58.7651C59.056 23.3381 59.4778 22.9239 59.9854 22.642C60.493 22.3602 61.0676 22.2212 61.6479 22.24C63.9458 22.24 65.4604 24.0564 65.4604 26.862ZM63.5503 26.862C63.5503 25.029 62.603 23.8239 61.1577 23.8239C59.7378 23.8239 58.7827 25.0544 58.7827 26.862C58.7827 28.6862 59.7378 29.9079 61.1577 29.9079C62.603 29.9079 63.5503 28.7116 63.5503 26.862H63.5503Z" fill="white"/>
<path d="M72.0464 27.9288C72.1841 29.1602 73.3804 29.9688 75.0152 29.9688C76.5816 29.9688 77.7085 29.1602 77.7085 28.0498C77.7085 27.0859 77.0288 26.5088 75.4195 26.1133L73.8101 25.7256C71.5298 25.1748 70.4712 24.1084 70.4712 22.3779C70.4712 20.2354 72.3384 18.7637 74.9898 18.7637C77.6138 18.7637 79.4126 20.2354 79.4732 22.3779H77.5972C77.4849 21.1387 76.4605 20.3906 74.9634 20.3906C73.4663 20.3906 72.4419 21.1475 72.4419 22.249C72.4419 23.127 73.0962 23.6436 74.6968 24.039L76.0649 24.375C78.6128 24.9775 79.6714 26.001 79.6714 27.8174C79.6714 30.1406 77.8208 31.5957 74.8774 31.5957C72.1235 31.5957 70.2642 30.1748 70.144 27.9287L72.0464 27.9288Z" fill="white"/>
<path d="M83.6821 20.1924V22.335H85.4038V23.8066H83.6821V28.7979C83.6821 29.5732 84.0269 29.9346 84.7837 29.9346C84.9881 29.931 85.1921 29.9167 85.395 29.8916V31.3545C85.0547 31.418 84.7089 31.4468 84.3628 31.4404C82.5298 31.4404 81.8149 30.7519 81.8149 28.9961V23.8066H80.4985V22.335H81.8149V20.1924H83.6821Z" fill="white"/>
<path d="M86.4009 26.8623C86.4009 24.0137 88.0787 22.2236 90.6949 22.2236C93.3199 22.2236 94.9898 24.0136 94.9898 26.8623C94.9898 29.7188 93.3287 31.501 90.6949 31.501C88.062 31.501 86.4009 29.7187 86.4009 26.8623ZM93.0962 26.8623C93.0962 24.9082 92.2007 23.7549 90.6949 23.7549C89.189 23.7549 88.2945 24.917 88.2945 26.8623C88.2945 28.8242 89.189 29.9688 90.6949 29.9688C92.2007 29.9688 93.0962 28.8242 93.0962 26.8623H93.0962Z" fill="white"/>
<path d="M96.522 22.3346H98.2944V23.8756H98.3374C98.4574 23.3943 98.7393 22.969 99.1359 22.6711C99.5325 22.3732 100.02 22.2209 100.515 22.2399C100.729 22.2391 100.943 22.2624 101.152 22.3092V24.0475C100.882 23.9649 100.599 23.9269 100.317 23.9352C100.047 23.9242 99.7778 23.9718 99.5279 24.0747C99.2781 24.1776 99.0535 24.3333 98.8695 24.5312C98.6855 24.7291 98.5465 24.9645 98.4621 25.2211C98.3777 25.4778 98.3498 25.7497 98.3804 26.0182V31.3883H96.522L96.522 22.3346Z" fill="white"/>
<path d="M109.72 28.7295C109.47 30.373 107.87 31.501 105.822 31.501C103.188 31.501 101.553 29.7363 101.553 26.9053C101.553 24.0654 103.197 22.2236 105.744 22.2236C108.249 22.2236 109.824 23.9443 109.824 26.6895V27.3262H103.429V27.4385C103.4 27.7717 103.441 28.1073 103.552 28.4232C103.662 28.739 103.838 29.0278 104.068 29.2704C104.299 29.5129 104.578 29.7037 104.888 29.83C105.197 29.9563 105.53 30.0152 105.865 30.0029C106.304 30.0441 106.745 29.9424 107.121 29.7129C107.498 29.4835 107.791 29.1386 107.956 28.7295L109.72 28.7295ZM103.438 26.0273H107.964C107.981 25.7277 107.936 25.4279 107.831 25.1467C107.726 24.8655 107.565 24.609 107.356 24.3932C107.148 24.1774 106.897 24.0071 106.619 23.8929C106.342 23.7787 106.044 23.723 105.744 23.7295C105.441 23.7277 105.141 23.7858 104.861 23.9006C104.581 24.0153 104.326 24.1844 104.112 24.398C103.898 24.6116 103.728 24.8656 103.612 25.1453C103.496 25.4249 103.437 25.7247 103.438 26.0274V26.0273Z" fill="white"/>
<path d="M38.1621 9.62396C38.5517 9.596 38.9427 9.65486 39.3068 9.79629C39.6709 9.93772 39.9991 10.1582 40.2677 10.4418C40.5363 10.7255 40.7386 11.0652 40.86 11.4364C40.9814 11.8077 41.0188 12.2013 40.9697 12.5888C40.9697 14.495 39.9395 15.5908 38.1621 15.5908H36.0068V9.62396H38.1621ZM36.9336 14.747H38.0586C38.337 14.7636 38.6156 14.718 38.8741 14.6133C39.1327 14.5087 39.3646 14.3478 39.5531 14.1422C39.7416 13.9366 39.8819 13.6916 39.9638 13.425C40.0456 13.1584 40.067 12.8769 40.0264 12.601C40.0641 12.3261 40.0405 12.0464 39.9574 11.7817C39.8743 11.517 39.7336 11.274 39.5456 11.0701C39.3575 10.8662 39.1267 10.7064 38.8696 10.6021C38.6125 10.4979 38.3356 10.4518 38.0586 10.4672H36.9336V14.747Z" fill="white"/>
<path d="M42.0166 13.3374C41.9883 13.0414 42.0221 12.7429 42.116 12.4608C42.2098 12.1787 42.3616 11.9194 42.5615 11.6994C42.7614 11.4794 43.0052 11.3037 43.277 11.1834C43.5489 11.0631 43.8428 11.001 44.1401 11.001C44.4374 11.001 44.7314 11.0631 45.0032 11.1834C45.2751 11.3037 45.5188 11.4794 45.7187 11.6994C45.9187 11.9194 46.0704 12.1787 46.1643 12.4608C46.2581 12.7429 46.292 13.0414 46.2636 13.3374C46.2925 13.6336 46.259 13.9326 46.1655 14.2151C46.0719 14.4976 45.9202 14.7574 45.7202 14.9778C45.5202 15.1983 45.2763 15.3744 45.0042 15.4949C44.7321 15.6155 44.4377 15.6777 44.1401 15.6777C43.8425 15.6777 43.5482 15.6155 43.276 15.4949C43.0039 15.3744 42.76 15.1983 42.56 14.9778C42.36 14.7574 42.2084 14.4976 42.1148 14.2151C42.0212 13.9326 41.9877 13.6336 42.0166 13.3374ZM45.3496 13.3374C45.3496 12.3613 44.9111 11.7905 44.1416 11.7905C43.3691 11.7905 42.9346 12.3613 42.9346 13.3374C42.9346 14.3213 43.3691 14.8877 44.1416 14.8877C44.9111 14.8876 45.3496 14.3173 45.3496 13.3374H45.3496Z" fill="white"/>
<path d="M51.9092 15.5908H50.9873L50.0566 12.2744H49.9863L49.0596 15.5908H48.1465L46.9053 11.0879H47.8066L48.6133 14.5239H48.6797L49.6055 11.0879H50.458L51.3838 14.5239H51.4541L52.2568 11.0879H53.1455L51.9092 15.5908Z" fill="white"/>
<path d="M54.1895 11.0874H55.0449V11.8028H55.1113C55.224 11.5459 55.414 11.3305 55.6549 11.1867C55.8957 11.0429 56.1755 10.9778 56.4551 11.0005C56.6742 10.9841 56.8942 11.0171 57.0988 11.0972C57.3034 11.1773 57.4873 11.3024 57.637 11.4632C57.7867 11.6241 57.8983 11.8165 57.9635 12.0264C58.0287 12.2362 58.0458 12.458 58.0137 12.6753V15.5903H57.125V12.8985C57.125 12.1749 56.8106 11.815 56.1533 11.815C56.0046 11.8081 55.8561 11.8334 55.718 11.8892C55.58 11.945 55.4556 12.0301 55.3535 12.1384C55.2514 12.2468 55.1739 12.376 55.1263 12.5171C55.0788 12.6583 55.0624 12.808 55.0781 12.9561V15.5904H54.1895L54.1895 11.0874Z" fill="white"/>
<path d="M59.4297 9.33008H60.3184V15.5908H59.4297V9.33008Z" fill="white"/>
<path d="M61.5537 13.3374C61.5254 13.0415 61.5593 12.7429 61.6532 12.4608C61.747 12.1788 61.8988 11.9194 62.0988 11.6994C62.2987 11.4794 62.5425 11.3037 62.8143 11.1834C63.0862 11.0631 63.3802 11.001 63.6775 11.001C63.9748 11.001 64.2688 11.0631 64.5407 11.1834C64.8125 11.3037 65.0563 11.4794 65.2562 11.6994C65.4562 11.9194 65.608 12.1788 65.7018 12.4608C65.7957 12.7429 65.8296 13.0415 65.8013 13.3374C65.8301 13.6337 65.7966 13.9327 65.703 14.2152C65.6094 14.4977 65.4577 14.7575 65.2577 14.9779C65.0577 15.1983 64.8137 15.3745 64.5416 15.495C64.2695 15.6155 63.9751 15.6778 63.6775 15.6778C63.3799 15.6778 63.0855 15.6155 62.8134 15.495C62.5413 15.3745 62.2974 15.1983 62.0973 14.9779C61.8973 14.7575 61.7456 14.4977 61.652 14.2152C61.5584 13.9327 61.5249 13.6337 61.5537 13.3374ZM64.8867 13.3374C64.8867 12.3614 64.4482 11.7906 63.6787 11.7906C62.9063 11.7906 62.4717 12.3614 62.4717 13.3374C62.4717 14.3213 62.9063 14.8877 63.6787 14.8877C64.4483 14.8877 64.8867 14.3174 64.8867 13.3374H64.8867Z" fill="white"/>
<path d="M66.7368 14.3174C66.7368 13.5068 67.3403 13.0395 68.4116 12.9731L69.6313 12.9028V12.5142C69.6313 12.0386 69.3169 11.77 68.7095 11.77C68.2134 11.77 67.8696 11.9521 67.771 12.2705H66.9106C67.0015 11.4971 67.729 11.001 68.7505 11.001C69.8794 11.001 70.5161 11.563 70.5161 12.5142V15.5908H69.6606V14.958H69.5903C69.4476 15.185 69.2472 15.37 69.0096 15.4943C68.772 15.6185 68.5056 15.6774 68.2378 15.665C68.0488 15.6847 67.8577 15.6645 67.6769 15.6058C67.4962 15.5471 67.3297 15.4512 67.1883 15.3242C67.0469 15.1972 66.9337 15.042 66.8559 14.8686C66.7781 14.6952 66.7376 14.5074 66.7368 14.3174ZM69.6313 13.9326V13.5561L68.5317 13.6265C67.9116 13.668 67.6304 13.8789 67.6304 14.2759C67.6304 14.6811 67.9819 14.917 68.4654 14.917C68.607 14.9313 68.7501 14.917 68.8861 14.8749C69.0221 14.8328 69.1482 14.7638 69.257 14.672C69.3658 14.5801 69.455 14.4673 69.5193 14.3403C69.5836 14.2133 69.6217 14.0747 69.6313 13.9326Z" fill="white"/>
<path d="M71.6841 13.3374C71.6841 11.9146 72.4155 11.0132 73.5532 11.0132C73.8346 11.0002 74.1139 11.0676 74.3585 11.2075C74.603 11.3474 74.8026 11.554 74.9341 11.8032H75.0005V9.33008H75.8892V15.5908H75.0376V14.8794H74.9673C74.8257 15.1269 74.6191 15.3309 74.3698 15.4694C74.1206 15.6079 73.8382 15.6755 73.5532 15.665C72.4077 15.6651 71.6841 14.7637 71.6841 13.3374ZM72.6021 13.3374C72.6021 14.2925 73.0523 14.8672 73.8052 14.8672C74.5542 14.8672 75.0171 14.2842 75.0171 13.3413C75.0171 12.4028 74.5494 11.8115 73.8052 11.8115C73.0571 11.8115 72.6021 12.3901 72.6021 13.3374H72.6021Z" fill="white"/>
<path d="M79.5659 13.3374C79.5376 13.0414 79.5714 12.7429 79.6653 12.4608C79.7591 12.1787 79.9109 11.9194 80.1108 11.6994C80.3108 11.4794 80.5545 11.3037 80.8263 11.1834C81.0982 11.0631 81.3922 11.001 81.6894 11.001C81.9867 11.001 82.2807 11.0631 82.5525 11.1834C82.8244 11.3037 83.0681 11.4794 83.268 11.6994C83.468 11.9194 83.6197 12.1787 83.7136 12.4608C83.8074 12.7429 83.8413 13.0414 83.813 13.3374C83.8418 13.6336 83.8084 13.9326 83.7148 14.2151C83.6212 14.4976 83.4695 14.7574 83.2695 14.9778C83.0695 15.1983 82.8256 15.3744 82.5535 15.4949C82.2814 15.6155 81.9871 15.6777 81.6894 15.6777C81.3918 15.6777 81.0975 15.6155 80.8253 15.4949C80.5532 15.3744 80.3093 15.1983 80.1093 14.9778C79.9093 14.7574 79.7577 14.4976 79.6641 14.2151C79.5705 13.9326 79.537 13.6336 79.5659 13.3374ZM82.8989 13.3374C82.8989 12.3613 82.4604 11.7905 81.6909 11.7905C80.9184 11.7905 80.4839 12.3613 80.4839 13.3374C80.4839 14.3213 80.9185 14.8877 81.6909 14.8877C82.4604 14.8876 82.8989 14.3173 82.8989 13.3374Z" fill="white"/>
<path d="M85.0054 11.0874H85.8608V11.8028H85.9273C86.0399 11.5459 86.2299 11.3305 86.4708 11.1867C86.7117 11.0429 86.9914 10.9778 87.271 11.0005C87.4901 10.9841 87.7101 11.0171 87.9147 11.0972C88.1193 11.1773 88.3033 11.3024 88.4529 11.4632C88.6026 11.6241 88.7142 11.8165 88.7794 12.0264C88.8446 12.2362 88.8617 12.458 88.8296 12.6753V15.5903H87.9409V12.8985C87.9409 12.1749 87.6265 11.815 86.9692 11.815C86.8205 11.8081 86.672 11.8334 86.5339 11.8892C86.3959 11.945 86.2715 12.0301 86.1694 12.1384C86.0673 12.2468 85.9898 12.376 85.9423 12.5171C85.8947 12.6583 85.8783 12.808 85.894 12.9561V15.5904H85.0054V11.0874Z" fill="white"/>
<path d="M93.8511 9.9668V11.1084H94.8267V11.8569H93.8511V14.1724C93.8511 14.644 94.0454 14.8506 94.4878 14.8506C94.601 14.8502 94.7142 14.8434 94.8267 14.8301V15.5703C94.6671 15.5989 94.5054 15.614 94.3433 15.6157C93.355 15.6157 92.9614 15.2681 92.9614 14.3999V11.8569H92.2466V11.1084H92.9614V9.9668H93.8511Z" fill="white"/>
<path d="M96.0405 9.33008H96.9214V11.8115H96.9917C97.1098 11.5522 97.305 11.3356 97.5507 11.1913C97.7964 11.0469 98.0807 10.9818 98.3647 11.0049C98.5827 10.993 98.8005 11.0294 99.0028 11.1115C99.2051 11.1935 99.3868 11.3192 99.5349 11.4795C99.683 11.6398 99.7939 11.8309 99.8597 12.039C99.9255 12.2472 99.9445 12.4673 99.9155 12.6836V15.5908H99.0259V12.9028C99.0259 12.1836 98.6909 11.8193 98.063 11.8193C97.9103 11.8068 97.7567 11.8278 97.6129 11.8809C97.4691 11.9339 97.3387 12.0177 97.2307 12.1265C97.1227 12.2352 97.0397 12.3662 96.9877 12.5104C96.9356 12.6545 96.9157 12.8083 96.9292 12.9609V15.5908H96.0406L96.0405 9.33008Z" fill="white"/>
<path d="M105.097 14.3751C104.976 14.7866 104.715 15.1426 104.358 15.3807C104.001 15.6189 103.572 15.724 103.146 15.6778C102.849 15.6856 102.554 15.6288 102.282 15.5113C102.009 15.3938 101.766 15.2183 101.568 14.9972C101.37 14.7761 101.223 14.5145 101.136 14.2307C101.049 13.9469 101.025 13.6476 101.066 13.3536C101.026 13.0587 101.051 12.7588 101.137 12.4741C101.224 12.1894 101.37 11.9267 101.567 11.7036C101.764 11.4805 102.007 11.3023 102.278 11.1811C102.55 11.0599 102.845 10.9985 103.142 11.0011C104.395 11.0011 105.151 11.8571 105.151 13.2711V13.5811H101.971V13.6309C101.957 13.7962 101.978 13.9625 102.032 14.1193C102.086 14.276 102.173 14.4197 102.285 14.5412C102.398 14.6626 102.535 14.7592 102.688 14.8246C102.84 14.89 103.005 14.9228 103.17 14.9209C103.383 14.9465 103.598 14.9082 103.789 14.811C103.98 14.7138 104.137 14.562 104.242 14.375L105.097 14.3751ZM101.971 12.9239H104.246C104.257 12.7728 104.236 12.621 104.185 12.4783C104.134 12.3355 104.054 12.2051 103.95 12.0952C103.845 11.9853 103.719 11.8985 103.579 11.8404C103.439 11.7822 103.289 11.7539 103.137 11.7574C102.983 11.7555 102.831 11.7843 102.689 11.8423C102.546 11.9002 102.417 11.9861 102.308 12.0948C102.2 12.2035 102.114 12.3329 102.056 12.4753C101.998 12.6177 101.969 12.7702 101.971 12.9239H101.971Z" fill="white"/>
</svg>
