<svg width="20" height="20" viewBox="0 0 20 20" fill="none" xmlns="http://www.w3.org/2000/svg">
<path d="M9.99984 1.66602C5.3915 1.66602 1.6665 5.39102 1.6665 9.99935C1.6665 14.6077 5.3915 18.3327 9.99984 18.3327C14.6082 18.3327 18.3332 14.6077 18.3332 9.99935C18.3332 5.39102 14.6082 1.66602 9.99984 1.66602ZM13.5832 13.5827C13.5061 13.6599 13.4145 13.7212 13.3137 13.763C13.2129 13.8049 13.1048 13.8264 12.9957 13.8264C12.8865 13.8264 12.7785 13.8049 12.6777 13.763C12.5768 13.7212 12.4853 13.6599 12.4082 13.5827L9.99984 11.1743L7.5915 13.5827C7.43569 13.7385 7.22436 13.826 7.004 13.826C6.78365 13.826 6.57232 13.7385 6.4165 13.5827C6.26069 13.4269 6.17315 13.2155 6.17315 12.9952C6.17315 12.8861 6.19464 12.778 6.2364 12.6772C6.27815 12.5764 6.33935 12.4848 6.4165 12.4077L8.82484 9.99935L6.4165 7.59102C6.26069 7.4352 6.17315 7.22387 6.17315 7.00352C6.17315 6.78316 6.26069 6.57183 6.4165 6.41602C6.57232 6.2602 6.78365 6.17267 7.004 6.17267C7.22436 6.17267 7.43569 6.2602 7.5915 6.41602L9.99984 8.82435L12.4082 6.41602C12.4853 6.33886 12.5769 6.27766 12.6777 6.23591C12.7785 6.19416 12.8866 6.17267 12.9957 6.17267C13.1048 6.17267 13.2128 6.19416 13.3136 6.23591C13.4144 6.27766 13.506 6.33886 13.5832 6.41602C13.6603 6.49317 13.7215 6.58476 13.7633 6.68556C13.805 6.78637 13.8265 6.89441 13.8265 7.00352C13.8265 7.11262 13.805 7.22066 13.7633 7.32147C13.7215 7.42227 13.6603 7.51386 13.5832 7.59102L11.1748 9.99935L13.5832 12.4077C13.8998 12.7243 13.8998 13.2577 13.5832 13.5827Z" fill="#FA6666"/>
</svg>
