<svg width="17" height="17" viewBox="0 0 17 17" fill="none" xmlns="http://www.w3.org/2000/svg">
<path d="M9.16658 12.4668H2.49992C2.32311 12.4668 2.15354 12.3966 2.02851 12.2715C1.90349 12.1465 1.83325 11.9769 1.83325 11.8001V3.13346C1.83325 2.95665 1.90349 2.78708 2.02851 2.66206C2.15354 2.53703 2.32311 2.4668 2.49992 2.4668H14.4999C14.6767 2.4668 14.8463 2.53703 14.9713 2.66206C15.0963 2.78708 15.1666 2.95665 15.1666 3.13346V11.8001C15.1666 11.9769 15.0963 12.1465 14.9713 12.2715C14.8463 12.3966 14.6767 12.4668 14.4999 12.4668H11.8333M4.49992 5.13346H12.4999M4.49992 7.4668H6.49992M4.49992 9.80013H5.83325" stroke="currentColor" stroke-linecap="round" stroke-linejoin="round"/>
<path d="M10.5 11.4668C11.0304 11.4668 11.5391 11.2561 11.9142 10.881C12.2893 10.5059 12.5 9.99723 12.5 9.4668C12.5 8.93636 12.2893 8.42766 11.9142 8.05258C11.5391 7.67751 11.0304 7.4668 10.5 7.4668C9.96957 7.4668 9.46086 7.67751 9.08579 8.05258C8.71071 8.42766 8.5 8.93636 8.5 9.4668C8.5 9.99723 8.71071 10.5059 9.08579 10.881C9.46086 11.2561 9.96957 11.4668 10.5 11.4668Z" stroke="currentColor"/>
<path d="M10.5001 13.7997L11.8334 14.4664V10.957C11.8334 10.957 11.4534 11.4664 10.5001 11.4664C9.54675 11.4664 9.16675 10.9664 9.16675 10.9664V14.4664L10.5001 13.7997Z" stroke="currentColor" stroke-linecap="round" stroke-linejoin="round"/>
</svg>
