<svg width="20" height="20" viewBox="0 0 20 20" fill="none" xmlns="http://www.w3.org/2000/svg">
<path d="M4 3C3.46957 3 2.96086 3.21071 2.58579 3.58579C2.21071 3.96086 2 4.46957 2 5V8.671C2.285 8.319 2.622 8.011 3 7.758V5C3 4.73478 3.10536 4.48043 3.29289 4.29289C3.48043 4.10536 3.73478 4 4 4H16C16.2652 4 16.5196 4.10536 16.7071 4.29289C16.8946 4.48043 17 4.73478 17 5V13C17 13.2652 16.8946 13.5196 16.7071 13.7071C16.5196 13.8946 16.2652 14 16 14H9.242C9.16585 14.1129 9.08511 14.2227 9 14.329V15H16C16.5304 15 17.0391 14.7893 17.4142 14.4142C17.7893 14.0391 18 13.5304 18 13V5C18 4.46957 17.7893 3.96086 17.4142 3.58579C17.0391 3.21071 16.5304 3 16 3H4ZM5 6.5C5 6.36739 5.05268 6.24022 5.14645 6.14645C5.24021 6.05268 5.36739 6 5.5 6H14.5C14.6326 6 14.7598 6.05268 14.8536 6.14645C14.9473 6.24022 15 6.36739 15 6.5C15 6.63261 14.9473 6.75979 14.8536 6.85355C14.7598 6.94732 14.6326 7 14.5 7H5.5C5.36739 7 5.24021 6.94732 5.14645 6.85355C5.05268 6.75979 5 6.63261 5 6.5ZM5.5 15C4.57174 15 3.6815 14.6313 3.02513 13.9749C2.36875 13.3185 2 12.4283 2 11.5C2 10.5717 2.36875 9.6815 3.02513 9.02513C3.6815 8.36875 4.57174 8 5.5 8C6.42826 8 7.3185 8.36875 7.97487 9.02513C8.63125 9.6815 9 10.5717 9 11.5C9 12.4283 8.63125 13.3185 7.97487 13.9749C7.3185 14.6313 6.42826 15 5.5 15ZM3 15.242C3.74005 15.7363 4.61005 16.0001 5.5 16C6.425 16 7.285 15.72 8 15.242V18C8 18.0929 7.97414 18.1839 7.92533 18.2629C7.87651 18.3419 7.80666 18.4057 7.72361 18.4472C7.64055 18.4887 7.54758 18.5063 7.4551 18.498C7.36262 18.4896 7.27428 18.4557 7.2 18.4L5.8 17.35C5.71345 17.2851 5.60819 17.25 5.5 17.25C5.39181 17.25 5.28655 17.2851 5.2 17.35L3.8 18.4C3.72572 18.4557 3.63738 18.4896 3.5449 18.498C3.45242 18.5063 3.35945 18.4887 3.27639 18.4472C3.19334 18.4057 3.12349 18.3419 3.07467 18.2629C3.02586 18.1839 3 18.0929 3 18V15.242ZM10.5 10C10.3674 10 10.2402 10.0527 10.1464 10.1464C10.0527 10.2402 10 10.3674 10 10.5C10 10.6326 10.0527 10.7598 10.1464 10.8536C10.2402 10.9473 10.3674 11 10.5 11H14.5C14.6326 11 14.7598 10.9473 14.8536 10.8536C14.9473 10.7598 15 10.6326 15 10.5C15 10.3674 14.9473 10.2402 14.8536 10.1464C14.7598 10.0527 14.6326 10 14.5 10H10.5Z" fill="#0043BE"/>
</svg>
