<svg width="20" height="20" viewBox="0 0 20 20" fill="none" xmlns="http://www.w3.org/2000/svg">
<path d="M7.91667 7.49992H7.925M12.0833 7.49992H12.0917M15 3.33325C15.663 3.33325 16.2989 3.59664 16.7678 4.06549C17.2366 4.53433 17.5 5.17021 17.5 5.83325V12.4999C17.5 13.163 17.2366 13.7988 16.7678 14.2677C16.2989 14.7365 15.663 14.9999 15 14.9999H10.8333L6.66667 17.4999V14.9999H5C4.33696 14.9999 3.70107 14.7365 3.23223 14.2677C2.76339 13.7988 2.5 13.163 2.5 12.4999V5.83325C2.5 5.17021 2.76339 4.53433 3.23223 4.06549C3.70107 3.59664 4.33696 3.33325 5 3.33325H15Z" stroke="#0043BE" stroke-width="1.66667" stroke-linecap="round" stroke-linejoin="round"/>
<path d="M7.91699 10.833C8.18856 11.1102 8.5127 11.3304 8.87043 11.4807C9.22816 11.631 9.61229 11.7084 10.0003 11.7084C10.3884 11.7084 10.7725 11.631 11.1302 11.4807C11.488 11.3304 11.8121 11.1102 12.0837 10.833" stroke="#0043BE" stroke-width="1.66667" stroke-linecap="round" stroke-linejoin="round"/>
</svg>
