<svg width="20" height="20" viewBox="0 0 20 20" fill="none" xmlns="http://www.w3.org/2000/svg">
<path d="M6.19041 9.9987H10.9523M6.19041 11.9035H12.8571M6.19041 13.8082H9.04755M15.7142 14.7606V8.09394L10.9523 3.33203H6.19041C5.68523 3.33203 5.20075 3.53271 4.84354 3.88992C4.48632 4.24714 4.28564 4.73162 4.28564 5.23679V14.7606C4.28564 15.2658 4.48632 15.7503 4.84354 16.1075C5.20075 16.4647 5.68523 16.6654 6.19041 16.6654H13.8095C14.3146 16.6654 14.7991 16.4647 15.1563 16.1075C15.5135 15.7503 15.7142 15.2658 15.7142 14.7606Z" stroke="#656565" stroke-width="0.952381" stroke-linecap="round" stroke-linejoin="round"/>
<path d="M10.9521 3.33203V6.18917C10.9521 6.69435 11.1528 7.17883 11.51 7.53604C11.8673 7.89326 12.3517 8.09394 12.8569 8.09394H15.7141" stroke="#656565" stroke-width="0.952381" stroke-linecap="round" stroke-linejoin="round"/>
</svg>
