<svg width="20" height="20" viewBox="0 0 20 20" fill="none" xmlns="http://www.w3.org/2000/svg">
<path d="M18.3337 18.3334L15.0003 15.0001H6.66699C6.20866 15.0001 5.81644 14.837 5.49033 14.5109C5.16421 14.1848 5.00088 13.7923 5.00033 13.3334V12.5001H14.167C14.6253 12.5001 15.0178 12.337 15.3445 12.0109C15.6712 11.6848 15.8342 11.2923 15.8337 10.8334V5.00008H16.667C17.1253 5.00008 17.5178 5.16341 17.8445 5.49008C18.1712 5.81675 18.3342 6.20897 18.3337 6.66675V18.3334ZM3.33366 10.1459L4.31283 9.16675H12.5003V3.33341H3.33366V10.1459ZM1.66699 14.1667V3.33341C1.66699 2.87508 1.83033 2.48286 2.15699 2.15675C2.48366 1.83064 2.87588 1.6673 3.33366 1.66675H12.5003C12.9587 1.66675 13.3512 1.83008 13.6778 2.15675C14.0045 2.48341 14.1675 2.87564 14.167 3.33341V9.16675C14.167 9.62508 14.0039 10.0176 13.6778 10.3442C13.3517 10.6709 12.9592 10.834 12.5003 10.8334H5.00033L1.66699 14.1667Z" fill="#0043BE"/>
</svg>
