<svg width="20" height="20" viewBox="0 0 20 20" fill="none" xmlns="http://www.w3.org/2000/svg">
<path fill-rule="evenodd" clip-rule="evenodd" d="M4.74616 16.4688C6.23018 17.6776 8.08634 18.3363 10.0003 18.3334C14.6028 18.3334 18.3337 14.6026 18.3337 10.0001C18.3337 5.39758 14.6028 1.66675 10.0003 1.66675C5.39783 1.66675 1.667 5.39758 1.667 10.0001C1.66572 11.1457 1.90128 12.2793 2.35888 13.3296C2.81649 14.3799 3.48626 15.3243 4.32616 16.1034L4.45116 16.2817C4.49995 16.351 4.5687 16.4038 4.64825 16.433L4.74616 16.4688ZM17.5003 10.0559C17.437 10.0193 17.3651 10.0001 17.292 10.0001H14.0278C13.7688 9.99997 13.5173 10.0873 13.3141 10.248C13.1107 10.4086 12.9666 10.6323 12.9045 10.8838V10.8851L12.5341 12.3909C12.4923 12.5625 12.4894 12.7412 12.5257 12.914C12.5619 13.0869 12.6364 13.2494 12.7437 13.3897C12.851 13.5301 12.9893 13.6439 13.1478 13.7223C13.3062 13.8006 13.4806 13.8413 13.6574 13.8413H13.8403L14.252 16.1792C13.0437 17.0126 11.5795 17.5001 10.0003 17.5001C8.49889 17.5028 7.03158 17.0524 5.79033 16.2076L6.42783 12.6305H6.84741C7.07361 12.6308 7.29686 12.5791 7.49998 12.4796C7.7031 12.38 7.88069 12.2353 8.01908 12.0563C8.15794 11.8777 8.25446 11.6699 8.30137 11.4485C8.34828 11.2271 8.34436 10.998 8.28991 10.7784L7.75533 8.62716L7.75491 8.62591C7.67409 8.30418 7.48833 8.01858 7.227 7.81425C6.96595 7.61001 6.64386 7.49938 6.31241 7.50008H2.927C3.95658 4.58716 6.73491 2.50008 10.0003 2.50008C10.5603 2.50008 11.1062 2.56133 11.6316 2.678L11.4512 3.26841H11.372C11.2271 3.26853 11.084 3.30162 10.9538 3.36518C10.8235 3.42874 10.7094 3.52111 10.6201 3.63529C10.5308 3.74946 10.4687 3.88246 10.4384 4.0242C10.4081 4.16594 10.4105 4.31272 10.4453 4.45341C10.452 4.48036 10.4613 4.50633 10.4732 4.53133L11.5607 6.82508C11.6206 7.02074 11.7418 7.19197 11.9064 7.31351C12.071 7.43505 12.2703 7.50046 12.4749 7.50008H17.0737C17.3568 8.30315 17.5011 9.14857 17.5003 10.0001V10.0559Z" fill="#0043BE"/>
</svg>
