<svg width="48" height="48" viewBox="0 0 48 48" fill="none" xmlns="http://www.w3.org/2000/svg">
<rect width="48" height="48" rx="24" fill="#D9E3F8"/>
<path d="M13.8271 22.5321C13.8271 20.2075 14.7506 17.9781 16.3944 16.3343C18.0381 14.6905 20.2675 13.7671 22.5921 13.7671C24.9168 13.7671 27.1462 14.6905 28.7899 16.3343C30.4337 17.9781 31.3571 20.2075 31.3571 22.5321H13.8271ZM13.8271 22.5321C13.8272 24.1832 14.2935 25.8008 15.1722 27.1987C16.0509 28.5966 17.3063 29.7181 18.7941 30.4341" stroke="#0043BE" stroke-width="1.5"/>
<path d="M21.4968 13.7671L18.7568 22.5321L19.7268 25.6321M23.4138 13.7671L26.4268 22.5321M27.8678 24.9071L21.4778 27.6761V28.1171L27.8678 30.8871L34.2588 28.1171V27.6761L27.8678 24.9071Z" stroke="#0043BE" stroke-width="1.5"/>
<path d="M24.0996 29.625L24.1056 32.513L27.8686 34.277L31.6366 32.513V29.624" stroke="#0043BE" stroke-width="1.5"/>
<path d="M21.4785 32.1771V27.9331" stroke="#0043BE" stroke-width="1.5" stroke-linejoin="round"/>
</svg>
