<svg width="253" height="73" viewBox="0 0 253 73" fill="none" xmlns="http://www.w3.org/2000/svg">
<path d="M243.63 73H9.37037C4.21901 73 0 68.8915 0 63.875V9.12501C0 4.10854 4.21901 6.22009e-06 9.37037 6.22009e-06H243.63C248.781 6.22009e-06 253 4.10854 253 9.12501V63.875C253 68.8915 248.781 73 243.63 73Z" fill="black"/>
<path d="M243.63 1.46228C247.968 1.46228 251.498 4.90013 251.498 9.12501V63.875C251.498 68.0999 247.968 71.5377 243.63 71.5377H9.37037C5.03189 71.5377 1.5016 68.0999 1.5016 63.875V9.12501C1.5016 4.90013 5.03189 1.46228 9.37037 1.46228H243.63ZM243.63 6.22009e-06H9.37037C4.21901 6.22009e-06 0 4.10854 0 9.12501V63.875C0 68.8915 4.21901 73 9.37037 73H243.63C248.781 73 253 68.8915 253 63.875V9.12501C253 4.10854 248.781 6.22009e-06 243.63 6.22009e-06Z" fill="#A6A6A6"/>
<path d="M88.8639 18.6948C88.8639 20.2187 88.3954 21.4392 87.4724 22.3494C86.4112 23.4284 85.0291 23.9714 83.3354 23.9714C81.7167 23.9714 80.3346 23.4193 79.2007 22.3312C78.0646 21.227 77.4977 19.872 77.4977 18.25C77.4977 16.628 78.0646 15.273 79.2007 14.178C80.3346 13.0807 81.7167 12.5286 83.3354 12.5286C84.1413 12.5286 84.9096 12.6906 85.6429 12.9917C86.3738 13.2951 86.9688 13.7058 87.3998 14.2122L86.4206 15.1749C85.6686 14.3103 84.6449 13.8837 83.3354 13.8837C82.1548 13.8837 81.131 14.2852 80.2619 15.095C79.4022 15.9072 78.9712 16.9588 78.9712 18.25C78.9712 19.5412 79.4022 20.602 80.2619 21.4141C81.131 22.2148 82.1548 22.6254 83.3354 22.6254C84.5887 22.6254 85.6429 22.2148 86.4745 21.405C87.0227 20.8689 87.3342 20.1297 87.4162 19.1853H83.3354V17.8667H88.7796C88.8452 18.1519 88.8639 18.4279 88.8639 18.6948V18.6948Z" fill="white" stroke="white" stroke-width="0.16" stroke-miterlimit="10"/>
<path d="M97.501 14.1232H92.3871V17.5907H96.9974V18.9093H92.3871V22.3768H97.501V23.7204H90.9394V12.7795H97.501V14.1232Z" fill="white" stroke="white" stroke-width="0.16" stroke-miterlimit="10"/>
<path d="M103.596 23.7204H102.149V14.1232H99.012V12.7795H106.735V14.1232H103.596V23.7204V23.7204Z" fill="white" stroke="white" stroke-width="0.16" stroke-miterlimit="10"/>
<path d="M112.325 23.7204V12.7795H113.77V23.7204H112.325Z" fill="white" stroke="white" stroke-width="0.16" stroke-miterlimit="10"/>
<path d="M120.177 23.7204H118.741V14.1232H115.593V12.7795H123.326V14.1232H120.177V23.7204Z" fill="white" stroke="white" stroke-width="0.16" stroke-miterlimit="10"/>
<path d="M137.948 22.3129C136.84 23.4193 135.467 23.9714 133.83 23.9714C132.183 23.9714 130.81 23.4193 129.702 22.3129C128.597 21.2088 128.046 19.8537 128.046 18.25C128.046 16.6463 128.597 15.2912 129.702 14.1871C130.81 13.0807 132.183 12.5286 133.83 12.5286C135.458 12.5286 136.831 13.0807 137.939 14.1962C139.054 15.3095 139.604 16.6554 139.604 18.25C139.604 19.8537 139.054 21.2088 137.948 22.3129ZM130.773 21.3958C131.607 22.2148 132.621 22.6254 133.83 22.6254C135.029 22.6254 136.053 22.2148 136.878 21.3958C137.709 20.5769 138.131 19.5252 138.131 18.25C138.131 16.9748 137.709 15.9231 136.878 15.1042C136.053 14.2852 135.029 13.8746 133.83 13.8746C132.621 13.8746 131.607 14.2852 130.773 15.1042C129.941 15.9231 129.52 16.9748 129.52 18.25C129.52 19.5252 129.941 20.5769 130.773 21.3958V21.3958Z" fill="white" stroke="white" stroke-width="0.16" stroke-miterlimit="10"/>
<path d="M141.635 23.7204V12.7795H143.392L148.855 21.2886H148.919L148.855 19.1853V12.7795H150.301V23.7204H148.792L143.071 14.7916H143.008L143.071 16.904V23.7204H141.635V23.7204Z" fill="white" stroke="white" stroke-width="0.16" stroke-miterlimit="10"/>
<path d="M127.69 39.6984C123.288 39.6984 119.692 42.9606 119.692 47.4615C119.692 51.9259 123.288 55.2223 127.69 55.2223C132.101 55.2223 135.697 51.9259 135.697 47.4615C135.697 42.9606 132.101 39.6984 127.69 39.6984ZM127.69 52.1654C125.275 52.1654 123.197 50.2241 123.197 47.4615C123.197 44.6624 125.275 42.7552 127.69 42.7552C130.105 42.7552 132.192 44.6624 132.192 47.4615C132.192 50.2241 130.105 52.1654 127.69 52.1654V52.1654ZM110.24 39.6984C105.829 39.6984 102.242 42.9606 102.242 47.4615C102.242 51.9259 105.829 55.2223 110.24 55.2223C114.649 55.2223 118.238 51.9259 118.238 47.4615C118.238 42.9606 114.649 39.6984 110.24 39.6984ZM110.24 52.1654C107.822 52.1654 105.738 50.2241 105.738 47.4615C105.738 44.6624 107.822 42.7552 110.24 42.7552C112.655 42.7552 114.733 44.6624 114.733 47.4615C114.733 50.2241 112.655 52.1654 110.24 52.1654ZM89.4753 42.0777V45.3764H97.5643C97.3277 47.2196 96.6952 48.5747 95.7253 49.5191C94.5447 50.6598 92.7057 51.9259 89.4753 51.9259C84.4973 51.9259 80.5992 48.0135 80.5992 43.1659C80.5992 38.3182 84.4973 34.4059 89.4753 34.4059C92.1669 34.4059 94.1254 35.4302 95.5707 36.7578L97.9578 34.4332C95.9362 32.5535 93.2469 31.1095 89.4753 31.1095C82.649 31.1095 76.912 36.5183 76.912 43.1659C76.912 49.8134 82.649 55.2223 89.4753 55.2223C93.1649 55.2223 95.9362 54.0451 98.1148 51.8369C100.347 49.6629 101.043 46.606 101.043 44.1377C101.043 43.3712 100.977 42.6663 100.86 42.0777H89.4753ZM174.385 44.635C173.727 42.899 171.696 39.6984 167.559 39.6984C163.459 39.6984 160.046 42.8442 160.046 47.4615C160.046 51.8095 163.424 55.2223 167.952 55.2223C171.614 55.2223 173.727 53.0482 174.596 51.7821L171.878 50.0187C170.972 51.3099 169.737 52.1654 167.952 52.1654C166.179 52.1654 164.907 51.3738 164.092 49.8134L174.753 45.5178L174.385 44.635V44.635ZM163.515 47.2196C163.424 44.2266 165.902 42.6936 167.678 42.6936C169.07 42.6936 170.25 43.3712 170.644 44.3407L163.515 47.2196V47.2196ZM154.85 54.75H158.355V31.9376H154.85V54.75ZM149.111 41.4276H148.994C148.206 40.5196 146.705 39.6984 144.803 39.6984C140.811 39.6984 137.161 43.1111 137.161 47.4866C137.161 51.8369 140.811 55.2223 144.803 55.2223C146.705 55.2223 148.206 54.3942 148.994 53.4589H149.111V54.5721C149.111 57.54 147.483 59.1346 144.857 59.1346C142.715 59.1346 141.387 57.629 140.839 56.3629L137.791 57.6016C138.67 59.6593 140.996 62.1915 144.857 62.1915C148.965 62.1915 152.432 59.8372 152.432 54.109V40.1706H149.111V41.4276V41.4276ZM145.102 52.1654C142.687 52.1654 140.666 50.1967 140.666 47.4866C140.666 44.7513 142.687 42.7552 145.102 42.7552C147.483 42.7552 149.359 44.7513 149.359 47.4866C149.359 50.1967 147.483 52.1654 145.102 52.1654V52.1654ZM190.792 31.9376H182.411V54.75H185.906V46.1064H190.792C194.674 46.1064 198.481 43.3712 198.481 39.0208C198.481 34.6728 194.665 31.9376 190.792 31.9376V31.9376ZM190.884 42.9332H185.906V35.1108H190.884C193.493 35.1108 194.983 37.2209 194.983 39.0208C194.983 40.7865 193.493 42.9332 190.884 42.9332ZM212.489 39.655C209.964 39.655 207.338 40.7409 206.258 43.1476L209.36 44.4137C210.027 43.1476 211.255 42.737 212.553 42.737C214.366 42.737 216.205 43.7978 216.233 45.6707V45.9102C215.6 45.5543 214.246 45.0274 212.581 45.0274C209.24 45.0274 205.837 46.8181 205.837 50.1602C205.837 53.2171 208.573 55.1858 211.649 55.1858C214 55.1858 215.298 54.1524 216.113 52.9501H216.233V54.7135H219.609V45.9627C219.609 41.918 216.507 39.655 212.489 39.655ZM212.068 52.1563C210.925 52.1563 209.332 51.6042 209.332 50.2241C209.332 48.4584 211.318 47.7808 213.038 47.7808C214.577 47.7808 215.298 48.1116 216.233 48.5473C215.959 50.6598 214.092 52.1563 212.068 52.1563V52.1563ZM231.907 40.1546L227.89 50.0438H227.77L223.617 40.1546H219.848L226.088 53.9744L222.527 61.6645H226.18L235.796 40.1546H231.907V40.1546ZM200.402 54.75H203.906V31.9376H200.402V54.75Z" fill="white"/>
<path d="M19.556 13.7582C19.0055 14.3194 18.6869 15.1931 18.6869 16.3246V56.6845C18.6869 57.816 19.0055 58.6897 19.556 59.2509L19.6919 59.3741L42.9163 36.7669V36.2331L19.6919 13.6259L19.556 13.7582Z" fill="url(#paint0_linear_2_33)"/>
<path d="M50.6492 44.3064L42.9163 36.7669V36.2331L50.6586 28.6935L50.8319 28.7916L60.0008 33.872C62.6175 35.3137 62.6175 37.6862 60.0008 39.1371L50.8319 44.2083L50.6492 44.3064V44.3064Z" fill="url(#paint1_linear_2_33)"/>
<path d="M50.8319 44.2083L42.9163 36.5L19.5559 59.2509C20.425 60.1406 21.8423 60.2478 23.454 59.3581L50.8319 44.2083" fill="url(#paint2_linear_2_33)"/>
<path d="M50.8319 28.7917L23.454 13.6419C21.8423 12.7613 20.425 12.8685 19.5559 13.7582L42.9163 36.5L50.8319 28.7917Z" fill="url(#paint3_linear_2_33)"/>
<defs>
<linearGradient id="paint0_linear_2_33" x1="40.8543" y1="57.1048" x2="10.2372" y2="25.6644" gradientUnits="userSpaceOnUse">
<stop stop-color="#00A0FF"/>
<stop offset="0.0066" stop-color="#00A1FF"/>
<stop offset="0.2601" stop-color="#00BEFF"/>
<stop offset="0.5122" stop-color="#00D2FF"/>
<stop offset="0.7604" stop-color="#00DFFF"/>
<stop offset="1" stop-color="#00E3FF"/>
</linearGradient>
<linearGradient id="paint1_linear_2_33" x1="63.4082" y1="36.4974" x2="18.0614" y2="36.4974" gradientUnits="userSpaceOnUse">
<stop stop-color="#FFE000"/>
<stop offset="0.4087" stop-color="#FFBD00"/>
<stop offset="0.7754" stop-color="#FFA500"/>
<stop offset="1" stop-color="#FF9C00"/>
</linearGradient>
<linearGradient id="paint2_linear_2_33" x1="46.5276" y1="32.3096" x2="5.00833" y2="-10.3261" gradientUnits="userSpaceOnUse">
<stop stop-color="#FF3A44"/>
<stop offset="1" stop-color="#C31162"/>
</linearGradient>
<linearGradient id="paint3_linear_2_33" x1="13.6757" y1="72.6784" x2="32.2159" y2="53.6398" gradientUnits="userSpaceOnUse">
<stop stop-color="#32A071"/>
<stop offset="0.0685" stop-color="#2DA771"/>
<stop offset="0.4762" stop-color="#15CF74"/>
<stop offset="0.8009" stop-color="#06E775"/>
<stop offset="1" stop-color="#00F076"/>
</linearGradient>
</defs>
</svg>
