<svg width="24" height="25" viewBox="0 0 24 25" fill="none" xmlns="http://www.w3.org/2000/svg">
<path d="M4.20013 22.0103C6.91513 20.1353 8.73013 17.2703 10.0651 13.7603C11.4151 10.2653 12.8551 7.26526 12.2251 3.81526C12.1351 3.27526 11.3701 2.72026 10.9801 2.76526C9.45013 2.85526 9.55513 4.58026 9.70513 5.61526C10.0651 8.18026 12.0451 11.1653 13.9651 13.9553C15.8701 16.7603 17.4451 17.1953 19.6351 17.3453C20.3851 17.3903 21.5101 17.1353 21.6901 16.4753C22.8451 12.2753 8.16013 15.6653 3.27013 19.5953C2.67013 20.0903 1.98013 21.0953 2.37013 21.7853C2.67013 22.3253 3.67513 22.3853 4.21513 22.0103H4.20013Z" stroke="#ED8796" stroke-width="1.125" stroke-linecap="round" stroke-linejoin="round"/>
</svg>
