<svg width="17" height="18" viewBox="0 0 17 18" fill="none" xmlns="http://www.w3.org/2000/svg">
<path d="M4.35721 2.18164C3.78889 2.18164 3.24385 2.40741 2.84198 2.80927C2.44012 3.21113 2.21436 3.75618 2.21436 4.3245V12.6102C2.21436 13.1785 2.44012 13.7236 2.84198 14.1254C3.24385 14.5273 3.78889 14.7531 4.35721 14.7531H12.6429C13.2112 14.7531 13.7563 14.5273 14.1582 14.1254C14.56 13.7236 14.7858 13.1785 14.7858 12.6102V4.3245C14.7858 3.75618 14.56 3.21113 14.1582 2.80927C13.7563 2.40741 13.2112 2.18164 12.6429 2.18164H4.35721ZM3.0715 4.3245C3.0715 3.98351 3.20696 3.65648 3.44808 3.41536C3.68919 3.17424 4.01622 3.03878 4.35721 3.03878H12.6429C12.9839 3.03878 13.3109 3.17424 13.5521 3.41536C13.7932 3.65648 13.9286 3.98351 13.9286 4.3245V12.6102C13.9286 12.9512 13.7932 13.2782 13.5521 13.5194C13.3109 13.7605 12.9839 13.8959 12.6429 13.8959H4.35721C4.01622 13.8959 3.68919 13.7605 3.44808 13.5194C3.20696 13.2782 3.0715 12.9512 3.0715 12.6102V4.3245ZM3.92864 5.61021C3.92864 5.30711 4.04905 5.01642 4.26338 4.80209C4.4777 4.58776 4.76839 4.46736 5.0715 4.46736H11.9286C12.2317 4.46736 12.5224 4.58776 12.7368 4.80209C12.9511 5.01642 13.0715 5.30711 13.0715 5.61021V6.75307C13.0715 7.05617 12.9511 7.34686 12.7368 7.56119C12.5224 7.77552 12.2317 7.89593 11.9286 7.89593H5.0715C4.76839 7.89593 4.4777 7.77552 4.26338 7.56119C4.04905 7.34686 3.92864 7.05617 3.92864 6.75307V5.61021ZM5.0715 5.3245C4.99572 5.3245 4.92305 5.3546 4.86947 5.40818C4.81589 5.46176 4.78578 5.53444 4.78578 5.61021V6.75307C4.78578 6.82885 4.81589 6.90152 4.86947 6.9551C4.92305 7.00868 4.99572 7.03878 5.0715 7.03878H11.9286C12.0044 7.03878 12.0771 7.00868 12.1307 6.9551C12.1843 6.90152 12.2144 6.82885 12.2144 6.75307V5.61021C12.2144 5.53444 12.1843 5.46176 12.1307 5.40818C12.0771 5.3546 12.0044 5.3245 11.9286 5.3245H5.0715ZM3.92864 9.46736C3.92864 9.35369 3.97379 9.24468 4.05417 9.16431C4.13454 9.08394 4.24355 9.03878 4.35721 9.03878H7.50007C7.61373 9.03878 7.72274 9.08394 7.80312 9.16431C7.88349 9.24468 7.92864 9.35369 7.92864 9.46736C7.92864 9.58102 7.88349 9.69003 7.80312 9.7704C7.72274 9.85077 7.61373 9.89593 7.50007 9.89593H4.35721C4.24355 9.89593 4.13454 9.85077 4.05417 9.7704C3.97379 9.69003 3.92864 9.58102 3.92864 9.46736ZM4.35721 11.1816C4.24355 11.1816 4.13454 11.2268 4.05417 11.3072C3.97379 11.3875 3.92864 11.4965 3.92864 11.6102C3.92864 11.7239 3.97379 11.8329 4.05417 11.9133C4.13454 11.9936 4.24355 12.0388 4.35721 12.0388H7.50007C7.61373 12.0388 7.72274 11.9936 7.80312 11.9133C7.88349 11.8329 7.92864 11.7239 7.92864 11.6102C7.92864 11.4965 7.88349 11.3875 7.80312 11.3072C7.72274 11.2268 7.61373 11.1816 7.50007 11.1816H4.35721ZM9.35721 9.75307C9.35721 9.20107 9.80521 8.75307 10.3572 8.75307H12.0715C12.6235 8.75307 13.0715 9.20107 13.0715 9.75307V11.4674C13.0715 11.7326 12.9661 11.9869 12.7786 12.1745C12.5911 12.362 12.3367 12.4674 12.0715 12.4674H10.3572C10.092 12.4674 9.83764 12.362 9.65011 12.1745C9.46257 11.9869 9.35721 11.7326 9.35721 11.4674V9.75307ZM10.3572 9.61021C10.3193 9.61021 10.283 9.62526 10.2562 9.65205C10.2294 9.67884 10.2144 9.71518 10.2144 9.75307V11.4674C10.2144 11.5462 10.2784 11.6102 10.3572 11.6102H12.0715C12.1094 11.6102 12.1457 11.5952 12.1725 11.5684C12.1993 11.5416 12.2144 11.5052 12.2144 11.4674V9.75307C12.2144 9.71518 12.1993 9.67884 12.1725 9.65205C12.1457 9.62526 12.1094 9.61021 12.0715 9.61021H10.3572Z" fill="#0043BE"/>
</svg>
