<svg width="20" height="20" viewBox="0 0 20 20" fill="none" xmlns="http://www.w3.org/2000/svg">
<path d="M10.0003 0.366577L18.3337 3.28324V9.99991C18.3337 13.4391 16.2228 15.8432 14.2537 17.3357C13.0658 18.2286 11.7622 18.9561 10.3787 19.4982L10.3062 19.5257L10.2853 19.5332L10.2795 19.5349L10.277 19.5357C10.2762 19.5357 10.2753 19.5357 10.0003 18.7499L9.72449 19.5366L9.72116 19.5349L9.71533 19.5332L9.69449 19.5249L9.62199 19.4982C9.22896 19.3463 8.8425 19.1778 8.46366 18.9932C7.50731 18.5287 6.59761 17.9736 5.74699 17.3357C3.77866 15.8432 1.66699 13.4391 1.66699 9.99991V3.28324L10.0003 0.366577ZM10.0003 18.7499L9.72449 19.5366L10.0003 19.6332L10.2762 19.5366L10.0003 18.7499ZM10.0003 17.8566L10.0078 17.8532C11.1609 17.3766 12.2492 16.7565 13.247 16.0074C15.0287 14.6582 16.667 12.6857 16.667 9.99991V4.46658L10.0003 2.13324L3.33366 4.46658V9.99991C3.33366 12.6857 4.97199 14.6566 6.75366 16.0082C7.75366 16.7587 8.84453 17.3798 10.0003 17.8566ZM15.0603 6.95241L9.16783 12.8449L5.63199 9.30991L6.81116 8.13074L9.16699 10.4882L13.8812 5.77408L15.0603 6.95241Z" fill="#0043BE"/>
</svg>
