<svg width="20" height="20" viewBox="0 0 20 20" fill="none" xmlns="http://www.w3.org/2000/svg">
<path d="M1.66699 2.08301H18.3337V12.9163H1.66699V2.08301Z" stroke="#0043BE" stroke-width="1.66667" stroke-linecap="round" stroke-linejoin="round"/>
<path d="M4.58333 16.6663H2.5M4.58333 16.6663C4.58333 16.8305 4.61567 16.993 4.67848 17.1447C4.7413 17.2964 4.83338 17.4342 4.94945 17.5502C5.06552 17.6663 5.20332 17.7584 5.35498 17.8212C5.50664 17.884 5.66918 17.9163 5.83333 17.9163C5.99749 17.9163 6.16003 17.884 6.31169 17.8212C6.46334 17.7584 6.60114 17.6663 6.71722 17.5502C6.83329 17.4342 6.92536 17.2964 6.98818 17.1447C7.051 16.993 7.08333 16.8305 7.08333 16.6663M4.58333 16.6663C4.58333 16.3348 4.71503 16.0169 4.94945 15.7825C5.18387 15.548 5.50181 15.4163 5.83333 15.4163C6.16485 15.4163 6.4828 15.548 6.71722 15.7825C6.95164 16.0169 7.08333 16.3348 7.08333 16.6663M7.08333 16.6663H17.5M9.16667 5.83301L11.6667 7.49967L9.16667 9.16634V5.83301Z" stroke="#0043BE" stroke-width="1.66667" stroke-linecap="round" stroke-linejoin="round"/>
</svg>
