<svg width="32" height="32" viewBox="0 0 32 32" fill="none" xmlns="http://www.w3.org/2000/svg">
<path d="M14.923 21.0092C14.923 19.8358 14.6164 18.8505 14.003 18.0532C13.5684 17.5038 12.9786 17.1429 12.2337 16.9705C11.5004 16.7998 10.807 16.7878 10.1804 16.9332C9.96704 15.6665 10.3137 14.3252 11.1937 12.9038C12.0755 11.4834 13.2124 10.4154 14.6044 9.69984L12.4964 6.6665C11.4297 7.1945 10.4164 7.86384 9.48304 8.67317C8.53638 9.4825 7.69638 10.4132 6.94971 11.4652C6.20304 12.5172 5.64304 13.7052 5.28304 15.0518C4.92304 16.3985 4.82304 17.7718 4.99504 19.1852C5.21904 21.0518 5.82171 22.5452 6.80304 23.6518C7.78349 24.7727 9.00482 25.3332 10.467 25.3332C11.7537 25.3332 12.8217 24.9465 13.667 24.1625C14.5035 23.3945 14.9213 22.3421 14.9204 21.0052L14.923 21.0092ZM27.0884 21.0092C27.0884 19.8358 26.7817 18.8505 26.1684 18.0532C25.7328 17.4932 25.143 17.1301 24.399 16.9638C23.6524 16.7994 22.9679 16.7896 22.3457 16.9345C22.1324 15.6812 22.4657 14.3345 23.3484 12.9078C24.2284 11.4945 25.3644 10.4278 26.7564 9.70784L24.6537 6.6665C23.5862 7.1945 22.5817 7.86339 21.6404 8.67317C20.6852 9.4946 19.8368 10.4326 19.115 11.4652C18.3737 12.5185 17.8217 13.7052 17.4617 15.0518C17.096 16.3975 16.9977 17.8017 17.1724 19.1852C17.3937 21.0518 17.9937 22.5452 18.9724 23.6518C19.9502 24.7647 21.1693 25.3212 22.6297 25.3212C23.9186 25.3229 24.9862 24.9332 25.8324 24.1518C26.6688 23.3838 27.0875 22.3314 27.0884 20.9945V21.0092Z" fill="#0043BE"/>
</svg>
