<svg width="48" height="48" viewBox="0 0 48 48" fill="none" xmlns="http://www.w3.org/2000/svg">
<rect width="48" height="48" rx="24" fill="#D9E3F8"/>
<path d="M24 15V32.25M24 32.25C22.528 32.25 21.118 32.515 19.815 33M24 32.25C25.472 32.25 26.882 32.515 28.185 33M30.75 16.97C28.5139 16.6547 26.2583 16.4977 24 16.5C21.709 16.5 19.455 16.66 17.25 16.97M30.75 16.97C31.76 17.1133 32.76 17.2867 33.75 17.49M30.75 16.97L33.37 27.696C33.492 28.195 33.264 28.724 32.781 28.898C32.1294 29.1316 31.4422 29.2507 30.75 29.25C30.0578 29.2507 29.3706 29.1316 28.719 28.898C28.236 28.724 28.008 28.195 28.129 27.696L30.75 16.97ZM17.25 16.97C16.24 17.1133 15.24 17.2867 14.25 17.49M17.25 16.97L19.87 27.696C19.992 28.195 19.764 28.724 19.281 28.898C18.6294 29.1316 17.9422 29.2507 17.25 29.25C16.5578 29.2507 15.8706 29.1316 15.219 28.898C14.736 28.724 14.508 28.195 14.629 27.696L17.25 16.97Z" stroke="#0043BE" stroke-width="1.5" stroke-linecap="round" stroke-linejoin="round"/>
</svg>
