<svg aria-hidden="true" fill="none" focusable="false" height="16" viewBox="0 0 16 16" width="16" class="css-da8k09" id="cds-react-aria-358"><path d="M7.66 3.717c.074 0 .11-.042.128-.108.188-1.003.176-1.027 1.229-1.225.073-.012.115-.054.115-.126 0-.072-.042-.114-.115-.126C7.97 1.922 8 1.898 7.788.908 7.77.842 7.734.8 7.661.8c-.073 0-.11.042-.127.108-.212.99-.176 1.014-1.23 1.224-.066.012-.114.054-.114.126 0 .072.048.114.115.126 1.053.21 1.041.222 1.229 1.225.018.066.054.108.127.108zM4.73 7.846c.116 0 .194-.073.207-.18.218-1.603.272-1.603 1.943-1.92.109-.019.188-.091.188-.205 0-.108-.08-.186-.188-.204-1.671-.228-1.732-.282-1.943-1.914a.2.2 0 00-.206-.186c-.11 0-.188.078-.2.192-.2 1.608-.285 1.602-1.943 1.908-.11.024-.188.096-.188.204 0 .12.079.186.212.204 1.646.264 1.72.306 1.919 1.908.012.12.09.193.2.193zm4.105 6.643c.158 0 .273-.114.303-.276.43-3.289.896-3.787 4.177-4.147.17-.018.285-.144.285-.3s-.115-.276-.285-.3c-3.28-.36-3.747-.858-4.177-4.147-.03-.162-.145-.27-.303-.27-.157 0-.272.108-.296.27-.43 3.289-.902 3.787-4.178 4.147-.175.024-.29.144-.29.3s.115.282.29.3c3.27.426 3.724.864 4.178 4.147.024.162.139.276.296.276z" fill="currentColor"></path></svg>