<svg width="48" height="48" viewBox="0 0 48 48" fill="none" xmlns="http://www.w3.org/2000/svg">
<rect width="48" height="48" rx="24" fill="#D9E3F8"/>
<path d="M18.575 33.27L19.733 30.68C19.4484 30.4846 19.175 30.28 18.913 30.066C18.6517 29.8526 18.4017 29.614 18.163 29.35C18.0557 29.4 17.9427 29.4376 17.824 29.463C17.7054 29.4876 17.5904 29.5 17.479 29.5C17.0057 29.5 16.599 29.33 16.259 28.99C15.9184 28.6493 15.748 28.2426 15.748 27.77C15.748 27.5006 15.8094 27.2443 15.932 27.001C16.0547 26.7576 16.2214 26.5573 16.432 26.4C16.2987 26.0166 16.201 25.6293 16.139 25.238C16.077 24.8466 16.0454 24.434 16.044 24C16.0427 23.566 16.0744 23.1536 16.139 22.763C16.2037 22.3723 16.3017 21.9846 16.433 21.6C16.2217 21.442 16.0547 21.2416 15.932 20.999C15.8094 20.7563 15.748 20.5003 15.748 20.231C15.748 19.7576 15.918 19.351 16.258 19.011C16.5987 18.6703 17.0054 18.5 17.478 18.5C17.59 18.5 17.7054 18.5126 17.824 18.538C17.9427 18.5626 18.056 18.6 18.164 18.65C18.714 18.05 19.3367 17.5466 20.032 17.14C20.7274 16.7333 21.475 16.4366 22.275 16.25C22.333 15.8266 22.53 15.4676 22.866 15.173C23.2027 14.8783 23.5827 14.731 24.006 14.731C24.4294 14.731 24.8094 14.873 25.146 15.157C25.4827 15.441 25.6794 15.7926 25.736 16.212C26.562 16.3986 27.3227 16.6943 28.018 17.099C28.7134 17.5036 29.3364 18.004 29.887 18.6C29.9944 18.55 30.1 18.519 30.204 18.507C30.308 18.495 30.4137 18.489 30.521 18.489C30.9944 18.489 31.401 18.659 31.741 18.999C32.0817 19.339 32.252 19.7456 32.252 20.219C32.252 20.4883 32.192 20.7426 32.072 20.982C31.952 21.2213 31.7877 21.4196 31.579 21.577C31.7124 21.9636 31.8104 22.356 31.873 22.754C31.9357 23.1513 31.967 23.5666 31.967 24C31.967 24.4333 31.9357 24.8543 31.873 25.263C31.8104 25.6716 31.7124 26.0673 31.579 26.45C31.7737 26.608 31.928 26.8 32.042 27.026C32.1567 27.2526 32.214 27.5003 32.214 27.769C32.214 28.2423 32.0437 28.649 31.703 28.989C31.363 29.3296 30.9564 29.5 30.483 29.5C30.375 29.5 30.269 29.4906 30.165 29.472C30.061 29.4533 29.9554 29.4256 29.848 29.389C29.6094 29.653 29.3667 29.8936 29.12 30.111C28.8734 30.3283 28.593 30.535 28.279 30.731L29.386 33.269H28.383L27.471 31.185C27.1864 31.323 26.9037 31.4393 26.623 31.534C26.3424 31.628 26.0467 31.713 25.736 31.789C25.6787 32.2076 25.482 32.559 25.146 32.843C24.81 33.127 24.43 33.269 24.006 33.269C23.582 33.269 23.202 33.1216 22.866 32.827C22.53 32.5323 22.333 32.1733 22.275 31.75C21.961 31.6746 21.6627 31.5896 21.38 31.495C21.0974 31.401 20.8137 31.2846 20.529 31.146L19.579 33.269L18.575 33.27ZM20.052 29.88L22.025 25.496C21.8557 25.286 21.7267 25.0553 21.638 24.804C21.55 24.5526 21.506 24.2846 21.506 24C21.506 23.3193 21.7527 22.7326 22.246 22.24C22.7387 21.7466 23.3254 21.5 24.006 21.5C24.6867 21.5 25.2734 21.7466 25.766 22.24C26.2587 22.7333 26.5054 23.32 26.506 24C26.506 24.2846 26.4544 24.558 26.351 24.82C26.2477 25.082 26.1097 25.324 25.937 25.546L27.91 29.919C28.1367 29.773 28.353 29.6136 28.559 29.441C28.7644 29.269 28.9594 29.0756 29.144 28.861C29.0094 28.715 28.9104 28.55 28.847 28.366C28.7837 28.1826 28.752 27.9836 28.752 27.769C28.752 27.2356 28.9644 26.7933 29.389 26.442C29.813 26.0913 30.2724 25.9696 30.767 26.077C30.867 25.7436 30.9487 25.408 31.012 25.07C31.0754 24.732 31.1067 24.3753 31.106 24C31.1054 23.6246 31.074 23.266 31.012 22.924C30.95 22.582 30.8684 22.2446 30.767 21.912C30.2724 22.0193 29.819 21.8973 29.407 21.546C28.9964 21.1946 28.791 20.7523 28.791 20.219C28.791 20.031 28.8277 19.8466 28.901 19.666C28.9744 19.486 29.0684 19.323 29.183 19.177C28.6997 18.655 28.1564 18.2243 27.553 17.885C26.951 17.545 26.3057 17.2833 25.617 17.1C25.4984 17.422 25.294 17.6846 25.004 17.888C24.714 18.0906 24.3814 18.192 24.006 18.192C23.6307 18.192 23.298 18.0906 23.008 17.888C22.718 17.6853 22.5134 17.4226 22.394 17.1C21.698 17.2833 21.0487 17.546 20.446 17.888C19.8434 18.2293 19.3004 18.6626 18.817 19.188C18.9317 19.3346 19.0257 19.498 19.099 19.678C19.1724 19.858 19.209 20.0423 19.209 20.231C19.209 20.777 18.999 21.2183 18.579 21.555C18.159 21.8916 17.7014 22.0143 17.206 21.923C17.106 22.2563 17.031 22.592 16.981 22.93C16.931 23.268 16.906 23.6246 16.906 24C16.906 24.3753 16.931 24.732 16.981 25.07C17.031 25.408 17.106 25.7436 17.206 26.077C17.6754 25.9696 18.1267 26.0883 18.56 26.433C18.9934 26.7776 19.21 27.223 19.21 27.769C19.21 27.983 19.1784 28.1736 19.115 28.341C19.051 28.5083 18.9517 28.665 18.817 28.811C19.0017 29.0256 19.197 29.2146 19.403 29.378C19.609 29.5413 19.8254 29.709 20.052 29.881M20.86 30.346C21.0947 30.468 21.3397 30.572 21.595 30.658C21.851 30.7433 22.1177 30.824 22.395 30.9C22.5137 30.578 22.718 30.3153 23.008 30.112C23.2974 29.9093 23.63 29.808 24.006 29.808C24.382 29.808 24.7147 29.9093 25.004 30.112C25.294 30.3153 25.4984 30.578 25.617 30.9C25.881 30.824 26.136 30.7496 26.382 30.677C26.6274 30.6036 26.8674 30.506 27.102 30.384L25.229 26.173C25.0417 26.269 24.8494 26.3476 24.652 26.409C24.4547 26.4696 24.2394 26.5 24.006 26.5C23.7687 26.5 23.544 26.4686 23.332 26.406C23.12 26.3433 22.92 26.249 22.732 26.123L20.86 30.346ZM24.006 25.5C24.406 25.5 24.756 25.3583 25.056 25.075C25.356 24.7916 25.506 24.4333 25.506 24C25.506 23.6 25.356 23.25 25.056 22.95C24.756 22.65 24.406 22.5 24.006 22.5C23.5727 22.5 23.2144 22.65 22.931 22.95C22.6477 23.25 22.506 23.6 22.506 24C22.506 24.4333 22.6477 24.7916 22.931 25.075C23.2144 25.3583 23.5727 25.5 24.006 25.5Z" fill="#0043BE"/>
</svg>
