<svg width="48" height="48" viewBox="0 0 48 48" fill="none" xmlns="http://www.w3.org/2000/svg">
<rect width="48" height="48" rx="24" fill="#D9E3F8"/>
<path d="M24.0001 16.75C22.8126 16.7495 21.6432 17.0406 20.5946 17.5979C19.546 18.1551 18.6503 18.9614 17.9863 19.9459C17.3223 20.9304 16.9103 22.0629 16.7864 23.2438C16.6626 24.4248 16.8307 25.6182 17.2761 26.719C17.3165 26.8109 17.3381 26.91 17.3395 27.0103C17.3409 27.1107 17.3222 27.2104 17.2844 27.3034C17.2466 27.3964 17.1905 27.4809 17.1194 27.5518C17.0484 27.6227 16.9638 27.6787 16.8707 27.7163C16.7776 27.7539 16.6779 27.7725 16.5775 27.7709C16.4772 27.7693 16.3781 27.7475 16.2863 27.7069C16.1945 27.6663 16.1117 27.6077 16.043 27.5345C15.9742 27.4614 15.9209 27.3751 15.8861 27.281C15.1296 25.4101 15.0431 23.3353 15.6411 21.4079C16.2391 19.4806 17.485 17.8192 19.1676 16.7051C20.8503 15.5911 22.8662 15.0929 24.8741 15.295C26.882 15.497 28.7583 16.3869 30.1852 17.8138C31.6122 19.2408 32.502 21.1171 32.7041 23.1249C32.9061 25.1328 32.4079 27.1488 31.2939 28.8314C30.1799 30.5141 28.5185 31.7599 26.5911 32.3579C24.6638 32.956 22.5889 32.8694 20.7181 32.113C20.5377 32.0356 20.3948 31.8906 20.3201 31.7091C20.2454 31.5276 20.2449 31.3241 20.3186 31.1421C20.3922 30.9602 20.5343 30.8144 20.7143 30.7361C20.8942 30.6577 21.0977 30.653 21.2811 30.723C22.2724 31.1231 23.3399 31.299 24.4072 31.2382C25.4745 31.1774 26.5151 30.8813 27.4545 30.3712C28.394 29.861 29.209 29.1494 29.8411 28.2874C30.4733 27.4253 30.907 26.4341 31.1112 25.3848C31.3154 24.3354 31.285 23.2539 31.0222 22.2177C30.7594 21.1815 30.2707 20.2162 29.5911 19.391C28.9116 18.5658 28.0579 17.9011 27.0913 17.4445C26.1247 16.988 25.0691 16.7508 24.0001 16.75Z" fill="#0043BE"/>
<path d="M18.2499 24C18.2499 25.317 18.6929 26.531 19.4379 27.501L18.9689 27.97L18.9399 28H17.7699C17.3722 28.0004 16.9909 28.1586 16.7099 28.44L15.0729 30.077C14.9681 30.1819 14.8968 30.3155 14.8679 30.4609C14.839 30.6063 14.8539 30.757 14.9106 30.8939C14.9673 31.0309 15.0633 31.148 15.1865 31.2304C15.3097 31.3128 15.4546 31.3569 15.6029 31.357H16.6429V32.397C16.643 32.5453 16.687 32.6901 16.7695 32.8134C16.8519 32.9366 16.969 33.0326 17.1059 33.0893C17.2429 33.146 17.3936 33.1609 17.539 33.132C17.6844 33.1031 17.818 33.0318 17.9229 32.927L19.5599 31.289C19.841 31.0082 19.9992 30.6274 19.9999 30.23V29.06L20.0299 29.031L20.4989 28.563C21.5285 29.3533 22.7952 29.772 24.093 29.751C25.3908 29.7299 26.6433 29.2704 27.6468 28.4472C28.6503 27.6239 29.3458 26.4854 29.62 25.2167C29.8943 23.948 29.7312 22.6239 29.1574 21.4597C28.5836 20.2954 27.6327 19.3596 26.4595 18.8044C25.2863 18.2491 23.9597 18.1072 22.6956 18.4016C21.4315 18.696 20.3041 19.4095 19.4969 20.4259C18.6898 21.4424 18.2502 22.702 18.2499 24ZM23.9999 19.75C24.6668 19.7502 25.3243 19.9074 25.9193 20.2088C26.5143 20.5102 27.0299 20.9474 27.4246 21.485C27.8193 22.0226 28.0819 22.6456 28.1912 23.3035C28.3005 23.9615 28.2534 24.6359 28.0538 25.2723C27.8541 25.9086 27.5075 26.4891 27.042 26.9666C26.5764 27.4442 26.005 27.8055 25.3739 28.0214C24.7429 28.2372 24.0699 28.3014 23.4094 28.209C22.7489 28.1165 22.1194 27.8699 21.5719 27.489L23.2179 25.842C23.6452 26.0233 24.1222 26.0503 24.5673 25.9184C25.0123 25.7865 25.3976 25.504 25.6572 25.1191C25.9167 24.7343 26.0343 24.2711 25.9898 23.8091C25.9453 23.3471 25.7414 22.9149 25.4132 22.5867C25.085 22.2584 24.6528 22.0546 24.1908 22.0101C23.7287 21.9656 23.2656 22.0832 22.8808 22.3427C22.4959 22.6022 22.2133 22.9875 22.0814 23.4326C21.9495 23.8776 21.9766 24.3547 22.1579 24.782L20.5099 26.427C20.0664 25.7896 19.8061 25.0429 19.7572 24.2679C19.7082 23.493 19.8725 22.7195 20.2322 22.0313C20.5919 21.3431 21.1332 20.7667 21.7975 20.3645C22.4617 19.9623 23.2234 19.7498 23.9999 19.75ZM18.9399 29L18.9999 29.059V30.229C18.9996 30.3615 18.9467 30.4885 18.8529 30.582L17.6429 31.792V30.857C17.6429 30.7244 17.5902 30.5972 17.4964 30.5035C17.4026 30.4097 17.2755 30.357 17.1429 30.357H16.2069L17.4169 29.147C17.4633 29.1004 17.5185 29.0635 17.5792 29.0382C17.64 29.013 17.7051 29 17.7709 29H18.9399Z" fill="#0043BE"/>
</svg>
