<svg width="20" height="20" viewBox="0 0 20 20" fill="none" xmlns="http://www.w3.org/2000/svg">
<path d="M1.66634 17.5C1.43023 17.5 1.23246 17.42 1.07301 17.26C0.913566 17.1 0.833566 16.9022 0.833011 16.6667C0.832455 16.4311 0.912455 16.2333 1.07301 16.0733C1.23357 15.9133 1.43134 15.8333 1.66634 15.8333H18.333C18.5691 15.8333 18.7672 15.9133 18.9272 16.0733C19.0872 16.2333 19.1669 16.4311 19.1663 16.6667C19.1658 16.9022 19.0858 17.1003 18.9263 17.2608C18.7669 17.4214 18.5691 17.5011 18.333 17.5H1.66634ZM3.33301 15C2.87468 15 2.48246 14.8369 2.15634 14.5108C1.83023 14.1847 1.6669 13.7922 1.66634 13.3333V4.16667C1.66634 3.70833 1.82968 3.31611 2.15634 2.99C2.48301 2.66389 2.87523 2.50056 3.33301 2.5H16.6663C17.1247 2.5 17.5172 2.66333 17.8438 2.99C18.1705 3.31667 18.3336 3.70889 18.333 4.16667V13.3333C18.333 13.7917 18.17 14.1842 17.8438 14.5108C17.5177 14.8375 17.1252 15.0006 16.6663 15H3.33301ZM3.33301 13.3333H16.6663V4.16667H3.33301V13.3333Z" fill="#0043BE"/>
</svg>
