<svg width="100" height="100" viewBox="0 0 100 100" fill="none" xmlns="http://www.w3.org/2000/svg">
<rect x="1.25" y="1.25" width="97.5" height="97.5" rx="48.75" fill="#F6F6F6"/>
<rect x="1.25" y="1.25" width="97.5" height="97.5" rx="48.75" stroke="white" stroke-width="2.5"/>
<path fill-rule="evenodd" clip-rule="evenodd" d="M38 35C38 31.8174 39.2643 28.7652 41.5147 26.5147C43.7652 24.2643 46.8174 23 50 23C53.1826 23 56.2348 24.2643 58.4853 26.5147C60.7357 28.7652 62 31.8174 62 35C62 38.1826 60.7357 41.2348 58.4853 43.4853C56.2348 45.7357 53.1826 47 50 47C46.8174 47 43.7652 45.7357 41.5147 43.4853C39.2643 41.2348 38 38.1826 38 35ZM38 53C34.0218 53 30.2064 54.5804 27.3934 57.3934C24.5804 60.2064 23 64.0218 23 68C23 70.3869 23.9482 72.6761 25.636 74.364C27.3239 76.0518 29.6131 77 32 77H68C70.3869 77 72.6761 76.0518 74.364 74.364C76.0518 72.6761 77 70.3869 77 68C77 64.0218 75.4196 60.2064 72.6066 57.3934C69.7936 54.5804 65.9782 53 62 53H38Z" fill="#C7C7C7"/>
</svg>
