<svg width="15" height="15" viewBox="0 0 15 15" fill="none" xmlns="http://www.w3.org/2000/svg">
<path d="M7.69506 4.01465L11.8276 11.1729M11.6111 10.7968L1.42184 13.1636L0.771484 12.0321L7.9147 4.39072" stroke="white" stroke-linecap="round" stroke-linejoin="round"/>
<path d="M3.63864 12.6486L4.20007 13.6204C4.40367 13.9692 4.73749 14.2228 5.1281 14.3255C5.32152 14.3763 5.52305 14.3886 5.72119 14.3615C5.91934 14.3345 6.11021 14.2687 6.28292 14.1679C6.45564 14.067 6.6068 13.9332 6.72778 13.774C6.84877 13.6147 6.93721 13.4332 6.98805 13.2398C7.03889 13.0464 7.05113 12.8449 7.02409 12.6467C6.99704 12.4486 6.93124 12.2577 6.83042 12.085L6.74042 11.9296M7.97578 1.96857V0.625M13.1219 7.11464H14.4644M1.48828 7.11464H2.83078M3.38685 2.52571L4.33614 3.47607M11.6144 3.47607L12.5636 2.52571" stroke="white" stroke-linecap="round" stroke-linejoin="round"/>
</svg>
