<svg width="18" height="16" viewBox="0 0 18 16" fill="none" xmlns="http://www.w3.org/2000/svg">
<path d="M14.25 1.25H3.75C2.6895 1.25 2.15925 1.25 1.83 1.559C1.50075 1.868 1.5 2.366 1.5 3.36125V3.87875C1.5 4.6565 1.5 5.04575 1.695 5.36825C1.89 5.69075 2.24475 5.89175 2.9565 6.29225L5.14125 7.52225C5.61825 7.79075 5.8575 7.925 6.0285 8.0735C6.384 8.38175 6.603 8.74475 6.702 9.191C6.75 9.404 6.75 9.6545 6.75 10.1548V12.1572C6.75 12.839 6.75 13.1802 6.939 13.4457C7.128 13.712 7.464 13.8433 8.1345 14.1058C9.54375 14.6563 10.248 14.9315 10.749 14.618C11.25 14.3045 11.25 13.589 11.25 12.1565V10.154C11.25 9.6545 11.25 9.404 11.298 9.19025C11.3922 8.75312 11.6295 8.35988 11.9723 8.07275C12.1425 7.925 12.3818 7.79075 12.8588 7.5215L15.0435 6.2915C15.7545 5.89175 16.1107 5.6915 16.305 5.369C16.5 5.0465 16.5 4.6565 16.5 3.878V3.3605C16.5 2.366 16.5 1.868 16.17 1.559C15.8415 1.25 15.3112 1.25 14.25 1.25Z" stroke="#656565" stroke-width="1.125"/>
</svg>
