<svg width="16" height="18" viewBox="0 0 16 18" fill="none" xmlns="http://www.w3.org/2000/svg">
<path d="M11.3333 9.8C11.5101 9.8 11.6797 9.72976 11.8047 9.60474C11.9298 9.47971 12 9.31014 12 9.13333C12 8.95652 11.9298 8.78695 11.8047 8.66193C11.6797 8.53691 11.5101 8.46667 11.3333 8.46667C11.1565 8.46667 10.987 8.53691 10.8619 8.66193C10.7369 8.78695 10.6667 8.95652 10.6667 9.13333C10.6667 9.31014 10.7369 9.47971 10.8619 9.60474C10.987 9.72976 11.1565 9.8 11.3333 9.8ZM11.3333 12.4667C11.5101 12.4667 11.6797 12.3964 11.8047 12.2714C11.9298 12.1464 12 11.9768 12 11.8C12 11.6232 11.9298 11.4536 11.8047 11.3286C11.6797 11.2036 11.5101 11.1333 11.3333 11.1333C11.1565 11.1333 10.987 11.2036 10.8619 11.3286C10.7369 11.4536 10.6667 11.6232 10.6667 11.8C10.6667 11.9768 10.7369 12.1464 10.8619 12.2714C10.987 12.3964 11.1565 12.4667 11.3333 12.4667ZM8.66667 9.13333C8.66667 9.31014 8.59643 9.47971 8.4714 9.60474C8.34638 9.72976 8.17681 9.8 8 9.8C7.82319 9.8 7.65362 9.72976 7.5286 9.60474C7.40357 9.47971 7.33333 9.31014 7.33333 9.13333C7.33333 8.95652 7.40357 8.78695 7.5286 8.66193C7.65362 8.53691 7.82319 8.46667 8 8.46667C8.17681 8.46667 8.34638 8.53691 8.4714 8.66193C8.59643 8.78695 8.66667 8.95652 8.66667 9.13333ZM8.66667 11.8C8.66667 11.9768 8.59643 12.1464 8.4714 12.2714C8.34638 12.3964 8.17681 12.4667 8 12.4667C7.82319 12.4667 7.65362 12.3964 7.5286 12.2714C7.40357 12.1464 7.33333 11.9768 7.33333 11.8C7.33333 11.6232 7.40357 11.4536 7.5286 11.3286C7.65362 11.2036 7.82319 11.1333 8 11.1333C8.17681 11.1333 8.34638 11.2036 8.4714 11.3286C8.59643 11.4536 8.66667 11.6232 8.66667 11.8ZM4.66667 9.8C4.84348 9.8 5.01305 9.72976 5.13807 9.60474C5.2631 9.47971 5.33333 9.31014 5.33333 9.13333C5.33333 8.95652 5.2631 8.78695 5.13807 8.66193C5.01305 8.53691 4.84348 8.46667 4.66667 8.46667C4.48986 8.46667 4.32029 8.53691 4.19526 8.66193C4.07024 8.78695 4 8.95652 4 9.13333C4 9.31014 4.07024 9.47971 4.19526 9.60474C4.32029 9.72976 4.48986 9.8 4.66667 9.8ZM4.66667 12.4667C4.84348 12.4667 5.01305 12.3964 5.13807 12.2714C5.2631 12.1464 5.33333 11.9768 5.33333 11.8C5.33333 11.6232 5.2631 11.4536 5.13807 11.3286C5.01305 11.2036 4.84348 11.1333 4.66667 11.1333C4.48986 11.1333 4.32029 11.2036 4.19526 11.3286C4.07024 11.4536 4 11.6232 4 11.8C4 11.9768 4.07024 12.1464 4.19526 12.2714C4.32029 12.3964 4.48986 12.4667 4.66667 12.4667Z" fill="#0043BE"/>
<path fill-rule="evenodd" clip-rule="evenodd" d="M4.66665 1.63333C4.79926 1.63333 4.92644 1.68601 5.0202 1.77978C5.11397 1.87355 5.16665 2.00072 5.16665 2.13333V2.642C5.60798 2.63333 6.09398 2.63333 6.62865 2.63333H9.37065C9.90598 2.63333 10.392 2.63333 10.8333 2.642V2.13333C10.8333 2.00072 10.886 1.87355 10.9798 1.77978C11.0735 1.68601 11.2007 1.63333 11.3333 1.63333C11.4659 1.63333 11.5931 1.68601 11.6869 1.77978C11.7806 1.87355 11.8333 2.00072 11.8333 2.13333V2.68467C12.0067 2.698 12.1709 2.71489 12.326 2.73533C13.1073 2.84067 13.74 3.062 14.2393 3.56067C14.738 4.06 14.9593 4.69267 15.0647 5.474C15.1667 6.234 15.1667 7.204 15.1667 8.42933V9.83733C15.1667 11.0627 15.1667 12.0333 15.0647 12.7927C14.9593 13.574 14.738 14.2067 14.2393 14.706C13.74 15.2047 13.1073 15.426 12.326 15.5313C11.566 15.6333 10.596 15.6333 9.37065 15.6333H6.62998C5.40465 15.6333 4.43398 15.6333 3.67465 15.5313C2.89332 15.426 2.26065 15.2047 1.76132 14.706C1.26265 14.2067 1.04132 13.574 0.935984 12.7927C0.833984 12.0327 0.833984 11.0627 0.833984 9.83733V8.42933C0.833984 7.204 0.833984 6.23333 0.935984 5.474C1.04132 4.69267 1.26265 4.06 1.76132 3.56067C2.26065 3.062 2.89332 2.84067 3.67465 2.73533C3.83021 2.71489 3.99443 2.698 4.16732 2.68467V2.13333C4.16732 2.00084 4.2199 1.87376 4.31353 1.78002C4.40715 1.68627 4.53416 1.63351 4.66665 1.63333ZM3.80665 3.72667C3.13665 3.81667 2.74998 3.986 2.46798 4.268C2.18598 4.55 2.01665 4.93667 1.92665 5.60667C1.91154 5.72 1.89865 5.83978 1.88798 5.966H14.112C14.1013 5.83978 14.0884 5.71978 14.0733 5.606C13.9833 4.936 13.814 4.54933 13.532 4.26733C13.25 3.98533 12.8633 3.816 12.1927 3.726C11.508 3.634 10.6047 3.63267 9.33332 3.63267H6.66665C5.39532 3.63267 4.49265 3.63467 3.80665 3.72667ZM1.83332 8.46667C1.83332 7.89733 1.83332 7.402 1.84198 6.96667H14.158C14.1667 7.402 14.1667 7.89733 14.1667 8.46667V9.8C14.1667 11.0713 14.1653 11.9747 14.0733 12.66C13.9833 13.33 13.814 13.7167 13.532 13.9987C13.25 14.2807 12.8633 14.45 12.1927 14.54C11.508 14.632 10.6047 14.6333 9.33332 14.6333H6.66665C5.39532 14.6333 4.49265 14.632 3.80665 14.54C3.13665 14.45 2.74998 14.2807 2.46798 13.9987C2.18598 13.7167 2.01665 13.33 1.92665 12.6593C1.83465 11.9747 1.83332 11.0713 1.83332 9.8V8.46667Z" fill="#0043BE"/>
</svg>
