<svg width="120" height="120" viewBox="0 0 120 120" fill="none" xmlns="http://www.w3.org/2000/svg">
<path d="M65 90H15C13.6739 90 12.4021 89.4732 11.4645 88.5355C10.5268 87.5979 10 86.3261 10 85V20C10 18.6739 10.5268 17.4021 11.4645 16.4645C12.4021 15.5268 13.6739 15 15 15H105C106.326 15 107.598 15.5268 108.536 16.4645C109.473 17.4021 110 18.6739 110 20V85C110 86.3261 109.473 87.5979 108.536 88.5355C107.598 89.4732 106.326 90 105 90H85M30 35H90M30 52.5H45M30 70H40" stroke="black" stroke-width="3" stroke-linecap="round" stroke-linejoin="round"/>
<path d="M75 82.5C78.9782 82.5 82.7936 80.9196 85.6066 78.1066C88.4196 75.2936 90 71.4782 90 67.5C90 63.5218 88.4196 59.7064 85.6066 56.8934C82.7936 54.0804 78.9782 52.5 75 52.5C71.0218 52.5 67.2064 54.0804 64.3934 56.8934C61.5804 59.7064 60 63.5218 60 67.5C60 71.4782 61.5804 75.2936 64.3934 78.1066C67.2064 80.9196 71.0218 82.5 75 82.5Z" stroke="black" stroke-width="3"/>
<path d="M75 100L85 105V78.6801C85 78.6801 82.15 82.5001 75 82.5001C67.85 82.5001 65 78.7501 65 78.7501V105L75 100Z" stroke="black" stroke-width="3" stroke-linecap="round" stroke-linejoin="round"/>
</svg>
