<svg width="16" height="17" viewBox="0 0 16 17" fill="none" xmlns="http://www.w3.org/2000/svg">
<path d="M1.33334 4.46667C1.33334 3.20933 1.33334 2.58133 1.72401 2.19067C2.11468 1.8 2.74268 1.8 4.00001 1.8C5.25734 1.8 5.88534 1.8 6.27601 2.19067C6.66668 2.58133 6.66668 3.20933 6.66668 4.46667V5.8C6.66668 7.05733 6.66668 7.68533 6.27601 8.076C5.88534 8.46667 5.25734 8.46667 4.00001 8.46667C2.74268 8.46667 2.11468 8.46667 1.72401 8.076C1.33334 7.68533 1.33334 7.05733 1.33334 5.8V4.46667ZM1.33334 13.1333C1.33334 12.512 1.33334 12.2013 1.43468 11.9567C1.50169 11.7948 1.59994 11.6477 1.72383 11.5238C1.84771 11.3999 1.9948 11.3017 2.15668 11.2347C2.40134 11.1333 2.71201 11.1333 3.33334 11.1333H4.66668C5.28801 11.1333 5.59868 11.1333 5.84334 11.2347C6.00522 11.3017 6.15231 11.3999 6.27619 11.5238C6.40008 11.6477 6.49833 11.7948 6.56534 11.9567C6.66668 12.2013 6.66668 12.512 6.66668 13.1333C6.66668 13.7547 6.66668 14.0653 6.56534 14.31C6.49833 14.4719 6.40008 14.619 6.27619 14.7429C6.15231 14.8667 6.00522 14.965 5.84334 15.032C5.59868 15.1333 5.28801 15.1333 4.66668 15.1333H3.33334C2.71201 15.1333 2.40134 15.1333 2.15668 15.032C1.9948 14.965 1.84771 14.8667 1.72383 14.7429C1.59994 14.619 1.50169 14.4719 1.43468 14.31C1.33334 14.0653 1.33334 13.7547 1.33334 13.1333ZM9.33334 11.1333C9.33334 9.876 9.33334 9.248 9.72401 8.85733C10.1147 8.46667 10.7427 8.46667 12 8.46667C13.2573 8.46667 13.8853 8.46667 14.276 8.85733C14.6667 9.248 14.6667 9.876 14.6667 11.1333V12.4667C14.6667 13.724 14.6667 14.352 14.276 14.7427C13.8853 15.1333 13.2573 15.1333 12 15.1333C10.7427 15.1333 10.1147 15.1333 9.72401 14.7427C9.33334 14.352 9.33334 13.724 9.33334 12.4667V11.1333ZM9.33334 3.8C9.33334 3.17867 9.33334 2.868 9.43468 2.62333C9.50169 2.46145 9.59994 2.31437 9.72383 2.19048C9.84771 2.0666 9.9948 1.96834 10.1567 1.90133C10.4013 1.8 10.712 1.8 11.3333 1.8H12.6667C13.288 1.8 13.5987 1.8 13.8433 1.90133C14.0052 1.96834 14.1523 2.0666 14.2762 2.19048C14.4001 2.31437 14.4983 2.46145 14.5653 2.62333C14.6667 2.868 14.6667 3.17867 14.6667 3.8C14.6667 4.42133 14.6667 4.732 14.5653 4.97667C14.4983 5.13855 14.4001 5.28563 14.2762 5.40952C14.1523 5.5334 14.0052 5.63166 13.8433 5.69867C13.5987 5.8 13.288 5.8 12.6667 5.8H11.3333C10.712 5.8 10.4013 5.8 10.1567 5.69867C9.9948 5.63166 9.84771 5.5334 9.72383 5.40952C9.59994 5.28563 9.50169 5.13855 9.43468 4.97667C9.33334 4.732 9.33334 4.42133 9.33334 3.8Z" stroke="#0043BE" stroke-width="1.25" stroke-linecap="round" stroke-linejoin="round"/>
</svg>
