<svg width="16" height="17" viewBox="0 0 16 17" fill="none" xmlns="http://www.w3.org/2000/svg">
<path d="M1.33337 4.46667C1.33337 3.20933 1.33337 2.58133 1.72404 2.19067C2.11471 1.8 2.74271 1.8 4.00004 1.8C5.25737 1.8 5.88537 1.8 6.27604 2.19067C6.66671 2.58133 6.66671 3.20933 6.66671 4.46667V5.8C6.66671 7.05733 6.66671 7.68533 6.27604 8.076C5.88537 8.46667 5.25737 8.46667 4.00004 8.46667C2.74271 8.46667 2.11471 8.46667 1.72404 8.076C1.33337 7.68533 1.33337 7.05733 1.33337 5.8V4.46667ZM1.33337 13.1333C1.33337 12.512 1.33337 12.2013 1.43471 11.9567C1.50172 11.7948 1.59997 11.6477 1.72386 11.5238C1.84774 11.3999 1.99483 11.3017 2.15671 11.2347C2.40137 11.1333 2.71204 11.1333 3.33337 11.1333H4.66671C5.28804 11.1333 5.59871 11.1333 5.84337 11.2347C6.00525 11.3017 6.15234 11.3999 6.27622 11.5238C6.40011 11.6477 6.49836 11.7948 6.56537 11.9567C6.66671 12.2013 6.66671 12.512 6.66671 13.1333C6.66671 13.7547 6.66671 14.0653 6.56537 14.31C6.49836 14.4719 6.40011 14.619 6.27622 14.7429C6.15234 14.8667 6.00525 14.965 5.84337 15.032C5.59871 15.1333 5.28804 15.1333 4.66671 15.1333H3.33337C2.71204 15.1333 2.40137 15.1333 2.15671 15.032C1.99483 14.965 1.84774 14.8667 1.72386 14.7429C1.59997 14.619 1.50172 14.4719 1.43471 14.31C1.33337 14.0653 1.33337 13.7547 1.33337 13.1333ZM9.33337 11.1333C9.33337 9.876 9.33337 9.248 9.72404 8.85733C10.1147 8.46667 10.7427 8.46667 12 8.46667C13.2574 8.46667 13.8854 8.46667 14.276 8.85733C14.6667 9.248 14.6667 9.876 14.6667 11.1333V12.4667C14.6667 13.724 14.6667 14.352 14.276 14.7427C13.8854 15.1333 13.2574 15.1333 12 15.1333C10.7427 15.1333 10.1147 15.1333 9.72404 14.7427C9.33337 14.352 9.33337 13.724 9.33337 12.4667V11.1333ZM9.33337 3.8C9.33337 3.17867 9.33337 2.868 9.43471 2.62333C9.50172 2.46145 9.59997 2.31437 9.72386 2.19048C9.84774 2.0666 9.99483 1.96834 10.1567 1.90133C10.4014 1.8 10.712 1.8 11.3334 1.8H12.6667C13.288 1.8 13.5987 1.8 13.8434 1.90133C14.0053 1.96834 14.1523 2.0666 14.2762 2.19048C14.4001 2.31437 14.4984 2.46145 14.5654 2.62333C14.6667 2.868 14.6667 3.17867 14.6667 3.8C14.6667 4.42133 14.6667 4.732 14.5654 4.97667C14.4984 5.13855 14.4001 5.28563 14.2762 5.40952C14.1523 5.5334 14.0053 5.63166 13.8434 5.69867C13.5987 5.8 13.288 5.8 12.6667 5.8H11.3334C10.712 5.8 10.4014 5.8 10.1567 5.69867C9.99483 5.63166 9.84774 5.5334 9.72386 5.40952C9.59997 5.28563 9.50172 5.13855 9.43471 4.97667C9.33337 4.732 9.33337 4.42133 9.33337 3.8Z" stroke="#656565" stroke-width="1.25" stroke-linecap="round" stroke-linejoin="round"/>
</svg>
