<svg width="151" height="120" viewBox="0 0 151 120" fill="none" xmlns="http://www.w3.org/2000/svg">
<path fill-rule="evenodd" clip-rule="evenodd" d="M68.3712 67.384C68.3243 67.716 68.3 68.0552 68.3 68.4001C68.3 72.3765 71.5236 75.6001 75.5 75.6001C79.4765 75.6001 82.7 72.3765 82.7 68.4001C82.7 68.0552 82.6758 67.716 82.6289 67.384H100.1V83.4001C100.1 84.3942 99.2941 85.2001 98.3 85.2001H52.7C51.7059 85.2001 50.9 84.3942 50.9 83.4001V67.384H68.3712Z" fill="white"/>
<path fill-rule="evenodd" clip-rule="evenodd" d="M83.3 67.2001C83.3 71.5079 79.8078 75.0001 75.5 75.0001C71.1922 75.0001 67.7 71.5079 67.7 67.2001C67.7 67.0605 67.7037 66.9218 67.7109 66.7841H50.9L56.6363 49.8234C56.8836 49.0922 57.5695 48.6001 58.3414 48.6001H92.6586C93.4305 48.6001 94.1165 49.0922 94.3638 49.8234L100.1 66.7841H83.2891C83.2964 66.9218 83.3 67.0605 83.3 67.2001Z" fill="white"/>
<path fill-rule="evenodd" clip-rule="evenodd" d="M82.1585 67.7727C82.1585 71.1015 79.1774 74.4 75.5 74.4C71.8226 74.4 68.8414 71.1015 68.8414 67.7727C68.8414 67.6649 68.8446 66.9577 68.8508 66.8513H56.3L61.1968 54.9453C61.4079 54.3803 61.9935 54 62.6524 54H88.3476C89.0065 54 89.5921 54.3803 89.8032 54.9453L94.7 66.8513H82.1492C82.1554 66.9577 82.1585 67.6649 82.1585 67.7727Z" fill="#E8F0FE"/>
<path fill-rule="evenodd" clip-rule="evenodd" d="M51.65 66.9075V82.8001C51.65 83.38 52.1201 83.8501 52.7 83.8501H98.3C98.8799 83.8501 99.35 83.38 99.35 82.8001V66.9075L93.6533 50.0637C93.509 49.6372 93.1089 49.3501 92.6586 49.3501H58.3414C57.8911 49.3501 57.491 49.6372 57.3468 50.0637L51.65 66.9075Z" stroke="#0043BE" stroke-width="2.5"/>
<path d="M59.3 66.6001C61.6619 66.6001 64.2109 66.6001 66.9469 66.6001C68.0727 66.6001 68.0727 67.3912 68.0727 67.8001C68.0727 71.7765 71.3704 75.0001 75.4384 75.0001C79.5063 75.0001 82.804 71.7765 82.804 67.8001C82.804 67.3912 82.804 66.6001 83.9298 66.6001H98.9M54.8442 66.6001H56.3H54.8442Z" stroke="#0043BE" stroke-width="2.5" stroke-linecap="round" stroke-linejoin="round"/>
<path d="M90.5598 34.9815L83.9 42.4534M74.9598 32.3999V42.4534V32.3999ZM59.3 34.9815L65.9598 42.4534L59.3 34.9815Z" stroke="#75A4FE" stroke-width="2.5" stroke-linecap="round" stroke-linejoin="round"/>
</svg>
