<svg width="16" height="17" viewBox="0 0 16 17" fill="none" xmlns="http://www.w3.org/2000/svg">
<path fill-rule="evenodd" clip-rule="evenodd" d="M8 5.96667C7.33696 5.96667 6.70107 6.23006 6.23223 6.6989C5.76339 7.16774 5.5 7.80363 5.5 8.46667C5.5 9.12971 5.76339 9.76559 6.23223 10.2344C6.70107 10.7033 7.33696 10.9667 8 10.9667C8.66304 10.9667 9.29893 10.7033 9.76777 10.2344C10.2366 9.76559 10.5 9.12971 10.5 8.46667C10.5 7.80363 10.2366 7.16774 9.76777 6.6989C9.29893 6.23006 8.66304 5.96667 8 5.96667ZM6.5 8.46667C6.5 8.06884 6.65804 7.68731 6.93934 7.40601C7.22064 7.1247 7.60218 6.96667 8 6.96667C8.39782 6.96667 8.77936 7.1247 9.06066 7.40601C9.34196 7.68731 9.5 8.06884 9.5 8.46667C9.5 8.86449 9.34196 9.24602 9.06066 9.52733C8.77936 9.80863 8.39782 9.96667 8 9.96667C7.60218 9.96667 7.22064 9.80863 6.93934 9.52733C6.65804 9.24602 6.5 8.86449 6.5 8.46667Z" fill="#0043BE"/>
<path fill-rule="evenodd" clip-rule="evenodd" d="M7.98286 1.3C7.68619 1.3 7.43886 1.3 7.23619 1.31333C7.029 1.32168 6.82465 1.36449 6.63152 1.44C6.40902 1.53206 6.20684 1.66705 6.03652 1.83726C5.86619 2.00747 5.73107 2.20956 5.63886 2.432C5.54219 2.66533 5.51619 2.912 5.50552 3.18C5.50433 3.27799 5.47833 3.37408 5.42995 3.4593C5.38157 3.54452 5.31239 3.61609 5.22886 3.66733C5.14274 3.71422 5.04614 3.7385 4.9481 3.73792C4.85005 3.73733 4.75374 3.7119 4.66819 3.664C4.43086 3.53867 4.20419 3.438 3.95352 3.40467C3.71482 3.37327 3.47227 3.3892 3.23972 3.45154C3.00717 3.51388 2.78918 3.62141 2.59819 3.768C2.43645 3.89765 2.29744 4.05334 2.18686 4.22867C2.07352 4.398 1.94952 4.612 1.80152 4.86867L1.78486 4.898C1.63619 5.15467 1.51286 5.36867 1.42352 5.55133C1.33019 5.742 1.25686 5.93 1.23019 6.138C1.16659 6.62 1.29704 7.10751 1.59286 7.49333C1.74686 7.694 1.94752 7.84 2.17419 7.98267C2.25861 8.03272 2.32895 8.10338 2.37862 8.18803C2.42829 8.27268 2.45567 8.36855 2.45819 8.46667C2.45567 8.56478 2.42829 8.66065 2.37862 8.7453C2.32895 8.82995 2.25861 8.90061 2.17419 8.95067C1.94752 9.09333 1.74752 9.23933 1.59286 9.44C1.44627 9.63099 1.33873 9.84898 1.27639 10.0815C1.21405 10.3141 1.19813 10.5566 1.22952 10.7953C1.25686 11.0033 1.32952 11.1913 1.42286 11.382C1.51286 11.5647 1.63619 11.7787 1.78486 12.0353L1.80152 12.0647C1.94952 12.3213 2.07352 12.5353 2.18686 12.7047C2.30486 12.88 2.43152 13.038 2.59819 13.1647C2.78913 13.3114 3.0071 13.419 3.23965 13.4815C3.4722 13.5439 3.71478 13.56 3.95352 13.5287C4.20419 13.4953 4.43086 13.3953 4.66819 13.2693C4.75366 13.2216 4.84984 13.1962 4.94776 13.1956C5.04568 13.195 5.14216 13.2192 5.22819 13.266C5.3124 13.3166 5.38219 13.388 5.43087 13.4733C5.47956 13.5587 5.50549 13.6551 5.50619 13.7533C5.51619 14.0213 5.54219 14.268 5.63952 14.5013C5.73158 14.7238 5.86657 14.926 6.03678 15.0963C6.20699 15.2667 6.40909 15.4018 6.63152 15.494C6.82486 15.574 7.02486 15.6053 7.23619 15.6193C7.43886 15.6333 7.68619 15.6333 7.98286 15.6333H8.01619C8.31286 15.6333 8.56019 15.6333 8.76286 15.62C8.97486 15.6053 9.17419 15.574 9.36753 15.4933C9.59002 15.4013 9.79221 15.2663 9.96253 15.0961C10.1329 14.9259 10.268 14.7238 10.3602 14.5013C10.4569 14.268 10.4829 14.0213 10.4935 13.7533C10.4946 13.6552 10.5205 13.559 10.5689 13.4737C10.6173 13.3883 10.6866 13.3166 10.7702 13.2653C10.8564 13.2186 10.953 13.1944 11.051 13.1951C11.1491 13.1958 11.2454 13.2213 11.3309 13.2693C11.5682 13.3947 11.7949 13.4953 12.0455 13.528C12.5275 13.5916 13.015 13.4611 13.4009 13.1653C13.5675 13.0373 13.6942 12.88 13.8122 12.7047C13.9255 12.5353 14.0495 12.3213 14.1975 12.0647L14.2142 12.0353C14.3629 11.7787 14.4862 11.5647 14.5755 11.382C14.6689 11.1913 14.7422 11.0027 14.7689 10.7953C14.8325 10.3133 14.702 9.82582 14.4062 9.44C14.2522 9.23933 14.0515 9.09333 13.8249 8.95067C13.7404 8.90061 13.6701 8.82995 13.6204 8.7453C13.5708 8.66065 13.5434 8.56478 13.5409 8.46667C13.5409 8.28133 13.6422 8.09733 13.8249 7.98267C14.0515 7.84 14.2515 7.694 14.4062 7.49333C14.5528 7.30235 14.6603 7.08435 14.7227 6.8518C14.785 6.61926 14.8009 6.3767 14.7695 6.138C14.7381 5.93307 14.6728 5.7348 14.5762 5.55133C14.4623 5.32985 14.3416 5.11197 14.2142 4.898L14.1975 4.86867C14.0758 4.65139 13.9472 4.43795 13.8122 4.22867C13.7015 4.05358 13.5625 3.89812 13.4009 3.76867C13.2099 3.62196 12.9919 3.51431 12.7594 3.45185C12.5268 3.3894 12.2843 3.37336 12.0455 3.40467C11.7949 3.438 11.5682 3.538 11.3309 3.664C11.2454 3.71178 11.1492 3.73715 11.0513 3.73773C10.9534 3.73832 10.8569 3.7141 10.7709 3.66733C10.6871 3.61625 10.6176 3.54475 10.569 3.45952C10.5204 3.37429 10.4942 3.27812 10.4929 3.18C10.4829 2.912 10.4569 2.66533 10.3595 2.432C10.2675 2.2095 10.1325 2.00732 9.96227 1.83699C9.79206 1.66667 9.58996 1.53154 9.36753 1.43933C9.17419 1.35933 8.97419 1.328 8.76286 1.314C8.56019 1.3 8.31286 1.3 8.01619 1.3H7.98286ZM7.01419 2.36333C7.06553 2.342 7.14352 2.32267 7.30419 2.31133C7.46886 2.3 7.68219 2.3 7.99952 2.3C8.31686 2.3 8.53019 2.3 8.69486 2.31133C8.85553 2.32267 8.93352 2.342 8.98486 2.36333C9.18952 2.448 9.35152 2.61 9.43619 2.81467C9.46286 2.87867 9.48486 2.97933 9.49352 3.21733C9.51353 3.74533 9.78619 4.254 10.2702 4.53333C10.7542 4.81267 11.3309 4.79467 11.7982 4.548C12.0089 4.43667 12.1069 4.40533 12.1762 4.39667C12.3952 4.36772 12.6168 4.42695 12.7922 4.56133C12.8362 4.59533 12.8922 4.65333 12.9822 4.78667C13.0749 4.924 13.1815 5.10867 13.3402 5.38333C13.4989 5.658 13.6049 5.84333 13.6775 5.99133C13.7489 6.136 13.7709 6.21333 13.7775 6.26867C13.8065 6.48771 13.7472 6.70928 13.6129 6.88467C13.5702 6.94 13.4942 7.00933 13.2929 7.136C12.8449 7.41733 12.5409 7.908 12.5409 8.46667C12.5409 9.02533 12.8449 9.516 13.2929 9.79733C13.4942 9.924 13.5702 9.99333 13.6129 10.0487C13.7475 10.224 13.8062 10.4453 13.7775 10.6647C13.7709 10.72 13.7482 10.798 13.6775 10.942C13.6049 11.0907 13.4989 11.2753 13.3402 11.55C13.1815 11.8247 13.0742 12.0093 12.9822 12.1467C12.8922 12.28 12.8362 12.338 12.7922 12.372C12.6168 12.5064 12.3952 12.5656 12.1762 12.5367C12.1069 12.528 12.0095 12.4967 11.7982 12.3853C11.3315 12.1387 10.7542 12.12 10.2702 12.3993C9.78619 12.6787 9.51353 13.188 9.49352 13.716C9.48486 13.954 9.46286 14.0547 9.43619 14.1187C9.39431 14.2199 9.33289 14.3118 9.25545 14.3893C9.17801 14.4667 9.08606 14.5281 8.98486 14.57C8.93352 14.5913 8.85553 14.6107 8.69486 14.622C8.53019 14.6333 8.31686 14.6333 7.99952 14.6333C7.68219 14.6333 7.46886 14.6333 7.30419 14.622C7.14352 14.6107 7.06553 14.5913 7.01419 14.57C6.91299 14.5281 6.82104 14.4667 6.7436 14.3893C6.66616 14.3118 6.60474 14.2199 6.56286 14.1187C6.53619 14.0547 6.51419 13.954 6.50552 13.716C6.48552 13.188 6.21286 12.6793 5.72886 12.4C5.24486 12.1207 4.66819 12.1387 4.20086 12.3853C3.99019 12.4967 3.89219 12.528 3.82286 12.5367C3.60381 12.5656 3.38224 12.5064 3.20686 12.372C3.16286 12.338 3.10686 12.28 3.01686 12.1467C2.89145 11.9515 2.77206 11.7525 2.65886 11.55C2.50019 11.2753 2.39419 11.09 2.32152 10.942C2.25019 10.7973 2.22819 10.72 2.22152 10.6647C2.19258 10.4456 2.25181 10.2241 2.38619 10.0487C2.42886 9.99333 2.50486 9.924 2.70619 9.79733C3.15419 9.516 3.45819 9.02533 3.45819 8.46667C3.45819 7.908 3.15419 7.41733 2.70619 7.136C2.50486 7.00933 2.42886 6.94 2.38619 6.88467C2.25181 6.70928 2.19258 6.48771 2.22152 6.26867C2.22819 6.21333 2.25086 6.13533 2.32152 5.99133C2.39419 5.84267 2.50019 5.658 2.65886 5.38333C2.81752 5.10867 2.92486 4.924 3.01686 4.78667C3.10686 4.65333 3.16286 4.59533 3.20686 4.56133C3.38224 4.42695 3.60381 4.36772 3.82286 4.39667C3.89219 4.40533 3.98952 4.43667 4.20086 4.548C4.66752 4.79467 5.24486 4.81333 5.72886 4.53333C6.21286 4.254 6.48552 3.74533 6.50552 3.21733C6.51419 2.97933 6.53619 2.87867 6.56286 2.81467C6.64752 2.61 6.80953 2.448 7.01419 2.36333Z" fill="#0043BE"/>
</svg>
