<svg width="16" height="17" viewBox="0 0 16 17" fill="none" xmlns="http://www.w3.org/2000/svg">
<path fill-rule="evenodd" clip-rule="evenodd" d="M8 5.96667C7.33696 5.96667 6.70107 6.23006 6.23223 6.6989C5.76339 7.16774 5.5 7.80363 5.5 8.46667C5.5 9.12971 5.76339 9.76559 6.23223 10.2344C6.70107 10.7033 7.33696 10.9667 8 10.9667C8.66304 10.9667 9.29893 10.7033 9.76777 10.2344C10.2366 9.76559 10.5 9.12971 10.5 8.46667C10.5 7.80363 10.2366 7.16774 9.76777 6.6989C9.29893 6.23006 8.66304 5.96667 8 5.96667ZM6.5 8.46667C6.5 8.06884 6.65804 7.68731 6.93934 7.40601C7.22064 7.1247 7.60218 6.96667 8 6.96667C8.39782 6.96667 8.77936 7.1247 9.06066 7.40601C9.34196 7.68731 9.5 8.06884 9.5 8.46667C9.5 8.86449 9.34196 9.24602 9.06066 9.52733C8.77936 9.80863 8.39782 9.96667 8 9.96667C7.60218 9.96667 7.22064 9.80863 6.93934 9.52733C6.65804 9.24602 6.5 8.86449 6.5 8.46667Z" fill="#656565"/>
<path fill-rule="evenodd" clip-rule="evenodd" d="M7.98335 1.3C7.68668 1.3 7.43935 1.3 7.23668 1.31333C7.02949 1.32168 6.82513 1.36449 6.63201 1.44C6.40951 1.53206 6.20733 1.66705 6.037 1.83726C5.86668 2.00747 5.73155 2.20956 5.63935 2.432C5.54268 2.66533 5.51668 2.912 5.50601 3.18C5.50482 3.27799 5.47882 3.37408 5.43044 3.4593C5.38206 3.54452 5.31288 3.61609 5.22935 3.66733C5.14323 3.71422 5.04663 3.7385 4.94858 3.73792C4.85053 3.73733 4.75423 3.7119 4.66868 3.664C4.43135 3.53867 4.20468 3.438 3.95401 3.40467C3.71531 3.37327 3.47276 3.3892 3.24021 3.45154C3.00766 3.51388 2.78967 3.62141 2.59868 3.768C2.43694 3.89765 2.29793 4.05334 2.18735 4.22867C2.07401 4.398 1.95001 4.612 1.80201 4.86867L1.78535 4.898C1.63668 5.15467 1.51335 5.36867 1.42401 5.55133C1.33068 5.742 1.25735 5.93 1.23068 6.138C1.16708 6.62 1.29753 7.10751 1.59335 7.49333C1.74735 7.694 1.94801 7.84 2.17468 7.98267C2.2591 8.03272 2.32944 8.10338 2.37911 8.18803C2.42878 8.27268 2.45616 8.36855 2.45868 8.46667C2.45616 8.56478 2.42878 8.66065 2.37911 8.7453C2.32944 8.82995 2.2591 8.90061 2.17468 8.95067C1.94801 9.09333 1.74801 9.23933 1.59335 9.44C1.44676 9.63099 1.33922 9.84898 1.27688 10.0815C1.21454 10.3141 1.19861 10.5566 1.23001 10.7953C1.25735 11.0033 1.33001 11.1913 1.42335 11.382C1.51335 11.5647 1.63668 11.7787 1.78535 12.0353L1.80201 12.0647C1.95001 12.3213 2.07401 12.5353 2.18735 12.7047C2.30535 12.88 2.43201 13.038 2.59868 13.1647C2.78962 13.3114 3.00759 13.419 3.24014 13.4815C3.47269 13.5439 3.71527 13.56 3.95401 13.5287C4.20468 13.4953 4.43135 13.3953 4.66868 13.2693C4.75415 13.2216 4.85033 13.1962 4.94825 13.1956C5.04617 13.195 5.14264 13.2192 5.22868 13.266C5.31289 13.3166 5.38268 13.388 5.43136 13.4733C5.48004 13.5587 5.50598 13.6551 5.50668 13.7533C5.51668 14.0213 5.54268 14.268 5.64001 14.5013C5.73207 14.7238 5.86706 14.926 6.03727 15.0963C6.20748 15.2667 6.40957 15.4018 6.63201 15.494C6.82535 15.574 7.02535 15.6053 7.23668 15.6193C7.43935 15.6333 7.68668 15.6333 7.98335 15.6333H8.01668C8.31335 15.6333 8.56068 15.6333 8.76335 15.62C8.97535 15.6053 9.17468 15.574 9.36801 15.4933C9.59051 15.4013 9.7927 15.2663 9.96302 15.0961C10.1333 14.9259 10.2685 14.7238 10.3607 14.5013C10.4573 14.268 10.4833 14.0213 10.494 13.7533C10.4951 13.6552 10.521 13.559 10.5694 13.4737C10.6178 13.3883 10.6871 13.3166 10.7707 13.2653C10.8569 13.2186 10.9535 13.1944 11.0515 13.1951C11.1496 13.1958 11.2458 13.2213 11.3313 13.2693C11.5687 13.3947 11.7953 13.4953 12.046 13.528C12.528 13.5916 13.0155 13.4611 13.4013 13.1653C13.568 13.0373 13.6947 12.88 13.8127 12.7047C13.926 12.5353 14.05 12.3213 14.198 12.0647L14.2147 12.0353C14.3633 11.7787 14.4867 11.5647 14.576 11.382C14.6693 11.1913 14.7427 11.0027 14.7693 10.7953C14.8329 10.3133 14.7025 9.82582 14.4067 9.44C14.2527 9.23933 14.052 9.09333 13.8253 8.95067C13.7409 8.90061 13.6706 8.82995 13.6209 8.7453C13.5712 8.66065 13.5439 8.56478 13.5413 8.46667C13.5413 8.28133 13.6427 8.09733 13.8253 7.98267C14.052 7.84 14.252 7.694 14.4067 7.49333C14.5533 7.30235 14.6608 7.08435 14.7231 6.8518C14.7855 6.61926 14.8014 6.3767 14.77 6.138C14.7386 5.93307 14.6733 5.7348 14.5767 5.55133C14.4628 5.32985 14.3421 5.11197 14.2147 4.898L14.198 4.86867C14.0762 4.65139 13.9477 4.43795 13.8127 4.22867C13.702 4.05358 13.563 3.89812 13.4013 3.76867C13.2104 3.62196 12.9924 3.51431 12.7599 3.45185C12.5273 3.3894 12.2848 3.37336 12.046 3.40467C11.7953 3.438 11.5687 3.538 11.3313 3.664C11.2459 3.71178 11.1497 3.73715 11.0518 3.73773C10.9539 3.73832 10.8574 3.7141 10.7713 3.66733C10.6876 3.61625 10.6181 3.54475 10.5695 3.45952C10.5209 3.37429 10.4947 3.27812 10.4933 3.18C10.4833 2.912 10.4573 2.66533 10.36 2.432C10.268 2.2095 10.133 2.00732 9.96276 1.83699C9.79255 1.66667 9.59045 1.53154 9.36801 1.43933C9.17468 1.35933 8.97468 1.328 8.76335 1.314C8.56068 1.3 8.31335 1.3 8.01668 1.3H7.98335ZM7.01468 2.36333C7.06601 2.342 7.14401 2.32267 7.30468 2.31133C7.46935 2.3 7.68268 2.3 8.00001 2.3C8.31735 2.3 8.53068 2.3 8.69535 2.31133C8.85601 2.32267 8.93401 2.342 8.98535 2.36333C9.19001 2.448 9.35201 2.61 9.43668 2.81467C9.46335 2.87867 9.48535 2.97933 9.49401 3.21733C9.51401 3.74533 9.78668 4.254 10.2707 4.53333C10.7547 4.81267 11.3313 4.79467 11.7987 4.548C12.0093 4.43667 12.1073 4.40533 12.1767 4.39667C12.3957 4.36772 12.6173 4.42695 12.7927 4.56133C12.8367 4.59533 12.8927 4.65333 12.9827 4.78667C13.0753 4.924 13.182 5.10867 13.3407 5.38333C13.4993 5.658 13.6053 5.84333 13.678 5.99133C13.7493 6.136 13.7713 6.21333 13.778 6.26867C13.807 6.48771 13.7477 6.70928 13.6133 6.88467C13.5707 6.94 13.4947 7.00933 13.2933 7.136C12.8453 7.41733 12.5413 7.908 12.5413 8.46667C12.5413 9.02533 12.8453 9.516 13.2933 9.79733C13.4947 9.924 13.5707 9.99333 13.6133 10.0487C13.748 10.224 13.8067 10.4453 13.778 10.6647C13.7713 10.72 13.7487 10.798 13.678 10.942C13.6053 11.0907 13.4993 11.2753 13.3407 11.55C13.182 11.8247 13.0747 12.0093 12.9827 12.1467C12.8927 12.28 12.8367 12.338 12.7927 12.372C12.6173 12.5064 12.3957 12.5656 12.1767 12.5367C12.1073 12.528 12.01 12.4967 11.7987 12.3853C11.332 12.1387 10.7547 12.12 10.2707 12.3993C9.78668 12.6787 9.51401 13.188 9.49401 13.716C9.48535 13.954 9.46335 14.0547 9.43668 14.1187C9.3948 14.2199 9.33338 14.3118 9.25594 14.3893C9.17849 14.4667 9.08654 14.5281 8.98535 14.57C8.93401 14.5913 8.85601 14.6107 8.69535 14.622C8.53068 14.6333 8.31735 14.6333 8.00001 14.6333C7.68268 14.6333 7.46935 14.6333 7.30468 14.622C7.14401 14.6107 7.06601 14.5913 7.01468 14.57C6.91348 14.5281 6.82153 14.4667 6.74409 14.3893C6.66665 14.3118 6.60523 14.2199 6.56335 14.1187C6.53668 14.0547 6.51468 13.954 6.50601 13.716C6.48601 13.188 6.21335 12.6793 5.72935 12.4C5.24535 12.1207 4.66868 12.1387 4.20135 12.3853C3.99068 12.4967 3.89268 12.528 3.82335 12.5367C3.6043 12.5656 3.38273 12.5064 3.20735 12.372C3.16335 12.338 3.10735 12.28 3.01735 12.1467C2.89193 11.9515 2.77254 11.7525 2.65935 11.55C2.50068 11.2753 2.39468 11.09 2.32201 10.942C2.25068 10.7973 2.22868 10.72 2.22201 10.6647C2.19307 10.4456 2.2523 10.2241 2.38668 10.0487C2.42935 9.99333 2.50535 9.924 2.70668 9.79733C3.15468 9.516 3.45868 9.02533 3.45868 8.46667C3.45868 7.908 3.15468 7.41733 2.70668 7.136C2.50535 7.00933 2.42935 6.94 2.38668 6.88467C2.2523 6.70928 2.19307 6.48771 2.22201 6.26867C2.22868 6.21333 2.25135 6.13533 2.32201 5.99133C2.39468 5.84267 2.50068 5.658 2.65935 5.38333C2.81801 5.10867 2.92535 4.924 3.01735 4.78667C3.10735 4.65333 3.16335 4.59533 3.20735 4.56133C3.38273 4.42695 3.6043 4.36772 3.82335 4.39667C3.89268 4.40533 3.99001 4.43667 4.20135 4.548C4.66801 4.79467 5.24535 4.81333 5.72935 4.53333C6.21335 4.254 6.48601 3.74533 6.50601 3.21733C6.51468 2.97933 6.53668 2.87867 6.56335 2.81467C6.64801 2.61 6.81001 2.448 7.01468 2.36333Z" fill="#656565"/>
</svg>
