<svg width="15" height="17" viewBox="0 0 15 17" fill="none" xmlns="http://www.w3.org/2000/svg">
<path d="M7.5 7.46667C6.83696 7.46667 6.20107 7.20328 5.73223 6.73443C5.26339 6.26559 5 5.62971 5 4.96667C5 4.30363 5.26339 3.66774 5.73223 3.1989C6.20107 2.73006 6.83696 2.46667 7.5 2.46667C8.16304 2.46667 8.79893 2.73006 9.26777 3.1989C9.73661 3.66774 10 4.30363 10 4.96667C10 5.62971 9.73661 6.26559 9.26777 6.73443C8.79893 7.20328 8.16304 7.46667 7.5 7.46667ZM7.5 3.46667C6.67 3.46667 6 4.13667 6 4.96667C6 5.79667 6.67 6.46667 7.5 6.46667C8.33 6.46667 9 5.79667 9 4.96667C9 4.13667 8.33 3.46667 7.5 3.46667Z" fill="#656565"/>
<path d="M13.5 11.4667C13.22 11.4667 13 11.2467 13 10.9667C13 10.6867 13.22 10.4667 13.5 10.4667C13.78 10.4667 14 10.2467 14 9.96667C14 9.30363 13.7366 8.66774 13.2678 8.1989C12.7989 7.73006 12.163 7.46667 11.5 7.46667H10.5C10.22 7.46667 10 7.24667 10 6.96667C10 6.68667 10.22 6.46667 10.5 6.46667C11.33 6.46667 12 5.79667 12 4.96667C12 4.13667 11.33 3.46667 10.5 3.46667C10.22 3.46667 10 3.24667 10 2.96667C10 2.68667 10.22 2.46667 10.5 2.46667C11.163 2.46667 11.7989 2.73006 12.2678 3.1989C12.7366 3.66774 13 4.30363 13 4.96667C13 5.58667 12.78 6.14667 12.4 6.58667C13.89 6.98667 15 8.34667 15 9.96667C15 10.7967 14.33 11.4667 13.5 11.4667ZM1.5 11.4667C0.67 11.4667 0 10.7967 0 9.96667C0 8.34667 1.1 6.98667 2.6 6.58667C2.23 6.14667 2 5.58667 2 4.96667C2 4.30363 2.26339 3.66774 2.73223 3.1989C3.20107 2.73006 3.83696 2.46667 4.5 2.46667C4.78 2.46667 5 2.68667 5 2.96667C5 3.24667 4.78 3.46667 4.5 3.46667C3.67 3.46667 3 4.13667 3 4.96667C3 5.79667 3.67 6.46667 4.5 6.46667C4.78 6.46667 5 6.68667 5 6.96667C5 7.24667 4.78 7.46667 4.5 7.46667H3.5C2.83696 7.46667 2.20107 7.73006 1.73223 8.1989C1.26339 8.66774 1 9.30363 1 9.96667C1 10.2467 1.22 10.4667 1.5 10.4667C1.78 10.4667 2 10.6867 2 10.9667C2 11.2467 1.78 11.4667 1.5 11.4667ZM10.5 14.4667H4.5C3.67 14.4667 3 13.7967 3 12.9667V11.9667C3 10.0367 4.57 8.46667 6.5 8.46667H8.5C10.43 8.46667 12 10.0367 12 11.9667V12.9667C12 13.7967 11.33 14.4667 10.5 14.4667ZM6.5 9.46667C5.83696 9.46667 5.20107 9.73006 4.73223 10.1989C4.26339 10.6677 4 11.3036 4 11.9667V12.9667C4 13.2467 4.22 13.4667 4.5 13.4667H10.5C10.78 13.4667 11 13.2467 11 12.9667V11.9667C11 11.3036 10.7366 10.6677 10.2678 10.1989C9.79893 9.73006 9.16304 9.46667 8.5 9.46667H6.5Z" fill="#656565"/>
</svg>
