<svg width="80" height="61" viewBox="0 0 80 61" fill="none" xmlns="http://www.w3.org/2000/svg">
<g clip-path="url(#clip0_98_896)">
<path d="M1.87939 43.0987C2.83394 43.0813 3.78816 43.0923 4.74206 43.1315C5.00801 43.6547 5.42703 44.124 5.8139 44.5618C7.39881 46.3556 9.30689 47.6234 11.5733 48.3683C13.2428 48.917 15.0163 48.8842 16.7524 48.8956C18.8753 48.9095 21.1938 48.8144 23.2926 48.9432C23.3888 49.4977 24.3902 51.472 24.3759 51.618L24.3471 51.6294L24.0888 51.1595C22.1084 51.1736 20.1281 51.1774 18.1477 51.1707C15.548 51.1673 12.9988 51.3036 10.4857 50.4951C10.3707 50.4574 10.2561 50.4182 10.1421 50.3776C10.028 50.3371 9.9145 50.2952 9.80148 50.2518C9.68843 50.2085 9.57594 50.1637 9.46399 50.1176C9.35205 50.0715 9.24068 50.024 9.12988 49.9752C9.0191 49.9263 8.90893 49.8761 8.79942 49.8245C8.68984 49.7729 8.58091 49.72 8.47265 49.6657C8.36433 49.6115 8.25673 49.5559 8.14986 49.499C8.04293 49.4421 7.93669 49.3838 7.83113 49.3243C7.72564 49.2648 7.62089 49.204 7.5169 49.1418C7.41284 49.0797 7.30957 49.0163 7.20707 48.9517C7.10458 48.887 7.00287 48.8211 6.902 48.754C6.8011 48.6868 6.70106 48.6184 6.60183 48.5488C6.50262 48.4792 6.40426 48.4083 6.30676 48.3362C6.20928 48.2642 6.11267 48.191 6.01696 48.1165C5.92121 48.0421 5.82639 47.9665 5.73253 47.8898C5.63867 47.813 5.54572 47.7351 5.45369 47.656C5.36173 47.577 5.27072 47.4968 5.18066 47.4155C5.09065 47.3342 5.00164 47.2518 4.91359 47.1684C4.82553 47.0848 4.73854 47.0003 4.65257 46.9147C4.56659 46.829 4.48168 46.7423 4.39781 46.6546C4.31394 46.5669 4.23115 46.4781 4.14945 46.3884C4.06774 46.2986 3.98714 46.2079 3.90764 46.1161C3.82813 46.0244 3.74976 45.9316 3.67251 45.838C3.59525 45.7443 3.51917 45.6496 3.44422 45.554C3.36928 45.4585 3.2955 45.3621 3.22289 45.2647C3.15028 45.1673 3.07887 45.069 3.00868 44.9699C2.93848 44.8708 2.86947 44.7708 2.80168 44.6699C2.7339 44.5691 2.66737 44.4675 2.60206 44.365C2.53675 44.2625 2.47269 44.1593 2.40991 44.0552C2.34712 43.9511 2.2856 43.8463 2.22535 43.7408C2.1651 43.6352 2.10614 43.5289 2.04847 43.4219C1.9908 43.3148 1.93444 43.2071 1.87939 43.0987Z" fill="#2E6BCE"/>
<path d="M17.4815 19.7044C17.6683 18.6047 17.8649 17.5024 18.1662 16.4276C19.623 11.2315 22.718 7.14856 27.0657 4.05316C30.2021 1.82015 34.1918 0.414573 38.0145 0.0837648C40.0203 -0.0897668 42.1079 0.02907 44.09 0.374311C48.7763 1.19052 53.2545 3.7013 56.5128 7.17897C57.3155 8.03561 58.0259 8.97093 58.6978 9.93355C60.835 12.9951 61.8819 16.0092 62.6047 19.6388C62.9308 19.6081 63.2575 19.5874 63.5848 19.5766C63.9121 19.5658 64.2394 19.565 64.5668 19.5742C64.8941 19.5834 65.2209 19.6026 65.5471 19.6318C65.8734 19.6609 66.1984 19.7 66.5223 19.749C69.1877 20.1741 72.0419 21.4678 74.1079 23.2204C77.3203 25.9455 79.5647 29.8069 79.9235 34.069C80.2718 38.2045 79.0546 42.5128 76.3529 45.6904C73.8232 48.6659 70.3719 50.829 66.4352 51.1222C64.9892 51.2299 63.5227 51.1731 62.0738 51.1665C60.0345 51.1575 57.9953 51.1598 55.956 51.1735C53.6019 55.6106 50.1576 58.7392 45.3282 60.2137C41.0326 61.5252 36.0416 61.2221 32.052 59.0754C29.3278 57.6094 26.9162 55.6012 25.1781 53.0118C24.8891 52.5813 24.5483 52.1075 24.3468 51.6294L24.3756 51.618C24.3899 51.472 23.3885 49.4977 23.2923 48.9432C24.1417 48.9701 24.7111 49.1401 25.4456 49.5348C25.6438 49.6413 25.8154 49.8169 26.0338 49.6952C26.654 50.8855 27.3272 52.1629 28.2695 53.1285C31.2598 56.3209 35.0109 58.2874 39.399 58.4966C39.5243 58.5022 39.6496 58.5063 39.775 58.5088C39.9004 58.5114 40.0259 58.5124 40.1513 58.5118C40.2767 58.5112 40.4021 58.5091 40.5274 58.5054C40.6528 58.5017 40.7781 58.4965 40.9033 58.4897C41.0285 58.4829 41.1536 58.4746 41.2787 58.4647C41.4037 58.4549 41.5286 58.4435 41.6534 58.4305C41.7781 58.4176 41.9027 58.4031 42.0271 58.387C42.1515 58.371 42.2757 58.3534 42.3997 58.3343C42.5236 58.3152 42.6474 58.2946 42.7708 58.2724C42.8943 58.2502 43.0174 58.2265 43.1403 58.2013C43.2632 58.1761 43.3857 58.1494 43.5079 58.1211C43.6302 58.0929 43.7521 58.0631 43.8736 58.0318C43.9951 58.0005 44.1162 57.9678 44.2369 57.9336C44.3576 57.8993 44.4779 57.8635 44.5978 57.8263C44.7176 57.7891 44.8369 57.7503 44.9558 57.7101C45.0747 57.6699 45.1931 57.6283 45.311 57.5852C45.4288 57.542 45.5461 57.4975 45.6629 57.4515C45.7797 57.4054 45.8959 57.358 46.0116 57.3091C46.1272 57.2602 46.2422 57.2099 46.3566 57.1581C46.471 57.1064 46.5847 57.0533 46.6978 56.9987C46.8109 56.9441 46.9233 56.8882 47.035 56.8309C47.1468 56.7736 47.2578 56.7148 47.3681 56.6547C47.4784 56.5947 47.5879 56.5332 47.6967 56.4704C47.8055 56.4077 47.9135 56.3435 48.0208 56.278C48.128 56.2126 48.2344 56.1458 48.34 56.0777C48.4456 56.0096 48.5504 55.9402 48.6542 55.8695C48.7582 55.7988 48.8612 55.7269 48.9634 55.6537C49.0655 55.5804 49.1668 55.5059 49.2671 55.4301C49.3674 55.3544 49.4668 55.2774 49.5653 55.1992C49.6637 55.121 49.7612 55.0416 49.8577 54.961C49.9542 54.8804 50.0497 54.7987 50.1442 54.7156C50.2387 54.6326 50.3322 54.5485 50.4247 54.4632C53.5422 51.5823 55.1294 47.8625 55.3028 43.6391C55.3894 43.4984 55.338 43.1194 55.3352 42.9502C56.1342 42.9972 56.9319 42.9957 57.732 42.9977C57.7846 43.2695 57.7412 43.6113 57.73 43.8918C57.661 45.6106 57.3419 47.2038 56.8948 48.86C58.5583 48.8671 60.2238 48.8244 61.8878 48.8253C64.9627 48.8271 67.2982 48.946 70.1783 47.5275C71.3216 46.9646 72.3158 46.2773 73.2471 45.4044C73.327 45.3302 73.4058 45.2551 73.4838 45.179C73.5617 45.1029 73.6387 45.0258 73.7149 44.9477C73.7909 44.8697 73.866 44.7907 73.9401 44.7108C74.0143 44.6309 74.0874 44.5501 74.1595 44.4684C74.2317 44.3867 74.3028 44.3041 74.373 44.2205C74.4431 44.1371 74.5122 44.0527 74.5803 43.9675C74.6484 43.8823 74.7153 43.7963 74.7813 43.7094C74.8473 43.6226 74.9122 43.5349 74.976 43.4464C75.0398 43.3579 75.1025 43.2687 75.1641 43.1786C75.2257 43.0886 75.2862 42.9978 75.3456 42.9063C75.405 42.8147 75.4633 42.7225 75.5204 42.6295C75.5775 42.5365 75.6335 42.4429 75.6883 42.3485C75.7431 42.2541 75.7968 42.159 75.8493 42.0633C75.9018 41.9676 75.9532 41.8713 76.0033 41.7743C76.0535 41.6774 76.1024 41.5797 76.1501 41.4815C76.1979 41.3833 76.2444 41.2845 76.2898 41.1852C76.3351 41.0859 76.3792 40.986 76.4221 40.8855C76.465 40.7851 76.5066 40.6841 76.547 40.5826C76.5874 40.4811 76.6266 40.3792 76.6645 40.2768C76.7024 40.1743 76.7391 40.0714 76.7745 39.968C76.8099 39.8647 76.844 39.7609 76.8768 39.6567C76.9097 39.5525 76.9413 39.4479 76.9716 39.3428C77.0018 39.2379 77.0308 39.1325 77.0584 39.0268C77.0862 38.9211 77.1126 38.8151 77.1377 38.7087C77.1628 38.6024 77.1866 38.4957 77.2091 38.3887C77.2315 38.2817 77.2527 38.1745 77.2726 38.0671C77.2924 37.9596 77.311 37.8518 77.3282 37.7439C77.3454 37.6359 77.3613 37.5278 77.3759 37.4195C77.3904 37.3111 77.4037 37.2026 77.4156 37.0939C77.4275 36.9853 77.4381 36.8765 77.4474 36.7676C77.4566 36.6586 77.4645 36.5496 77.4711 36.4405C77.4776 36.3313 77.4829 36.2221 77.4868 36.1129C77.4914 36.0012 77.4946 35.8895 77.4964 35.7778C77.4982 35.6661 77.4986 35.5543 77.4977 35.4426C77.4968 35.3309 77.4944 35.2192 77.4907 35.1075C77.4869 34.9958 77.4818 34.8842 77.4753 34.7727C77.4688 34.6611 77.4609 34.5496 77.4516 34.4383C77.4424 34.3269 77.4317 34.2157 77.4196 34.1046C77.4075 33.9936 77.3941 33.8826 77.3793 33.7719C77.3645 33.6612 77.3483 33.5506 77.3308 33.4403C77.3132 33.3299 77.2943 33.2198 77.2739 33.11C77.2537 33.0002 77.232 32.8906 77.209 32.7813C77.1859 32.6719 77.1616 32.563 77.1358 32.4543C77.1101 32.3455 77.083 32.2372 77.0546 32.1292C77.0262 32.0212 76.9964 31.9135 76.9653 31.8062C76.9341 31.699 76.9017 31.5921 76.868 31.4857C76.8341 31.3793 76.799 31.2732 76.7626 31.1676C76.7262 31.0621 76.6885 30.957 76.6495 30.8524C76.6105 30.7478 76.5702 30.6437 76.5286 30.5401C76.4869 30.4365 76.444 30.3335 76.3999 30.2309C76.3557 30.1284 76.3103 30.0265 76.2636 29.9252C76.2169 29.8238 76.1689 29.723 76.1197 29.6229C76.0704 29.5227 76.02 29.4232 75.9683 29.3242C75.9166 29.2253 75.8637 29.1271 75.8096 29.0296C75.7555 28.932 75.7001 28.8352 75.6436 28.739C75.587 28.6428 75.5293 28.5474 75.4704 28.4527C75.4115 28.358 75.3514 28.264 75.2901 28.1708C75.2289 28.0776 75.1664 27.9852 75.1029 27.8937C75.0393 27.802 74.9746 27.7112 74.9089 27.6213C74.843 27.5313 74.7761 27.4421 74.708 27.3538C74.64 27.2655 74.5709 27.1781 74.5007 27.0915C74.4304 27.0049 74.3592 26.9193 74.2869 26.8345C74.2146 26.7498 74.1412 26.666 74.0667 26.583C73.9923 26.5001 73.9168 26.4182 73.8404 26.3371C73.1112 25.5514 70.1596 23.2441 69.1031 23.2079C67.2106 22.3049 65.3209 21.9757 63.2387 22.1832C62.6129 22.2456 61.9549 22.437 61.3288 22.38C60.9401 22.3447 60.6057 22.226 60.418 21.852C60.194 21.4054 60.0943 19.9118 59.9813 19.3078C59.928 19.0338 59.8694 18.7609 59.8054 18.4892C59.7415 18.2174 59.6724 17.9471 59.598 17.6781C59.5236 17.4091 59.444 17.1416 59.3591 16.8758C59.2744 16.6098 59.1844 16.3457 59.0894 16.0834C58.9943 15.8211 58.8942 15.5607 58.789 15.3023C58.6839 15.0439 58.5738 14.7877 58.4587 14.5336C58.3435 14.2795 58.2236 14.0278 58.0987 13.7785C57.9738 13.5291 57.8441 13.2823 57.7097 13.0381C57.5306 12.7074 57.3256 12.2582 57.0779 11.9814C57.0681 11.9703 57.0568 11.9605 57.0462 11.9501C57.0284 11.9428 57.0105 11.9361 56.993 11.9283C56.8313 11.8559 56.0979 11.2052 55.8801 11.0422C55.312 10.6173 54.6813 10.2323 54.0532 9.90391C53.9135 9.8322 53.7728 9.7623 53.6312 9.6942C53.4898 9.62603 53.3474 9.55969 53.2043 9.49519C53.0611 9.43063 52.9172 9.36785 52.7725 9.30687C52.6278 9.24595 52.4824 9.18686 52.3362 9.12961C52.19 9.07228 52.0432 9.01685 51.8956 8.96329C51.7481 8.90968 51.5999 8.85794 51.451 8.80808C51.3022 8.75819 51.1528 8.71019 51.0028 8.66411C50.8528 8.61796 50.7022 8.57374 50.5511 8.53143C50.4 8.48911 50.2483 8.44868 50.0962 8.41014C49.9441 8.37166 49.7915 8.33504 49.6385 8.30033C49.4854 8.26566 49.332 8.23292 49.1782 8.20208C49.0243 8.17125 48.8701 8.14236 48.7156 8.1154C48.561 8.08851 48.4061 8.06354 48.2509 8.04045C48.0957 8.01739 47.9403 7.99629 47.7846 7.97717C47.6289 7.95798 47.473 7.9408 47.3169 7.92562C47.1608 7.91037 47.0045 7.89711 46.848 7.88579C46.6916 7.87448 46.535 7.86516 46.3783 7.85781C46.2215 7.85046 46.0648 7.84505 45.908 7.84164C45.7512 7.83822 45.5943 7.83678 45.4375 7.8373C45.2806 7.83782 45.1238 7.84032 44.967 7.84478C44.8102 7.84924 44.6535 7.85567 44.4969 7.86407C44.3402 7.87247 44.1837 7.88286 44.0273 7.8952C43.8709 7.9075 43.7147 7.92178 43.5586 7.93806C43.4026 7.95433 43.2468 7.97258 43.0912 7.99273C42.9357 8.01291 42.7804 8.03503 42.6253 8.05908C42.4703 8.08319 42.3156 8.1092 42.1612 8.13715C42.0069 8.16513 41.8529 8.19505 41.6992 8.22687C41.5456 8.25875 41.3924 8.29254 41.2396 8.32823C41.0868 8.36389 40.9345 8.40147 40.7826 8.44099C40.6307 8.48052 40.4794 8.52196 40.3285 8.56532C40.1777 8.60862 40.0274 8.65382 39.8777 8.70096C39.728 8.74809 39.5789 8.79707 39.4304 8.84789C39.2796 8.89935 39.1295 8.95264 38.9801 9.00778C38.8307 9.06296 38.6819 9.11994 38.5339 9.17871C38.3858 9.23754 38.2384 9.29814 38.0919 9.3605C37.9453 9.42292 37.7994 9.48711 37.6544 9.55307C37.5093 9.6191 37.3651 9.68684 37.2217 9.75635C37.0783 9.82585 36.9358 9.8971 36.7941 9.97014C36.6524 10.0432 36.5116 10.1179 36.3718 10.1944C36.2319 10.2708 36.093 10.349 35.955 10.4289C35.817 10.5087 35.6801 10.5903 35.544 10.6735C35.408 10.7567 35.273 10.8416 35.1391 10.9282C35.0052 11.0147 34.8722 11.1029 34.7404 11.1927C34.6086 11.2825 34.4779 11.3739 34.3483 11.4669C34.2187 11.5599 34.0902 11.6545 33.9629 11.7506C33.8356 11.8468 33.7094 11.9445 33.5845 12.0437C33.4595 12.1429 33.3358 12.2437 33.2133 12.346C33.0908 12.4483 32.9695 12.5521 32.8495 12.6573C32.7295 12.7626 32.6108 12.8693 32.4934 12.9775C32.376 13.0856 32.2599 13.1952 32.1451 13.3062C32.0304 13.4172 31.917 13.5296 31.8049 13.6434C31.6929 13.7572 31.5823 13.8723 31.473 13.9888C31.3637 14.1053 31.2559 14.2231 31.1495 14.3422C31.0431 14.4614 30.9381 14.5818 30.8346 14.7036C30.7312 14.8253 30.6291 14.9483 30.5286 15.0725C30.4281 15.1967 30.3291 15.3222 30.2316 15.4488C30.1342 15.5755 30.0382 15.7033 29.9438 15.8322C29.8494 15.9613 29.7566 16.0914 29.6654 16.2227C29.5741 16.354 29.4845 16.4864 29.3965 16.6198C29.3084 16.7533 29.222 16.8878 29.1373 17.0234C29.0525 17.159 28.9694 17.2956 28.8879 17.4333C28.8064 17.5709 28.7266 17.7095 28.6485 17.8491C28.5704 17.9887 28.494 18.1292 28.4192 18.2707C28.3445 18.4121 28.2715 18.5544 28.2003 18.6977C27.0858 20.9745 26.4046 23.5759 26.1774 26.1009C26.1067 26.8873 26.1061 27.6744 26.065 28.4622C24.2212 28.0588 22.2509 27.6556 20.3595 27.6012C17.4673 27.518 14.4336 28.3928 12.0052 29.9691C11.9025 30.0352 11.8007 30.1026 11.6997 30.1713C11.5987 30.2399 11.4986 30.3099 11.3994 30.3811C11.3001 30.4523 11.2018 30.5247 11.1043 30.5984C11.0069 30.6721 10.9104 30.7469 10.8148 30.823C10.7192 30.8991 10.6246 30.9764 10.531 31.0548C10.4373 31.1333 10.3446 31.213 10.2529 31.2938C10.1612 31.3745 10.0705 31.4565 9.98084 31.5395C9.89118 31.6227 9.80259 31.7069 9.71506 31.7922C9.62748 31.8775 9.54097 31.9639 9.45558 32.0513C9.37013 32.1388 9.2858 32.2274 9.20259 32.3169C9.11939 32.4066 9.03728 32.4972 8.95633 32.5889C8.87537 32.6806 8.79552 32.7733 8.71681 32.8669C8.63814 32.9606 8.56066 33.0553 8.48436 33.1509C8.408 33.2465 8.33289 33.3431 8.25901 33.4406C8.18507 33.5381 8.11235 33.6366 8.04082 33.7359C7.96935 33.8353 7.89914 33.9355 7.83015 34.0366C7.76115 34.1377 7.69343 34.2397 7.62698 34.3425C7.56053 34.4453 7.49535 34.549 7.43144 34.6534C7.36756 34.7579 7.30498 34.8631 7.24365 34.9691C7.18238 35.0752 7.12244 35.182 7.06382 35.2895C7.00519 35.397 6.94794 35.5052 6.89202 35.6142C6.83606 35.7232 6.78145 35.8329 6.72825 35.9433C6.67504 36.0536 6.62322 36.1646 6.57277 36.2763C6.52226 36.3879 6.4732 36.5002 6.42559 36.6131C6.37791 36.7259 6.33164 36.8394 6.28677 36.9534C6.24192 37.0675 6.19847 37.1821 6.15643 37.2972C6.11445 37.4124 6.07389 37.528 6.03472 37.6442C5.99556 37.7603 5.95787 37.877 5.92165 37.9941C5.88538 38.1112 5.8506 38.2287 5.81731 38.3467C5.78396 38.4648 5.75208 38.5831 5.7217 38.7019C5.69129 38.8207 5.66238 38.9399 5.63497 39.0594C5.60756 39.1789 5.58161 39.2987 5.55714 39.4189C5.30605 40.6062 5.21025 41.8542 5.19366 43.0673L4.74363 43.0931L4.74165 43.1312C3.78775 43.092 2.83354 43.0811 1.87899 43.0984C1.4576 42.2374 1.05724 41.3567 0.765942 40.4414C-0.226899 37.3219 -0.259823 33.6999 0.789958 30.5872C2.132 26.6079 4.95129 23.1841 8.71878 21.3175C11.5981 19.8911 14.3109 19.5525 17.4815 19.7044Z" fill="url(#paint0_linear_98_896)"/>
<path d="M19.9 22.3717C19.9234 20.7283 20.0407 19.0935 20.4703 17.5011C20.8073 16.252 21.2567 14.935 21.8181 13.7695C23.4944 10.2898 26.3923 7.24333 29.7258 5.33124C30.8653 4.67771 32.026 4.09232 33.262 3.64718C37.068 2.27671 41.4472 2.13779 45.3412 3.21195C45.464 3.24609 45.5865 3.28139 45.7086 3.31784C45.8308 3.35435 45.9526 3.392 46.074 3.43077C46.1954 3.46954 46.3165 3.50947 46.4371 3.55057C46.5578 3.59167 46.6781 3.63392 46.798 3.67733C46.9179 3.72069 47.0374 3.7652 47.1565 3.81087C47.2755 3.85653 47.3941 3.90331 47.5124 3.9512C47.6305 3.99913 47.7482 4.04818 47.8655 4.0984C47.9827 4.14852 48.0995 4.19981 48.2158 4.2522C48.3321 4.30452 48.4479 4.358 48.5632 4.41259C48.6785 4.46718 48.7933 4.52286 48.9075 4.57961C49.0217 4.63642 49.1354 4.69426 49.2486 4.75314C49.3618 4.81209 49.4744 4.87211 49.5864 4.93319C49.6984 4.99423 49.8098 5.05636 49.9207 5.11958C50.0316 5.18276 50.1418 5.24701 50.2515 5.31232C50.3611 5.3776 50.4701 5.4439 50.5786 5.51124C50.687 5.57865 50.7948 5.64705 50.9019 5.71642C51.009 5.78587 51.1154 5.85632 51.2212 5.92779C51.3271 5.99926 51.4322 6.0717 51.5366 6.14514C51.641 6.21859 51.7448 6.29299 51.8478 6.3684C51.9509 6.44382 52.0532 6.52021 52.1548 6.5976C52.2564 6.67498 52.3573 6.7533 52.4575 6.83261C52.5576 6.9119 52.657 6.99215 52.7555 7.07334C52.8542 7.15449 52.952 7.23659 53.0491 7.31965C53.1462 7.4027 53.2425 7.48666 53.3381 7.57152C53.4335 7.65638 53.5282 7.74216 53.6222 7.82886C53.716 7.91553 53.8091 8.00307 53.9013 8.09151C53.9936 8.17995 54.085 8.26927 54.1756 8.35947C54.2661 8.44965 54.3559 8.54072 54.4447 8.63266C54.5336 8.72451 54.6215 8.81727 54.7087 8.91086C54.7958 9.00442 54.882 9.09881 54.9674 9.19403C55.0528 9.28926 55.1372 9.38529 55.2207 9.48207C55.3043 9.57887 55.3869 9.67646 55.4686 9.7749C56.0377 10.4567 56.6077 11.1751 57.0465 11.9503C57.0288 11.943 57.0109 11.9363 56.9934 11.9284C56.8317 11.8561 56.0983 11.2053 55.8805 11.0424C55.3124 10.6174 54.6817 10.2325 54.0536 9.90408C53.9138 9.83238 53.7732 9.76247 53.6316 9.69437C53.4902 9.62621 53.3478 9.55987 53.2047 9.49537C53.0615 9.43081 52.9176 9.36803 52.7729 9.30705C52.6282 9.24613 52.4828 9.18704 52.3366 9.12979C52.1904 9.07245 52.0436 9.01703 51.896 8.96346C51.7485 8.90986 51.6003 8.85811 51.4514 8.80826C51.3026 8.75836 51.1532 8.71037 51.0032 8.66429C50.8532 8.61814 50.7026 8.57392 50.5515 8.5316C50.4004 8.48929 50.2487 8.44886 50.0966 8.41031C49.9445 8.37183 49.7919 8.33522 49.6389 8.3005C49.4858 8.26584 49.3324 8.2331 49.1786 8.20226C49.0247 8.17143 48.8705 8.14254 48.716 8.11558C48.5614 8.08868 48.4065 8.06371 48.2513 8.04063C48.0961 8.01756 47.9407 7.99647 47.785 7.97734C47.6293 7.95816 47.4734 7.94098 47.3173 7.92579C47.1612 7.91054 47.0049 7.89728 46.8484 7.88597C46.692 7.87466 46.5354 7.86533 46.3787 7.85798C46.2219 7.85063 46.0652 7.84523 45.9084 7.84181C45.7516 7.8384 45.5947 7.83695 45.4379 7.83747C45.281 7.838 45.1242 7.84049 44.9674 7.84495C44.8106 7.84942 44.6539 7.85585 44.4973 7.86425C44.3406 7.87265 44.1841 7.88304 44.0277 7.89538C43.8713 7.90767 43.7151 7.92196 43.559 7.93823C43.403 7.95451 43.2472 7.97276 43.0916 7.99291C42.9361 8.01308 42.7808 8.0352 42.6257 8.05925C42.4707 8.08336 42.316 8.10938 42.1616 8.13732C42.0073 8.16531 41.8532 8.19522 41.6996 8.22704C41.546 8.25892 41.3928 8.29271 41.24 8.32841C41.0872 8.36406 40.9348 8.40164 40.783 8.44117C40.6311 8.4807 40.4798 8.52213 40.3289 8.5655C40.1781 8.60879 40.0278 8.654 39.8781 8.70113C39.7284 8.74826 39.5793 8.79724 39.4308 8.84806C39.28 8.89953 39.1299 8.95282 38.9805 9.00795C38.8311 9.06313 38.6823 9.12011 38.5343 9.17889C38.3862 9.23771 38.2388 9.29831 38.0923 9.36067C37.9457 9.4231 37.7998 9.48728 37.6548 9.55325C37.5097 9.61927 37.3655 9.68702 37.2221 9.75653C37.0787 9.82603 36.9362 9.89727 36.7944 9.97032C36.6528 10.0433 36.512 10.1181 36.3722 10.1945C36.2323 10.271 36.0934 10.3492 35.9554 10.429C35.8174 10.5089 35.6804 10.5905 35.5444 10.6737C35.4084 10.7569 35.2734 10.8418 35.1395 10.9283C35.0055 11.0149 34.8726 11.103 34.7408 11.1929C34.609 11.2827 34.4783 11.3741 34.3487 11.4671C34.2191 11.5601 34.0906 11.6546 33.9633 11.7508C33.836 11.8469 33.7098 11.9446 33.5849 12.0439C33.4599 12.1431 33.3362 12.2439 33.2137 12.3462C33.0912 12.4485 32.9699 12.5523 32.8499 12.6575C32.7299 12.7628 32.6112 12.8695 32.4938 12.9776C32.3764 13.0858 32.2603 13.1954 32.1455 13.3064C32.0308 13.4174 31.9173 13.5298 31.8053 13.6436C31.6933 13.7574 31.5827 13.8725 31.4733 13.989C31.3641 14.1055 31.2563 14.2233 31.1499 14.3424C31.0435 14.4616 30.9385 14.582 30.835 14.7037C30.7316 14.8255 30.6295 14.9484 30.529 15.0726C30.4285 15.1969 30.3295 15.3224 30.232 15.449C30.1346 15.5757 30.0386 15.7035 29.9442 15.8324C29.8498 15.9614 29.757 16.0916 29.6658 16.2229C29.5745 16.3541 29.4849 16.4865 29.3969 16.62C29.3088 16.7535 29.2224 16.888 29.1377 17.0236C29.0529 17.1592 28.9698 17.2958 28.8883 17.4334C28.8068 17.571 28.727 17.7097 28.6489 17.8493C28.5708 17.9888 28.4943 18.1294 28.4196 18.2708C28.3449 18.4123 28.2719 18.5546 28.2007 18.6979C27.0862 20.9747 26.405 23.5761 26.1778 26.1011C26.1071 26.8875 26.1065 27.6746 26.0654 28.4624C24.2216 28.059 22.2513 27.6558 20.3599 27.6014C17.4677 27.5181 14.434 28.3929 12.0056 29.9693C11.9029 30.0354 11.8011 30.1028 11.7001 30.1714C11.5991 30.2401 11.499 30.31 11.3998 30.3812C11.3005 30.4525 11.2022 30.5249 11.1047 30.5986C11.0073 30.6723 10.9108 30.7471 10.8152 30.8231C10.7196 30.8992 10.625 30.9765 10.5314 31.055C10.4377 31.1335 10.345 31.2131 10.2533 31.2939C10.1616 31.3747 10.0709 31.4566 9.98124 31.5397C9.89158 31.6228 9.80298 31.707 9.71545 31.7924C9.62788 31.8777 9.54136 31.9641 9.45597 32.0515C9.37052 32.139 9.28619 32.2275 9.20298 32.3171C9.11978 32.4067 9.03768 32.4974 8.95672 32.5891C8.87576 32.6808 8.79591 32.7735 8.7172 32.8671C8.63853 32.9608 8.56105 33.0554 8.48475 33.1511C8.4084 33.2467 8.33329 33.3433 8.2594 33.4408C8.18546 33.5383 8.11274 33.6367 8.04121 33.7361C7.96975 33.8355 7.89953 33.9357 7.83054 34.0367C7.76155 34.1379 7.69383 34.2399 7.62738 34.3427C7.56092 34.4455 7.49574 34.5491 7.43183 34.6536C7.36796 34.758 7.30538 34.8633 7.24404 34.9693C7.18278 35.0754 7.12284 35.1822 7.06421 35.2897C7.00559 35.3972 6.94833 35.5054 6.89241 35.6144C6.83645 35.7234 6.78184 35.8331 6.72864 35.9435C6.67543 36.0538 6.62361 36.1647 6.57316 36.2764C6.52265 36.3881 6.4736 36.5003 6.42598 36.6132C6.3783 36.7261 6.33204 36.8395 6.28717 36.9536C6.24232 37.0677 6.19886 37.1823 6.15682 37.2974C6.11485 37.4125 6.07428 37.5282 6.03512 37.6444C5.99595 37.7605 5.95826 37.8771 5.92205 37.9943C5.88577 38.1114 5.851 38.2289 5.8177 38.3469C5.78436 38.4649 5.75247 38.5833 5.72209 38.7021C5.69168 38.8209 5.66278 38.9401 5.63537 39.0596C5.60796 39.1791 5.58201 39.2989 5.55753 39.4191C5.30644 40.6063 5.21064 41.8544 5.19405 43.0675L4.74402 43.0932C4.73158 43.0791 4.71784 43.0659 4.70671 43.0506C4.4347 42.6802 4.2188 42.1511 4.02194 41.7319C2.82076 39.1739 2.29547 36.3145 2.71356 33.5016C3.24365 29.9351 5.03841 26.8261 7.94117 24.6851C10.2219 23.0029 13.0724 21.9931 15.9094 21.9816C17.2517 21.9762 18.5772 22.1617 19.9 22.3717Z" fill="#D8E6FF"/>
<path d="M26.0652 28.4624C26.1063 27.6747 26.1069 26.8875 26.1776 26.1011C26.4048 23.5762 27.086 20.9748 28.2004 18.6979C28.2717 18.5547 28.3447 18.4123 28.4194 18.2709C28.4941 18.1294 28.5706 17.9889 28.6486 17.8493C28.7268 17.7097 28.8066 17.571 28.8881 17.4335C28.9696 17.2958 29.0527 17.1592 29.1374 17.0236C29.2222 16.888 29.3086 16.7535 29.3967 16.62C29.4847 16.4866 29.5743 16.3542 29.6655 16.2229C29.7567 16.0916 29.8496 15.9615 29.944 15.8324C30.0384 15.7035 30.1343 15.5757 30.2318 15.449C30.3293 15.3224 30.4282 15.1969 30.5288 15.0727C30.6293 14.9485 30.7313 14.8255 30.8348 14.7038C30.9383 14.5821 31.0433 14.4616 31.1497 14.3424C31.2561 14.2233 31.3639 14.1055 31.4731 13.989C31.5824 13.8725 31.6931 13.7574 31.8051 13.6436C31.9171 13.5298 32.0306 13.4174 32.1453 13.3064C32.2601 13.1954 32.3762 13.0858 32.4936 12.9777C32.611 12.8695 32.7297 12.7628 32.8497 12.6575C32.9697 12.5523 33.091 12.4485 33.2135 12.3462C33.336 12.2439 33.4597 12.1431 33.5847 12.0439C33.7096 11.9447 33.8358 11.847 33.9631 11.7508C34.0904 11.6547 34.2189 11.5601 34.3485 11.4671C34.4781 11.3741 34.6088 11.2827 34.7406 11.1929C34.8724 11.1031 35.0053 11.0149 35.1393 10.9284C35.2732 10.8418 35.4082 10.7569 35.5442 10.6737C35.6802 10.5905 35.8172 10.5089 35.9552 10.4291C36.0932 10.3492 36.2321 10.271 36.372 10.1946C36.5118 10.1181 36.6526 10.0434 36.7942 9.97035C36.936 9.89733 37.0785 9.82606 37.2219 9.75656C37.3653 9.68705 37.5095 9.61931 37.6546 9.55328C37.7996 9.48731 37.9454 9.42313 38.0921 9.36071C38.2386 9.29834 38.3859 9.23774 38.5341 9.17892C38.6821 9.12014 38.8309 9.06316 38.9803 9.00799C39.1297 8.95285 39.2798 8.89956 39.4306 8.84809C39.5791 8.79725 39.7282 8.74828 39.8779 8.70116C40.0276 8.65403 40.1779 8.60882 40.3287 8.56552C40.4796 8.52216 40.6309 8.48073 40.7828 8.4412C40.9346 8.40167 41.087 8.36409 41.2398 8.32844C41.3926 8.29274 41.5458 8.25893 41.6994 8.22707C41.853 8.19525 42.007 8.16534 42.1614 8.13735C42.3158 8.10941 42.4705 8.08339 42.6255 8.05928C42.7806 8.03523 42.9359 8.01311 43.0914 7.99294C43.247 7.97277 43.4028 7.95454 43.5588 7.93826C43.7149 7.92197 43.8711 7.90768 44.0275 7.8954C44.1838 7.88307 44.3403 7.87268 44.4971 7.86428C44.6537 7.85588 44.8104 7.84945 44.9672 7.84498C45.124 7.84052 45.2808 7.83803 45.4377 7.83751C45.5945 7.83698 45.7514 7.83843 45.9082 7.84184C46.065 7.84526 46.2217 7.85066 46.3784 7.85801C46.5351 7.86537 46.6917 7.87471 46.8482 7.886C47.0047 7.89731 47.1609 7.91057 47.3171 7.92582C47.4732 7.94101 47.6291 7.95819 47.7848 7.97738C47.9405 7.9965 48.0959 8.0176 48.2511 8.04066C48.4063 8.06372 48.5612 8.08871 48.7157 8.11561C48.8703 8.14255 49.0245 8.17146 49.1784 8.20229C49.3322 8.23313 49.4856 8.26587 49.6387 8.30054C49.7917 8.33525 49.9443 8.37186 50.0964 8.41034C50.2485 8.44889 50.4002 8.48932 50.5512 8.53163C50.7023 8.57395 50.8529 8.61817 51.003 8.66432C51.153 8.7104 51.3024 8.75839 51.4512 8.80829C51.6001 8.85815 51.7482 8.90987 51.8958 8.96349C52.0434 9.01706 52.1902 9.07248 52.3364 9.12982C52.4825 9.18709 52.628 9.24616 52.7727 9.30708C52.9174 9.36806 53.0613 9.43082 53.2045 9.4954C53.3476 9.55992 53.49 9.62624 53.6314 9.6944C53.773 9.7625 53.9136 9.83241 54.0534 9.90411C54.6814 10.2325 55.3122 10.6175 55.8803 11.0424C56.0981 11.2054 56.8315 11.8561 56.9932 11.9285C57.0107 11.9363 57.0286 11.943 57.0463 11.9503C57.0569 11.9607 57.0683 11.9705 57.0781 11.9816C57.3258 12.2584 57.5308 12.7076 57.7099 13.0383C57.8443 13.2825 57.974 13.5293 58.0989 13.7787C58.2238 14.028 58.3437 14.2797 58.4588 14.5338C58.574 14.7879 58.6841 15.0441 58.7892 15.3025C58.8944 15.5609 58.9945 15.8213 59.0896 16.0836C59.1846 16.3459 59.2746 16.61 59.3593 16.876C59.4441 17.1418 59.5238 17.4093 59.5982 17.6783C59.6726 17.9473 59.7417 18.2176 59.8056 18.4894C59.8695 18.7611 59.9282 19.034 59.9815 19.308C60.0946 19.912 60.1941 21.4056 60.4182 21.8522C60.6059 22.2262 60.9403 22.3449 61.329 22.3802C61.9551 22.4372 62.6131 22.2458 63.2389 22.1834C65.3211 21.9759 67.2109 22.3052 69.1033 23.2081C70.1598 23.2443 73.1114 25.5516 73.8406 26.3373C73.917 26.4184 73.9925 26.5003 74.0669 26.5832C74.1413 26.6661 74.2147 26.75 74.2871 26.8347C74.3594 26.9195 74.4306 27.0051 74.5008 27.0917C74.5711 27.1783 74.6402 27.2657 74.7082 27.3541C74.7763 27.4423 74.8432 27.5315 74.909 27.6215C74.9748 27.7114 75.0395 27.8022 75.1031 27.8939C75.1666 27.9855 75.2291 28.0778 75.2903 28.171C75.3516 28.2642 75.4117 28.3582 75.4706 28.4529C75.5295 28.5476 75.5872 28.6431 75.6438 28.7392C75.7003 28.8354 75.7557 28.9322 75.8098 29.0298C75.8639 29.1273 75.9168 29.2255 75.9685 29.3244C76.0202 29.4234 76.0706 29.5229 76.1199 29.6231C76.1691 29.7232 76.2171 29.824 76.2638 29.9254C76.3105 30.0267 76.3559 30.1286 76.4001 30.2311C76.4443 30.3337 76.4871 30.4367 76.5288 30.5403C76.5704 30.6439 76.6107 30.748 76.6497 30.8526C76.6888 30.9572 76.7265 31.0623 76.7629 31.1678C76.7993 31.2734 76.8344 31.3795 76.8682 31.4859C76.9019 31.5924 76.9344 31.6992 76.9655 31.8064C76.9966 31.9137 77.0264 32.0214 77.0548 32.1294C77.0832 32.2374 77.1103 32.3457 77.136 32.4545C77.1618 32.5632 77.1861 32.6722 77.2092 32.7815C77.2322 32.8908 77.2539 33.0004 77.2741 33.1102C77.2945 33.22 77.3134 33.3301 77.331 33.4405C77.3485 33.5508 77.3647 33.6614 77.3795 33.7721C77.3943 33.8828 77.4077 33.9938 77.4198 34.1048C77.4319 34.2159 77.4425 34.3272 77.4518 34.4385C77.4611 34.5498 77.469 34.6613 77.4755 34.7729C77.482 34.8844 77.4871 34.996 77.4909 35.1077C77.4946 35.2194 77.497 35.3311 77.4979 35.4429C77.4989 35.5545 77.4985 35.6663 77.4967 35.778C77.4948 35.8898 77.4916 36.0014 77.487 36.1131C77.4831 36.2223 77.4778 36.3315 77.4713 36.4407C77.4647 36.5498 77.4568 36.6588 77.4476 36.7678C77.4383 36.8767 77.4277 36.9855 77.4158 37.0941C77.4039 37.2028 77.3907 37.3113 77.3761 37.4197C77.3615 37.528 77.3456 37.6361 77.3284 37.7441C77.3112 37.852 77.2927 37.9598 77.2728 38.0673C77.2529 38.1747 77.2318 38.2819 77.2093 38.3889C77.1868 38.4959 77.163 38.6025 77.1379 38.7089C77.1128 38.8153 77.0864 38.9213 77.0587 39.027C77.031 39.1327 77.002 39.2381 76.9717 39.343C76.9414 39.4481 76.9099 39.5527 76.877 39.6569C76.8442 39.7611 76.81 39.8649 76.7746 39.9682C76.7393 40.0716 76.7026 40.1745 76.6647 40.277C76.6268 40.3794 76.5876 40.4813 76.5472 40.5828C76.5068 40.6843 76.4651 40.7853 76.4223 40.8857C76.3794 40.9862 76.3353 41.0861 76.29 41.1854C76.2446 41.2848 76.1981 41.3835 76.1503 41.4817C76.1026 41.58 76.0536 41.6776 76.0035 41.7745C75.9534 41.8715 75.902 41.9678 75.8495 42.0635C75.797 42.1592 75.7433 42.2543 75.6885 42.3487C75.6337 42.4431 75.5777 42.5367 75.5206 42.6297C75.4635 42.7227 75.4052 42.8149 75.3458 42.9065C75.2864 42.998 75.2259 43.0888 75.1643 43.1788C75.1027 43.2689 75.04 43.3581 74.9762 43.4466C74.9123 43.5351 74.8475 43.6228 74.7815 43.7096C74.7155 43.7965 74.6485 43.8825 74.5805 43.9677C74.5124 44.0529 74.4433 44.1373 74.3732 44.2207C74.303 44.3043 74.2319 44.3869 74.1597 44.4686C74.0876 44.5503 74.0145 44.6311 73.9403 44.711C73.8662 44.7909 73.7911 44.8699 73.7151 44.9479C73.6389 45.026 73.5619 45.1031 73.484 45.1792C73.406 45.2553 73.3271 45.3304 73.2473 45.4046C72.316 46.2775 71.3217 46.9648 70.1785 47.5277C67.2983 48.9462 64.9629 48.8273 61.888 48.8255C60.2239 48.8246 58.5585 48.8673 56.895 48.8602C57.3421 47.204 57.6612 45.6109 57.7302 43.892C57.7414 43.6115 57.7848 43.2697 57.7321 42.9979C56.9321 42.9958 56.1344 42.9974 55.3354 42.9504C55.3382 43.1196 55.3896 43.4986 55.303 43.6393C55.1296 47.8627 53.5424 51.5825 50.4249 54.4634C50.3324 54.5487 50.2389 54.6328 50.1444 54.7158C50.0499 54.7989 49.9544 54.8806 49.8579 54.9612C49.7614 55.0418 49.6639 55.1212 49.5654 55.1994C49.467 55.2777 49.3676 55.3546 49.2673 55.4303C49.167 55.5061 49.0657 55.5806 48.9636 55.6539C48.8614 55.7271 48.7584 55.799 48.6544 55.8697C48.5506 55.9404 48.4458 56.0098 48.3402 56.0779C48.2346 56.146 48.1282 56.2127 48.0209 56.2782C47.9137 56.3437 47.8057 56.4078 47.6969 56.4706C47.5881 56.5335 47.4786 56.5949 47.3683 56.6549C47.2579 56.715 47.1469 56.7737 47.0352 56.8311C46.9235 56.8884 46.8111 56.9443 46.698 56.9989C46.5849 57.0535 46.4712 57.1066 46.3567 57.1583C46.2424 57.2101 46.1274 57.2604 46.0117 57.3093C45.8961 57.3582 45.7799 57.4056 45.6631 57.4517C45.5463 57.4977 45.429 57.5422 45.3111 57.5854C45.1933 57.6285 45.0749 57.6702 44.956 57.7104C44.8371 57.7505 44.7178 57.7892 44.5979 57.8265C44.4781 57.8637 44.3578 57.8995 44.2371 57.9338C44.1164 57.968 43.9953 58.0008 43.8738 58.0321C43.7523 58.0633 43.6304 58.0931 43.5081 58.1213C43.3859 58.1496 43.2634 58.1763 43.1405 58.2015C43.0176 58.2267 42.8945 58.2504 42.771 58.2726C42.6475 58.2948 42.5238 58.3154 42.3998 58.3345C42.2759 58.3536 42.1517 58.3712 42.0273 58.3872C41.9029 58.4033 41.7783 58.4178 41.6535 58.4307C41.5288 58.4437 41.4039 58.4551 41.2788 58.4649C41.1538 58.4748 41.0287 58.4831 40.9034 58.4899C40.7783 58.4967 40.653 58.5019 40.5276 58.5056C40.4023 58.5093 40.2769 58.5114 40.1515 58.512C40.026 58.5126 39.9006 58.5116 39.7752 58.509C39.6498 58.5065 39.5245 58.5024 39.3992 58.4968C35.0111 58.2876 31.26 56.3211 28.2697 53.1287C27.3274 52.1631 26.6542 50.8857 26.034 49.6954C25.8156 49.8171 25.644 49.6415 25.4458 49.535C24.7113 49.1403 24.1418 48.9703 23.2925 48.9434C21.1936 48.8146 18.8752 48.9097 16.7522 48.8958C15.0162 48.8844 13.2427 48.9172 11.5732 48.3685C9.30677 47.6236 7.39872 46.3558 5.81379 44.562C5.4269 44.1242 5.0079 43.6549 4.74194 43.1317L4.74392 43.0935L5.19395 43.0677C5.21054 41.8547 5.30634 40.6066 5.55743 39.4193C5.5819 39.2992 5.60783 39.1794 5.63526 39.0598C5.66267 38.9403 5.69158 38.8211 5.72199 38.7023C5.75239 38.5836 5.78425 38.4652 5.81759 38.3472C5.85087 38.2292 5.88567 38.1116 5.92194 37.9945C5.95816 37.8774 5.99585 37.7608 6.03501 37.6446C6.07416 37.5285 6.11474 37.4128 6.15672 37.2976C6.19876 37.1825 6.24219 37.0679 6.28706 36.9539C6.33191 36.8398 6.3782 36.7263 6.42588 36.6135C6.47349 36.5006 6.52257 36.3883 6.57306 36.2767C6.62351 36.165 6.67533 36.054 6.72854 35.9437C6.78176 35.8334 6.83635 35.7237 6.89231 35.6146C6.94823 35.5057 7.00548 35.3974 7.06411 35.2899C7.12273 35.1824 7.18267 35.0756 7.24394 34.9695C7.30527 34.8635 7.36785 34.7583 7.43173 34.6539C7.49564 34.5494 7.56082 34.4458 7.62727 34.3429C7.69372 34.2401 7.76144 34.1381 7.83044 34.037C7.89943 33.9359 7.96964 33.8357 8.04111 33.7364C8.11262 33.637 8.18536 33.5386 8.2593 33.441C8.33318 33.3435 8.40829 33.247 8.48465 33.1513C8.56095 33.0557 8.63843 32.961 8.7171 32.8674C8.7958 32.7737 8.87566 32.681 8.95662 32.5893C9.03757 32.4977 9.11965 32.407 9.20288 32.3174C9.28609 32.2278 9.37041 32.1392 9.45587 32.0518C9.54126 31.9643 9.62775 31.8779 9.71535 31.7926C9.80288 31.7073 9.89148 31.6231 9.98113 31.54C10.0708 31.4569 10.1615 31.375 10.2532 31.2942C10.3449 31.2134 10.4376 31.1337 10.5313 31.0553C10.6249 30.9768 10.7195 30.8995 10.8151 30.8234C10.9107 30.7474 11.0072 30.6725 11.1046 30.5988C11.2021 30.5252 11.3004 30.4527 11.3997 30.3815C11.4989 30.3103 11.599 30.2404 11.7 30.1717C11.801 30.1031 11.9028 30.0357 12.0055 29.9695C14.4338 28.3932 17.4676 27.5184 20.3598 27.6016C22.2511 27.6558 24.2214 28.059 26.0652 28.4624Z" fill="white"/>
<path d="M69.1035 23.208C70.1601 23.2442 73.1116 25.5515 73.8408 26.3372C73.9173 26.4182 73.9927 26.5002 74.0671 26.5831C74.1416 26.666 74.215 26.7499 74.2873 26.8346C74.3596 26.9194 74.4309 27.005 74.5011 27.0916C74.5713 27.1782 74.6405 27.2656 74.7085 27.3539C74.7765 27.4422 74.8434 27.5314 74.9092 27.6214C74.975 27.7113 75.0397 27.8021 75.1033 27.8938C75.1669 27.9853 75.2293 28.0777 75.2906 28.1709C75.3518 28.2641 75.4119 28.3581 75.4708 28.4528C75.5298 28.5475 75.5875 28.6429 75.644 28.7391C75.7006 28.8352 75.7559 28.9321 75.81 29.0297C75.8642 29.1272 75.9171 29.2254 75.9688 29.3243C76.0204 29.4232 76.0709 29.5228 76.1201 29.623C76.1693 29.7231 76.2173 29.8239 76.264 29.9253C76.3107 30.0266 76.3561 30.1285 76.4003 30.231C76.4445 30.3336 76.4874 30.4366 76.529 30.5402C76.5706 30.6438 76.611 30.7479 76.6499 30.8525C76.689 30.9571 76.7267 31.0622 76.7631 31.1677C76.7995 31.2733 76.8346 31.3793 76.8684 31.4858C76.9021 31.5922 76.9346 31.6991 76.9658 31.8063C76.9968 31.9136 77.0266 32.0213 77.0551 32.1293C77.0835 32.2373 77.1105 32.3456 77.1363 32.4544C77.162 32.563 77.1864 32.672 77.2094 32.7814C77.2325 32.8907 77.2541 33.0002 77.2744 33.1101C77.2947 33.2199 77.3137 33.33 77.3312 33.4404C77.3488 33.5507 77.365 33.6613 77.3798 33.772C77.3946 33.8827 77.408 33.9937 77.42 34.1047C77.4321 34.2158 77.4428 34.327 77.4521 34.4384C77.4613 34.5497 77.4692 34.6612 77.4757 34.7728C77.4823 34.8843 77.4874 34.9959 77.4911 35.1076C77.4949 35.2193 77.4972 35.331 77.4982 35.4427C77.4991 35.5544 77.4987 35.6661 77.4969 35.7779C77.4951 35.8896 77.4918 36.0013 77.4872 36.113C77.4833 36.2222 77.4781 36.3314 77.4715 36.4406C77.465 36.5496 77.4571 36.6587 77.4479 36.7676C77.4386 36.8766 77.428 36.9854 77.4161 37.094C77.4041 37.2027 77.3909 37.3112 77.3763 37.4195C77.3618 37.5279 77.3459 37.636 77.3287 37.744C77.3114 37.8519 77.2929 37.9596 77.273 38.0672C77.2532 38.1746 77.232 38.2818 77.2095 38.3888C77.187 38.4958 77.1632 38.6024 77.1381 38.7088C77.1131 38.8151 77.0867 38.9212 77.059 39.0269C77.0312 39.1326 77.0022 39.238 76.972 39.3429C76.9417 39.448 76.9101 39.5526 76.8772 39.6568C76.8444 39.761 76.8103 39.8648 76.7749 39.9681C76.7395 40.0715 76.7029 40.1744 76.6649 40.2769C76.627 40.3793 76.5879 40.4812 76.5475 40.5827C76.507 40.6842 76.4654 40.7852 76.4226 40.8856C76.3797 40.9861 76.3356 41.086 76.2902 41.1853C76.2449 41.2846 76.1983 41.3834 76.1506 41.4816C76.1028 41.5798 76.0539 41.6775 76.0038 41.7744C75.9536 41.8714 75.9023 41.9677 75.8497 42.0634C75.7972 42.1591 75.7435 42.2542 75.6887 42.3486C75.6339 42.4429 75.5779 42.5366 75.5208 42.6296C75.4637 42.7225 75.4054 42.8148 75.346 42.9064C75.2866 42.9979 75.2261 43.0887 75.1645 43.1787C75.1029 43.2688 75.0402 43.358 74.9764 43.4465C74.9126 43.535 74.8477 43.6226 74.7817 43.7095C74.7158 43.7964 74.6488 43.8824 74.5807 43.9676C74.5126 44.0528 74.4435 44.1371 74.3734 44.2206C74.3033 44.3041 74.2321 44.3868 74.16 44.4685C74.0878 44.5502 74.0147 44.631 73.9406 44.7109C73.8664 44.7908 73.7913 44.8698 73.7153 44.9478C73.6392 45.0259 73.5622 45.103 73.4843 45.1791C73.4063 45.2552 73.3274 45.3303 73.2476 45.4045C72.3163 46.2774 71.322 46.9647 70.1787 47.5276C67.2986 48.9461 64.9631 48.8271 61.8882 48.8254C60.2242 48.8244 58.5588 48.8672 56.8952 48.8601C57.3423 47.2039 57.6614 45.6108 57.7304 43.8919C57.7416 43.6114 57.7851 43.2696 57.7324 42.9978C56.9324 42.9957 56.1347 42.9973 55.3356 42.9503C55.3385 43.1195 55.3898 43.4985 55.3032 43.6392C55.2823 39.3952 54.1383 36.3939 51.567 33.0349C51.1748 32.4921 50.6555 32.0481 50.1552 31.609C47.9807 29.7 45.2724 28.279 42.3974 27.8311C38.2188 27.1802 34.183 28.3083 30.7988 30.8273C27.5956 33.2118 25.4482 37.0602 24.8638 41.0073C24.417 44.0248 24.8415 46.8994 26.0342 49.6953C25.8158 49.817 25.6442 49.6414 25.446 49.5349C24.7116 49.1402 24.1421 48.9702 23.2927 48.9433C21.1939 48.8145 18.8754 48.9096 16.7525 48.8957C15.0164 48.8843 13.2429 48.9171 11.5734 48.3684C9.30702 47.6235 7.39896 46.3557 5.81403 44.5619C5.42714 44.1241 5.00814 43.6548 4.74219 43.1315C6.92933 43.0603 9.13236 43.116 11.3213 43.1176L22.2518 43.1172C22.4102 38.555 24.0757 34.1772 27.1921 30.831C27.2913 30.7247 27.3918 30.6198 27.4937 30.5161C27.5955 30.4123 27.6985 30.3099 27.8029 30.2087C27.9072 30.1075 28.0128 30.0077 28.1195 29.9091C28.2264 29.8106 28.3343 29.7135 28.4435 29.6176C28.5527 29.5218 28.663 29.4273 28.7745 29.3343C28.8861 29.2412 28.9987 29.1495 29.1124 29.0593C29.2262 28.969 29.341 28.8801 29.457 28.7927C29.5729 28.7053 29.69 28.6193 29.808 28.5348C29.9261 28.4504 30.0452 28.3674 30.1652 28.2858C30.2854 28.2044 30.4065 28.1243 30.5286 28.0458C30.6506 27.9673 30.7737 27.8904 30.8977 27.815C31.0216 27.7395 31.1465 27.6656 31.2723 27.5934C31.3981 27.521 31.5248 27.4503 31.6523 27.3811C31.7799 27.312 31.9082 27.2444 32.0374 27.1785C32.1666 27.1125 32.2966 27.0482 32.4274 26.9855C32.5582 26.9227 32.6897 26.8617 32.8219 26.8022C32.9542 26.7428 33.0872 26.685 33.2209 26.6289C33.3546 26.5728 33.489 26.5184 33.624 26.4656C33.7591 26.4128 33.8948 26.3617 34.0311 26.3124C34.1674 26.263 34.3043 26.2153 34.4418 26.1694C34.5792 26.1234 34.7173 26.0791 34.8559 26.0366C34.9944 25.9941 35.1335 25.9533 35.2731 25.9143C35.4127 25.8752 35.5527 25.8379 35.6931 25.8023C35.8336 25.7668 35.9745 25.733 36.1158 25.7009C36.2572 25.6689 36.3988 25.6386 36.5409 25.61C36.683 25.5815 36.8254 25.5548 36.9681 25.5298C37.1109 25.5048 37.2539 25.4816 37.3972 25.4602C37.5404 25.4388 37.684 25.4192 37.8277 25.4014C37.9715 25.3836 38.1155 25.3675 38.2597 25.3533C38.4039 25.3391 38.5482 25.3267 38.6926 25.3161C38.8371 25.3054 38.9817 25.2966 39.1264 25.2896C39.2711 25.2826 39.4159 25.2774 39.5607 25.2739C44.3589 25.12 48.7461 26.9921 52.2134 30.2771C52.5375 30.5883 52.8491 30.9117 53.1482 31.2471C53.4475 31.5827 53.7333 31.9294 54.0059 32.2871C54.2784 32.6449 54.5368 33.0128 54.781 33.3907C55.0253 33.7686 55.2546 34.1555 55.4691 34.5513C57.0104 37.3512 57.6484 39.7729 57.7428 42.9651C60.1696 42.891 63.1024 43.1883 65.4524 42.6871C65.5435 42.6677 65.6342 42.6471 65.7248 42.6254C65.8153 42.6038 65.9056 42.581 65.9956 42.5571C66.0856 42.5332 66.1752 42.5082 66.2646 42.4821C66.354 42.4559 66.443 42.4287 66.5318 42.4004C66.6205 42.3721 66.7089 42.3427 66.7969 42.3122C66.8849 42.2817 66.9724 42.25 67.0596 42.2173C67.1469 42.1847 67.2337 42.151 67.32 42.1161C67.4065 42.0813 67.4924 42.0454 67.578 42.0085C67.6635 41.9715 67.7485 41.9335 67.8331 41.8945C67.9177 41.8554 68.0018 41.8153 68.0854 41.7742C68.169 41.7331 68.2521 41.6909 68.3347 41.6477C68.4173 41.6045 68.4993 41.5603 68.5809 41.515C68.6624 41.4698 68.7433 41.4236 68.8237 41.3764C68.9041 41.3292 68.9839 41.281 69.063 41.2318C69.1423 41.1826 69.2209 41.1324 69.2989 41.0813C69.3768 41.0301 69.4542 40.978 69.5309 40.925C69.6076 40.8719 69.6836 40.818 69.759 40.763C69.8344 40.7081 69.909 40.6522 69.983 40.5954C70.0571 40.5386 70.1304 40.4809 70.203 40.4223C70.2756 40.3637 70.3475 40.3042 70.4186 40.2439C70.4898 40.1835 70.5602 40.1222 70.6299 40.0601C70.6995 39.9979 70.7684 39.935 70.8365 39.8711C70.9046 39.8073 70.972 39.7427 71.0386 39.6772C71.1051 39.6117 71.1709 39.5454 71.2358 39.4783C71.3007 39.4111 71.3648 39.3432 71.428 39.2746C71.4913 39.2059 71.5537 39.1364 71.6153 39.0662C71.6769 38.9959 71.7375 38.9249 71.7974 38.8532C71.8572 38.7814 71.9162 38.7089 71.9743 38.6357C72.0323 38.5625 72.0895 38.4886 72.1458 38.4139C72.202 38.3393 72.2573 38.2641 72.3118 38.1881C72.3662 38.1121 72.4197 38.0354 72.4722 37.9581C72.5248 37.8808 72.5764 37.8028 72.627 37.7242C72.6727 37.6532 72.7175 37.5816 72.7615 37.5094C72.8055 37.4373 72.8485 37.3646 72.8907 37.2914C72.9328 37.2182 72.9741 37.1445 73.0145 37.0703C73.0548 36.9961 73.0943 36.9213 73.1328 36.8461C73.1713 36.7709 73.2089 36.6953 73.2456 36.6191C73.2822 36.5429 73.318 36.4664 73.3528 36.3893C73.3876 36.3123 73.4214 36.2349 73.4543 36.157C73.4872 36.0791 73.5191 36.0008 73.5501 35.9222C73.5811 35.8435 73.6111 35.7645 73.6401 35.6851C73.6692 35.6057 73.6973 35.5259 73.7244 35.4458C73.7515 35.3657 73.7776 35.2853 73.8027 35.2046C73.8279 35.1238 73.852 35.0428 73.8752 34.9614C73.8983 34.8801 73.9204 34.7985 73.9416 34.7166C73.9628 34.6347 73.9829 34.5525 74.002 34.4701C74.0211 34.3877 74.0392 34.305 74.0563 34.2222C74.0734 34.1394 74.0895 34.0563 74.1046 33.973C74.1197 33.8898 74.1337 33.8064 74.1468 33.7228C74.1598 33.6392 74.1718 33.5555 74.1828 33.4715C74.1938 33.3877 74.2037 33.3037 74.2127 33.2195C74.2216 33.1353 74.2295 33.0511 74.2363 32.9668C74.2432 32.8824 74.249 32.798 74.2538 32.7136C74.2585 32.6291 74.2623 32.5445 74.265 32.46C74.2678 32.3754 74.2694 32.2908 74.2701 32.2062C74.2707 32.1215 74.2704 32.0369 74.269 31.9523C74.2675 31.8677 74.2651 31.7832 74.2616 31.6986C74.2581 31.614 74.2536 31.5296 74.248 31.4452C74.2424 31.3607 74.2358 31.2764 74.2282 31.1921C74.2206 31.1078 74.2119 31.0237 74.2022 30.9396C74.1925 30.8556 74.1818 30.7716 74.1701 30.6878C74.1583 30.6041 74.1456 30.5204 74.1318 30.4369C74.118 30.3535 74.1032 30.2702 74.0873 30.187C74.0715 30.104 74.0546 30.0211 74.0368 29.9384C73.5477 27.7666 72.3679 25.6837 70.6515 24.2655C70.1703 23.868 69.6302 23.5404 69.1035 23.208Z" fill="#ECF3FF"/>
<path d="M26.034 49.6952C24.8413 46.8993 24.4167 44.0247 24.8636 41.0072C25.448 37.0601 27.5953 33.2117 30.7986 30.8272C34.1827 28.3082 38.2186 27.1801 42.3971 27.831C45.2722 28.2789 47.9804 29.6999 50.1549 31.6089C50.6552 32.048 51.1745 32.492 51.5667 33.0348C54.138 36.3938 55.2821 39.395 55.303 43.6391C55.1296 47.8624 53.5424 51.5823 50.4249 54.4632C50.3324 54.5485 50.2389 54.6326 50.1444 54.7156C50.0499 54.7986 49.9544 54.8804 49.8579 54.961C49.7614 55.0416 49.6639 55.121 49.5654 55.1992C49.467 55.2775 49.3676 55.3544 49.2673 55.4301C49.1669 55.5059 49.0657 55.5804 48.9635 55.6536C48.8614 55.7269 48.7583 55.7988 48.6544 55.8695C48.5505 55.9402 48.4458 56.0096 48.3402 56.0777C48.2346 56.1458 48.1281 56.2125 48.0209 56.278C47.9137 56.3435 47.8057 56.4076 47.6968 56.4704C47.5881 56.5332 47.4785 56.5947 47.3683 56.6547C47.2579 56.7148 47.1469 56.7735 47.0352 56.8309C46.9235 56.8882 46.8111 56.9441 46.698 56.9987C46.5849 57.0532 46.4711 57.1064 46.3567 57.1581C46.2424 57.2099 46.1274 57.2602 46.0117 57.3091C45.8961 57.358 45.7799 57.4054 45.6631 57.4514C45.5463 57.4975 45.429 57.542 45.3111 57.5851C45.1932 57.6283 45.0748 57.6699 44.9559 57.7102C44.8371 57.7503 44.7177 57.789 44.5979 57.8262C44.4781 57.8635 44.3578 57.8993 44.2371 57.9335C44.1163 57.9678 43.9953 58.0006 43.8737 58.0319C43.7522 58.0631 43.6304 58.0928 43.5081 58.1211C43.3859 58.1493 43.2634 58.1761 43.1405 58.2013C43.0176 58.2265 42.8944 58.2502 42.771 58.2723C42.6475 58.2945 42.5238 58.3152 42.3998 58.3343C42.2758 58.3534 42.1517 58.371 42.0273 58.387C41.9028 58.4031 41.7782 58.4176 41.6535 58.4305C41.5288 58.4435 41.4039 58.4549 41.2788 58.4647C41.1538 58.4746 41.0287 58.4829 40.9034 58.4897C40.7782 58.4965 40.653 58.5017 40.5276 58.5054C40.4022 58.5091 40.2768 58.5112 40.1514 58.5118C40.026 58.5123 39.9006 58.5113 39.7752 58.5088C39.6498 58.5062 39.5245 58.5022 39.3992 58.4965C35.0111 58.2874 31.26 56.3209 28.2697 53.1285C27.3274 52.1628 26.6542 50.8855 26.034 49.6952Z" fill="#D9D9D9"/>
<path d="M39.9564 31.3487C40.4898 31.6753 41.2828 32.6124 41.7563 33.0999L45.1247 36.4585C45.6692 37.0068 46.1837 37.5897 46.7517 38.1133C47.1852 38.5328 48.8009 40.0687 49.0055 40.5097C48.9656 40.5984 48.9939 40.5808 48.9151 40.6124C48.6418 40.7218 43.338 40.6225 42.5588 40.6187C42.5785 43.6129 42.5765 46.6071 42.5527 49.6012C42.5498 51.1401 42.6094 52.7091 42.5376 54.2436C40.8037 54.3145 39.0487 54.2823 37.3127 54.2773L37.3054 47.1906C37.3092 45.8638 37.3631 44.5146 37.3118 43.1899C37.3415 42.3464 37.3196 41.4941 37.3218 40.6496L33.5304 40.6423C32.7811 40.6707 31.7281 40.7633 31.021 40.5124C31.3428 40.0501 31.7968 39.6579 32.1923 39.2598L33.6152 37.8003C35.7132 35.6423 37.8034 33.4504 39.9564 31.3487Z" fill="#2E91D8"/>
<path d="M44.1099 35.5644C43.2898 34.7983 42.5087 33.9789 41.7373 33.1628L41.7563 33.1L45.1247 36.4585C45.6693 37.0068 46.1837 37.5897 46.7517 38.1134C47.1852 38.5329 48.8009 40.0688 49.0055 40.5097C48.9656 40.5984 48.9939 40.5809 48.9151 40.6124C48.6418 40.7219 43.338 40.6225 42.5589 40.6187C42.5785 43.6129 42.5765 46.6071 42.5527 49.6012C42.5498 51.1401 42.6094 52.7091 42.5376 54.2436C40.8037 54.3145 39.0487 54.2823 37.3127 54.2773L37.3054 47.1906C37.3092 45.8639 37.3631 44.5146 37.3118 43.1899C37.3415 42.3464 37.3196 41.4941 37.3218 40.6496L33.5304 40.6423C32.9219 40.551 32.2159 40.6855 31.6272 40.5368C31.7955 40.5036 31.9705 40.5357 32.1415 40.518C32.3533 40.4961 32.5572 40.4199 32.7682 40.3973C33.1473 40.3567 33.5566 40.3794 33.9401 40.3706C35.1782 40.3472 36.4163 40.3502 37.6542 40.3796C37.5773 41.5524 37.6273 42.7649 37.6232 43.9417L37.6121 50.6948C38.3938 51.5674 39.1816 52.4199 39.917 53.334C39.9493 48.8977 39.9482 44.4615 39.9137 40.0253C40.7101 39.1178 41.5462 38.2332 42.3888 37.369C42.967 36.776 43.5802 36.2021 44.1099 35.5644Z" fill="#003AA5"/>
<path d="M26.034 49.6952C24.8413 46.8993 24.4167 44.0247 24.8636 41.0072C25.448 37.0601 27.5953 33.2117 30.7986 30.8272C34.1827 28.3082 38.2186 27.1801 42.3971 27.831C45.2722 28.2789 47.9804 29.6999 50.1549 31.6089C50.6552 32.048 51.1745 32.492 51.5667 33.0348C50.889 33.9679 49.8076 34.9214 48.9882 35.7645C48.4824 36.2842 47.9794 36.8066 47.4792 37.3318C47.2366 37.589 47.0066 37.8692 46.7517 38.1134C46.1837 37.5897 45.6692 37.0068 45.1247 36.4585L41.7563 33.1C41.2828 32.6124 40.4898 31.6753 39.9563 31.3487C37.8033 33.4504 35.7132 35.6423 33.6152 37.8003L32.1922 39.2598C31.7968 39.6579 31.3428 40.0501 31.021 40.5124C31.728 40.7634 32.7811 40.6708 33.5304 40.6423L37.3218 40.6497C37.3195 41.4941 37.3415 42.3464 37.3118 43.1899C37.2695 43.4006 37.2672 43.6029 37.2656 43.8165C35.3251 45.7576 33.4226 47.7356 31.558 49.7507C30.7901 50.5867 30.0072 51.4081 29.2093 52.2151C28.9078 52.5173 28.6044 52.866 28.2696 53.1286C27.3274 52.1628 26.6542 50.8855 26.034 49.6952Z" fill="white"/>
</g>
<defs>
<linearGradient id="paint0_linear_98_896" x1="51.1929" y1="59.2632" x2="25.0735" y2="4.73954" gradientUnits="userSpaceOnUse">
<stop stop-color="#002165"/>
<stop offset="1" stop-color="#0E4FB0"/>
</linearGradient>
<clipPath id="clip0_98_896">
<rect width="80" height="61" fill="white"/>
</clipPath>
</defs>
</svg>
